<svg width="8" height="10" viewBox="0 0 8 10" fill="none" xmlns="http://www.w3.org/2000/svg">
<g clip-path="url(#clip0_103_2)">
<path d="M6.09142 4.06661C6.09142 3.57369 6.49102 3.17409 6.98394 3.17409C7.47687 3.17409 7.87646 3.57369 7.87646 4.06661V5.88666C7.87646 6.53375 7.72943 7.09995 7.43536 7.58526C7.14403 8.07058 6.73591 8.44901 6.21098 8.72056C5.68605 8.98921 5.07454 9.12354 4.37647 9.12354C3.67564 9.12354 3.06276 8.98921 2.53783 8.72056C2.0129 8.44901 1.60477 8.07058 1.31345 7.58526C1.02213 7.09995 0.876465 6.53375 0.876465 5.88666V1.01606C0.876465 0.52313 1.27606 0.123535 1.76899 0.123535C2.26191 0.123535 2.66151 0.52313 2.66151 1.01606V5.72633C2.66151 6.06432 2.73159 6.36474 2.87175 6.62762C3.01467 6.8905 3.21529 7.09706 3.47364 7.24728C3.73198 7.39749 4.03292 7.4726 4.37647 7.4726C4.72275 7.4726 5.0237 7.39749 5.27929 7.24728C5.53764 7.09706 5.73689 6.8905 5.87705 6.62762C6.01997 6.36474 6.09142 6.06432 6.09142 5.72633V4.06661Z" fill="#F3F3F3" fill-opacity="0.5"/>
<path d="M8 1C8 0.447715 7.55228 0 7 0C6.44772 0 6 0.447715 6 1C6 1.55228 6.44772 2 7 2C7.55228 2 8 1.55228 8 1Z" fill="#F3F3F3" fill-opacity="0.5"/>
</g>
<defs>
<clipPath id="clip0_103_2">
<rect width="8" height="10" fill="white"/>
</clipPath>
</defs>
</svg>
