<svg width="691" height="1382" viewBox="0 0 691 1382" fill="none" xmlns="http://www.w3.org/2000/svg">
<path d="M0 746.184V724.407C18.4635 724.407 33.4997 709.373 33.4997 690.911C33.4997 672.45 18.4635 657.527 0 657.527V635.749C30.5146 635.749 55.28 660.511 55.28 690.911C55.28 721.422 30.5146 746.184 0 746.184Z" fill="#BDDE00"/>
<path d="M0 873.312V851.534C88.6691 851.534 160.644 779.569 160.644 690.911C160.644 602.364 88.6691 530.399 0 530.399V508.621C100.61 508.621 182.424 590.425 182.424 690.911C182.424 791.508 100.61 873.312 0 873.312Z" fill="#BDDE00"/>
<path d="M0 1000.44V978.663C158.764 978.663 287.788 849.656 287.788 690.912C287.788 532.279 158.764 403.272 0 403.272V381.494C170.705 381.494 309.568 520.34 309.568 690.912C309.568 861.595 170.705 1000.44 0 1000.44Z" fill="#BDDE00"/>
<path d="M691 690.912C691 1071.96 381.1 1381.82 0 1381.82V1360.16C369.049 1360.16 669.33 1059.91 669.33 690.912C669.33 322.02 369.049 21.7775 0 21.7775V0C381.1 0 691 309.971 691 690.912Z" fill="#BDDE00"/>
<path d="M0 1127.57V1105.79C228.859 1105.79 414.932 919.742 414.932 690.912C414.932 462.192 228.859 276.144 0 276.144V254.366C240.8 254.366 436.712 450.143 436.712 690.912C436.712 931.681 240.8 1127.57 0 1127.57Z" fill="#BDDE00"/>
<path d="M0 1254.7V1233.03C298.954 1233.03 542.076 989.827 542.076 690.912C542.076 392.106 298.954 148.905 0 148.905V127.238C311.005 127.238 563.856 380.057 563.856 690.912C563.856 1001.88 311.005 1254.7 0 1254.7Z" fill="#BDDE00"/>
</svg>
