<svg width="1383" height="1382" viewBox="0 0 1383 1382" fill="none" xmlns="http://www.w3.org/2000/svg">
<path d="M1382 690.912V1381.82H0V0H1382V690.912Z" fill="#CEDE6F"/>
<path d="M21.8909 1381.82H0C0 619.831 619.91 0 1382 0V21.8881C632.071 21.8881 21.8909 631.991 21.8909 1381.82Z" fill="#CEDE6F"/>
<path d="M149.891 1381.7H128C127.889 690.457 690.419 128 1381.75 128V149.888C702.47 149.999 149.891 702.507 149.891 1381.7Z" fill="#CEDE6F"/>
<path d="M277.891 1381.58H256C255.889 760.973 760.927 256 1381.61 256V277.888C772.979 277.999 277.891 773.023 277.891 1381.58Z" fill="#CEDE6F"/>
<path d="M406.422 1381.82H384.531C384.531 831.858 831.968 384.479 1382 384.479V406.367C844.019 406.367 406.422 843.907 406.422 1381.82Z" fill="#CEDE6F"/>
<path d="M534.563 1381.82H512.672C512.672 902.496 902.617 512.601 1382.01 512.601V534.489C914.779 534.489 534.563 914.656 534.563 1381.82Z" fill="#CEDE6F"/>
<path d="M662.696 1381.82H640.805C640.805 973.135 973.259 640.724 1382 640.724V662.612C985.42 662.612 662.696 985.295 662.696 1381.82Z" fill="#CEDE6F"/>
<path d="M790.946 1381.82H769.055C769.055 1043.88 1044.02 768.846 1382.11 768.846V790.734C1056.07 790.845 790.946 1055.93 790.946 1381.82Z" fill="#CEDE6F"/>
<path d="M919.086 1381.82H897.195C897.195 1114.52 1114.67 896.969 1382.11 896.969V918.857C1126.72 918.967 919.086 1126.57 919.086 1381.82Z" fill="#CEDE6F"/>
<path d="M1047.22 1381.82H1025.33C1025.33 1185.16 1185.31 1025.2 1381.99 1025.2V1047.09C1197.36 1047.09 1047.22 1197.21 1047.22 1381.82Z" fill="#CEDE6F"/>
<path d="M1175.36 1381.82H1153.47C1153.47 1255.8 1255.96 1153.32 1382 1153.32V1175.21C1268.01 1175.21 1175.36 1267.96 1175.36 1381.82Z" fill="#CEDE6F"/>
<path d="M1303.5 1381.82H1281.61C1281.61 1326.44 1326.61 1281.45 1382 1281.45V1303.34C1338.77 1303.34 1303.5 1338.6 1303.5 1381.82Z" fill="#CEDE6F"/>
</svg>
