<svg width="1384" height="1382" viewBox="0 0 1384 1382" fill="none" xmlns="http://www.w3.org/2000/svg">
<path d="M1383.87 690.912V1381.82H692.875H1.875V1377.4V690.912V0H692.875H1383.87V690.912Z" fill="#CEDE6F"/>
<path d="M173.689 554.387L0.773438 827.436H346.605L173.689 554.387Z" fill="#D7DEB2"/>
<path d="M519.415 554.387L346.609 827.436H692.331L519.415 554.387Z" fill="#D7DEB2"/>
<path d="M865.244 554.387L692.328 827.436H1038.16L865.244 554.387Z" fill="#D7DEB2"/>
<path d="M1210.96 554.387L1038.16 827.436H1383.88L1210.96 554.387Z" fill="#D7DEB2"/>
<path d="M173.689 273.048L0.773438 545.986H346.605L173.689 273.048Z" fill="#D7DEB2"/>
<path d="M519.415 273.048L346.609 545.986H692.331L519.415 273.048Z" fill="#D7DEB2"/>
<path d="M865.244 273.048L692.328 545.986H1038.16L865.244 273.048Z" fill="#D7DEB2"/>
<path d="M1210.96 273.048L1038.16 545.986H1383.88L1210.96 273.048Z" fill="#D7DEB2"/>
<path d="M173.689 1108.77L0.773438 1381.82H346.605L173.689 1108.77Z" fill="#D7DEB2"/>
<path d="M519.415 1108.77L346.609 1381.82H692.331L519.415 1108.77Z" fill="#D7DEB2"/>
<path d="M865.244 1108.77L692.328 1381.82H1038.16L865.244 1108.77Z" fill="#D7DEB2"/>
<path d="M1210.96 1108.77L1038.16 1381.82H1383.88L1210.96 1108.77Z" fill="#D7DEB2"/>
<path d="M173.689 827.436L0.773438 1100.37H346.605L173.689 827.436Z" fill="#D7DEB2"/>
<path d="M519.415 827.436L346.609 1100.37H692.331L519.415 827.436Z" fill="#D7DEB2"/>
<path d="M865.244 827.436L692.328 1100.37H1038.16L865.244 827.436Z" fill="#D7DEB2"/>
<path d="M1210.96 827.436L1038.16 1100.37H1383.88L1210.96 827.436Z" fill="#D7DEB2"/>
<path d="M172.916 0L0 273.048H345.832L172.916 0Z" fill="#D7DEB2"/>
<path d="M518.633 0L345.828 273.048H691.549L518.633 0Z" fill="#D7DEB2"/>
<path d="M864.471 0L691.555 273.048H1037.28L864.471 0Z" fill="#D7DEB2"/>
<path d="M1210.19 0L1037.27 273.048H1383.11L1210.19 0Z" fill="#D7DEB2"/>
</svg>
