<svg width="1360" height="2764" viewBox="0 0 1360 2764" fill="none" xmlns="http://www.w3.org/2000/svg">
<path d="M21.2959 2763.65L0 2763.54L3.47695 0L24.7727 0.110546L21.2959 2763.65Z" fill="#CADE59"/>
<path d="M154.827 2763.65L133.531 2763.54L136.899 0L158.304 0.110546L154.827 2763.65Z" fill="#CADE59"/>
<path d="M288.366 2763.65L267.07 2763.54L270.439 0L291.843 0.110546L288.366 2763.65Z" fill="#CADE59"/>
<path d="M421.897 2763.65L400.602 2763.54L403.97 0L425.374 0.110546L421.897 2763.65Z" fill="#CADE59"/>
<path d="M555.429 2763.65L534.133 2763.54L537.501 0L558.797 0.110546L555.429 2763.65Z" fill="#CADE59"/>
<path d="M688.96 2763.65L667.664 2763.54L671.032 0L692.328 0.110546L688.96 2763.65Z" fill="#CADE59"/>
<path d="M822.498 2763.65L801.094 2763.54L804.57 0L825.866 0.110546L822.498 2763.65Z" fill="#CADE59"/>
<path d="M956.029 2763.65L934.625 2763.54L938.102 0L959.398 0.110546L956.029 2763.65Z" fill="#CADE59"/>
<path d="M1089.56 2763.65L1068.16 2763.54L1071.63 0L1092.93 0.110546L1089.56 2763.65Z" fill="#CADE59"/>
<path d="M1223.1 2763.65L1201.7 2763.54L1205.17 0L1226.47 0.110546L1223.1 2763.65Z" fill="#CADE59"/>
<path d="M1356.63 2763.65L1335.23 2763.54L1338.7 0L1360 0.110546L1356.63 2763.65Z" fill="#CADE59"/>
</svg>
