<svg width="1409" height="2775" viewBox="0 0 1409 2775" fill="none" xmlns="http://www.w3.org/2000/svg">
<path d="M22.0632 2774.08L0 2773.97L3.60222 0L25.6652 0.110963L22.0632 2774.08Z" fill="#CADE59"/>
<path d="M160.407 2774.08L138.344 2773.97L141.833 0L164.009 0.110963L160.407 2774.08Z" fill="#CADE59"/>
<path d="M298.751 2774.08L276.688 2773.97L280.177 0L302.353 0.110963L298.751 2774.08Z" fill="#CADE59"/>
<path d="M437.094 2774.08L415.031 2773.97L418.521 0L440.696 0.110963L437.094 2774.08Z" fill="#CADE59"/>
<path d="M575.438 2774.08L553.375 2773.97L556.865 0L578.928 0.110963L575.438 2774.08Z" fill="#CADE59"/>
<path d="M713.782 2774.08L691.719 2773.97L695.208 0L717.271 0.110963L713.782 2774.08Z" fill="#CADE59"/>
<path d="M852.129 2774.08L829.953 2773.97L833.555 0L855.618 0.110963L852.129 2774.08Z" fill="#CADE59"/>
<path d="M990.473 2774.08L968.297 2773.97L971.899 0L993.962 0.110963L990.473 2774.08Z" fill="#CADE59"/>
<path d="M1128.82 2774.08L1106.64 2773.97L1110.24 0L1132.31 0.110963L1128.82 2774.08Z" fill="#CADE59"/>
<path d="M1267.16 2774.08L1244.98 2773.97L1248.59 0L1270.65 0.110963L1267.16 2774.08Z" fill="#CADE59"/>
<path d="M1405.5 2774.08L1383.33 2773.97L1386.93 0L1408.99 0.110963L1405.5 2774.08Z" fill="#CADE59"/>
</svg>
