<svg width="1374" height="1382" viewBox="0 0 1374 1382" fill="none" xmlns="http://www.w3.org/2000/svg">
<path d="M0.120512 690.912V1381.82H1374.01V0H0.120512V690.912Z" fill="#CEDE6F"/>
<path d="M1352.25 1381.82H1374.01C1374.01 619.831 757.737 0 0.120512 0V21.8881C745.647 21.8881 1352.25 631.991 1352.25 1381.82Z" fill="#DBDEC8"/>
<path d="M1224.75 1381.82H1246.52C1246.63 690.58 687.398 128.123 0.124833 128.123V150.011C675.418 150.121 1224.75 702.629 1224.75 1381.82Z" fill="#DBDEC8"/>
<path d="M1097.35 1381.82H1119.12C1119.23 761.219 617.154 256.245 0.113389 256.245V278.133C605.173 278.244 1097.35 773.268 1097.35 1381.82Z" fill="#DBDEC8"/>
<path d="M969.972 1381.82H991.734C991.734 831.858 546.925 384.479 0.117378 384.479V406.367C534.944 406.367 969.972 843.907 969.972 1381.82Z" fill="#DBDEC8"/>
<path d="M842.589 1381.82H864.352C864.352 902.496 476.695 512.601 0.121366 512.601V534.489C464.605 534.489 842.589 914.656 842.589 1381.82Z" fill="#DBDEC8"/>
<path d="M715.199 1381.82H736.961C736.961 973.135 406.459 640.724 0.117627 640.724V662.612C394.368 662.612 715.199 985.295 715.199 1381.82Z" fill="#DBDEC8"/>
<path d="M587.706 1381.82H609.469C609.469 1043.88 336.12 768.846 0.0122932 768.846V790.734C324.14 790.845 587.706 1055.93 587.706 1381.82Z" fill="#DBDEC8"/>
<path d="M460.308 1381.82H482.07C482.07 1114.52 265.875 896.969 0.000687967 896.969V918.857C253.895 918.967 460.308 1126.57 460.308 1381.82Z" fill="#DBDEC8"/>
<path d="M332.933 1381.82H354.695C354.695 1185.16 195.654 1025.2 0.122455 1025.2V1047.09C183.674 1047.09 332.933 1197.21 332.933 1381.82Z" fill="#DBDEC8"/>
<path d="M205.542 1381.82H227.305C227.305 1255.8 125.417 1153.32 0.118704 1153.32V1175.21C113.437 1175.21 205.542 1267.96 205.542 1381.82Z" fill="#DBDEC8"/>
<path d="M78.1516 1381.82H99.9141C99.9141 1326.44 55.1803 1281.45 0.114852 1281.45V1303.34C43.0901 1303.34 78.1516 1338.6 78.1516 1381.82Z" fill="#DBDEC8"/>
</svg>
