<svg width="1385" height="1382" viewBox="0 0 1385 1382" fill="none" xmlns="http://www.w3.org/2000/svg">
<path d="M0.117375 690.912V1381.82H1385.01V0H0.117375V690.912Z" fill="#CEDE6F"/>
<path d="M1363.07 1381.82H1385.01C1385.01 619.831 763.801 0 0.117375 0V21.8881C751.614 21.8881 1363.07 631.991 1363.07 1381.82Z" fill="#DBDEC8"/>
<path d="M1234.56 1381.82H1256.49C1256.6 690.58 692.897 128.123 0.119458 128.123V150.011C680.821 150.122 1234.56 702.63 1234.56 1381.82Z" fill="#DBDEC8"/>
<path d="M1106.15 1381.82H1128.09C1128.2 761.219 622.102 256.245 0.120498 256.245V278.133C610.026 278.244 1106.15 773.268 1106.15 1381.82Z" fill="#DBDEC8"/>
<path d="M977.743 1381.82H999.68C999.68 831.858 551.308 384.479 0.121152 384.479V406.367C539.231 406.367 977.743 843.907 977.743 1381.82Z" fill="#DBDEC8"/>
<path d="M849.329 1381.82H871.266C871.266 902.497 480.505 512.602 0.114165 512.602V534.49C468.318 534.49 849.329 914.657 849.329 1381.82Z" fill="#DBDEC8"/>
<path d="M720.931 1381.82H742.867C742.867 973.135 409.718 640.724 0.122738 640.724V662.612C397.531 662.612 720.931 985.295 720.931 1381.82Z" fill="#DBDEC8"/>
<path d="M592.407 1381.82H614.344C614.344 1043.88 338.806 768.847 0.00635426 768.847V790.735C326.73 790.845 592.407 1055.93 592.407 1381.82Z" fill="#DBDEC8"/>
<path d="M463.993 1381.82H485.93C485.93 1114.52 268.003 896.969 -0.000675841 896.969V918.857C255.927 918.967 463.993 1126.57 463.993 1381.82Z" fill="#DBDEC8"/>
<path d="M335.595 1381.82H357.531C357.531 1185.16 197.216 1025.2 0.118733 1025.2V1047.09C185.14 1047.09 335.595 1197.21 335.595 1381.82Z" fill="#DBDEC8"/>
<path d="M207.188 1381.82H229.125C229.125 1255.8 126.422 1153.33 0.119557 1153.33V1175.21C114.345 1175.21 207.188 1267.96 207.188 1381.82Z" fill="#DBDEC8"/>
<path d="M78.7742 1381.82H100.711C100.711 1326.44 55.6189 1281.45 0.112476 1281.45V1303.34C43.4318 1303.34 78.7742 1338.6 78.7742 1381.82Z" fill="#DBDEC8"/>
</svg>
