<svg width="1380" height="1378" viewBox="0 0 1380 1378" fill="none" xmlns="http://www.w3.org/2000/svg">
<path d="M1380 688.974V1377.95H690.937H1.875V1373.54V688.974V0H690.937H1380V688.974Z" fill="#CEDE6F"/>
<path d="M173.204 552.832L0.773438 825.115H345.635L173.204 552.832Z" fill="#D7DEB2"/>
<path d="M517.953 552.832L345.633 825.115H690.384L517.953 552.832Z" fill="#D7DEB2"/>
<path d="M862.822 552.832L690.391 825.115H1035.25L862.822 552.832Z" fill="#D7DEB2"/>
<path d="M1207.57 552.832L1035.25 825.115H1380L1207.57 552.832Z" fill="#D7DEB2"/>
<path d="M173.204 272.283L0.773438 544.455H345.635L173.204 272.283Z" fill="#D7DEB2"/>
<path d="M517.953 272.283L345.633 544.455H690.384L517.953 272.283Z" fill="#D7DEB2"/>
<path d="M862.822 272.282L690.391 544.455H1035.25L862.822 272.282Z" fill="#D7DEB2"/>
<path d="M1207.57 272.283L1035.25 544.455H1380L1207.57 272.283Z" fill="#D7DEB2"/>
<path d="M173.196 1105.66L0.765625 1377.95H345.627L173.196 1105.66Z" fill="#D7DEB2"/>
<path d="M517.946 1105.66L345.625 1377.95H690.376L517.946 1105.66Z" fill="#D7DEB2"/>
<path d="M862.806 1105.66L690.375 1377.95H1035.24L862.806 1105.66Z" fill="#D7DEB2"/>
<path d="M1207.56 1105.66L1035.23 1377.95H1379.99L1207.56 1105.66Z" fill="#D7DEB2"/>
<path d="M173.196 825.115L0.765625 1097.29H345.627L173.196 825.115Z" fill="#D7DEB2"/>
<path d="M517.946 825.115L345.625 1097.29H690.376L517.946 825.115Z" fill="#D7DEB2"/>
<path d="M862.806 825.115L690.375 1097.29H1035.24L862.806 825.115Z" fill="#D7DEB2"/>
<path d="M1207.56 825.115L1035.23 1097.29H1379.99L1207.56 825.115Z" fill="#D7DEB2"/>
<path d="M172.431 0L0 272.283H344.862L172.431 0Z" fill="#D7DEB2"/>
<path d="M517.18 0L344.859 272.283H689.611L517.18 0Z" fill="#D7DEB2"/>
<path d="M862.04 0L689.609 272.283H1034.36L862.04 0Z" fill="#D7DEB2"/>
<path d="M1206.79 0L1034.36 272.283H1379.22L1206.79 0Z" fill="#D7DEB2"/>
</svg>
