<svg width="1239" height="1239" viewBox="0 0 1239 1239" fill="none" xmlns="http://www.w3.org/2000/svg">
<path d="M619.074 0.5C960.703 0.500231 1237.65 277.44 1237.65 619.062C1237.65 960.684 960.703 1237.62 619.074 1237.62C277.445 1237.62 0.5 960.684 0.5 619.062C0.500198 277.439 277.446 0.5 619.074 0.5Z" fill="#BDDE00" stroke="#DBDEC8"/>
<path d="M619.077 1079.08C873.145 1079.08 1079.11 873.126 1079.11 619.063C1079.11 365 873.145 159.041 619.077 159.041C365.009 159.041 159.047 365 159.047 619.063C159.047 873.126 365.009 1079.08 619.077 1079.08Z" fill="#BDDE00" stroke="#DBDEC8" stroke-width="2.233" stroke-miterlimit="10"/>
<path d="M902.584 663.487C927.182 507.015 820.275 360.229 663.799 335.631C507.324 311.034 360.536 417.939 335.937 574.411C311.339 730.883 418.246 877.669 574.721 902.267C731.197 926.864 877.986 819.959 902.584 663.487Z" fill="#BDDE00" stroke="#DBDEC8" stroke-width="2.233" stroke-miterlimit="10"/>
<path d="M715.649 715.747C769.024 662.374 769.024 575.838 715.649 522.464C662.274 469.09 575.737 469.09 522.362 522.464C468.987 575.838 468.987 662.373 522.362 715.747C575.737 769.121 662.274 769.121 715.649 715.747Z" fill="#BDDE00" stroke="#DBDEC8" stroke-width="2.233" stroke-miterlimit="10"/>
</svg>
