<svg width="696" height="1377" viewBox="0 0 696 1377" fill="none" xmlns="http://www.w3.org/2000/svg">
<path d="M0 743.58V721.879C18.5851 721.879 33.7203 706.897 33.7203 688.5C33.7203 670.103 18.5851 655.232 0 655.232V633.53C30.7155 633.53 55.6441 658.206 55.6441 688.5C55.6441 718.904 30.7155 743.58 0 743.58Z" fill="#CEDE6F"/>
<path d="M0 870.264V848.563C89.2531 848.563 161.702 776.849 161.702 688.5C161.702 600.262 89.2531 528.548 0 528.548V506.846C101.272 506.846 183.625 588.365 183.625 688.5C183.625 788.746 101.272 870.264 0 870.264Z" fill="#CEDE6F"/>
<path d="M0 996.948V975.246C159.81 975.246 289.683 846.69 289.683 688.5C289.683 530.42 159.81 401.864 0 401.864V380.162C171.829 380.162 311.607 518.523 311.607 688.5C311.607 858.587 171.829 996.948 0 996.948Z" fill="#CEDE6F"/>
<path d="M695.551 688.5C695.551 1068.22 383.61 1377 0 1377V1355.41C371.48 1355.41 673.738 1056.21 673.738 688.5C673.738 320.896 371.48 21.7015 0 21.7015V0C383.61 0 695.551 308.889 695.551 688.5Z" fill="#CEDE6F"/>
<path d="M0 1123.63V1101.93C230.367 1101.93 417.665 916.531 417.665 688.5C417.665 460.579 230.367 275.18 0 275.18V253.478C242.386 253.478 439.588 448.572 439.588 688.5C439.588 928.429 242.386 1123.63 0 1123.63Z" fill="#CEDE6F"/>
<path d="M0 1250.32V1228.72C300.923 1228.72 545.646 986.372 545.646 688.5C545.646 390.737 300.923 148.385 0 148.385V126.794C313.054 126.794 567.57 378.73 567.57 688.5C567.57 998.38 313.054 1250.32 0 1250.32Z" fill="#CEDE6F"/>
</svg>
