<svg width="1159" height="1159" viewBox="0 0 1159 1159" fill="none" xmlns="http://www.w3.org/2000/svg">
<path d="M579.07 0C579.07 0 579.07 1134.14 579.07 1158.01" stroke="#CADE59" stroke-width="3.5328" stroke-miterlimit="10"/>
<path d="M1158.03 578.952C1158.03 578.952 23.8726 578.952 0 578.952" stroke="#CADE59" stroke-width="3.5328" stroke-miterlimit="10"/>
<path d="M988.45 169.578C988.45 169.578 186.461 971.552 169.578 988.435" stroke="#CADE59" stroke-width="3.5328" stroke-miterlimit="10"/>
<path d="M988.45 988.327C988.45 988.327 186.461 186.353 169.578 169.471" stroke="#CADE59" stroke-width="3.5328" stroke-miterlimit="10"/>
<path d="M1120.08 372.706C1120.08 372.706 60.328 776.596 37.9609 785.091" stroke="#CADE59" stroke-width="3.5328" stroke-miterlimit="10"/>
<path d="M785.323 1119.95C785.323 1119.95 381.425 60.2182 372.93 37.8516" stroke="#CADE59" stroke-width="3.5328" stroke-miterlimit="10"/>
<path d="M1107.5 815.738C1107.5 815.738 72.4797 351.952 50.7578 342.274" stroke="#CADE59" stroke-width="3.5328" stroke-miterlimit="10"/>
<path d="M342.281 1107.36C342.281 1107.36 806.076 72.3689 815.754 50.6475" stroke="#CADE59" stroke-width="3.5328" stroke-miterlimit="10"/>
</svg>
