<svg width="1384" height="2764" viewBox="0 0 1384 2764" fill="none" xmlns="http://www.w3.org/2000/svg">
<path d="M21.6698 2763.65L0 2763.54L3.538 0L25.2077 0.110546L21.6698 2763.65Z" fill="#CADE59"/>
<path d="M157.545 2763.65L135.875 2763.54L139.302 0L161.083 0.110546L157.545 2763.65Z" fill="#CADE59"/>
<path d="M293.428 2763.65L271.758 2763.54L275.185 0L296.965 0.110546L293.428 2763.65Z" fill="#CADE59"/>
<path d="M429.302 2763.65L407.633 2763.54L411.06 0L432.84 0.110546L429.302 2763.65Z" fill="#CADE59"/>
<path d="M565.185 2763.65L543.516 2763.54L546.943 0L568.613 0.110546L565.185 2763.65Z" fill="#CADE59"/>
<path d="M701.06 2763.65L679.391 2763.54L682.818 0L704.488 0.110546L701.06 2763.65Z" fill="#CADE59"/>
<path d="M836.937 2763.65L815.156 2763.54L818.694 0L840.364 0.110546L836.937 2763.65Z" fill="#CADE59"/>
<path d="M972.812 2763.65L951.031 2763.54L954.569 0L976.239 0.110546L972.812 2763.65Z" fill="#CADE59"/>
<path d="M1108.69 2763.65L1086.91 2763.54L1090.45 0L1112.12 0.110546L1108.69 2763.65Z" fill="#CADE59"/>
<path d="M1244.58 2763.65L1222.8 2763.54L1226.33 0L1248 0.110546L1244.58 2763.65Z" fill="#CADE59"/>
<path d="M1380.45 2763.65L1358.67 2763.54L1362.21 0L1383.88 0.110546L1380.45 2763.65Z" fill="#CADE59"/>
</svg>
