<svg width="200" height="200" viewBox="0 0 200 200" fill="none" xmlns="http://www.w3.org/2000/svg">
<path d="M122.667 171.515C124.532 170.923 126.364 170.26 128.163 169.532C128.163 169.532 155.609 142.956 168.655 130.229C170.012 127.152 171.173 123.967 172.108 120.688C128.224 165.67 149.351 144.295 122.662 171.515H122.667Z" fill="#2C303C"/>
<path d="M174.8 105.532C174.983 102.986 175.025 100.895 174.988 98.7202C140.002 133.851 131.969 143.487 100.517 174.995C101.56 174.991 102.598 174.963 103.627 174.911C141.797 137.074 142.943 137.252 174.8 105.528V105.532Z" fill="#2C303C"/>
<path d="M173.973 87.5863C173.653 85.6601 173.259 83.7622 172.794 81.8877C141.914 112.983 148.74 106.04 138.043 117.127C134.158 125.743 127.435 132.799 119.064 137.112C109.038 147.607 107.573 149.021 83.4629 173.173C84.285 173.356 85.1119 173.53 85.9434 173.685C133.5 126.217 121.605 139.587 173.973 87.5863Z" fill="#2C303C"/>
<path d="M141.651 94.2102C141.548 94.3136 141.449 94.4123 141.351 94.5156C141.585 96.3102 141.708 98.1424 141.708 99.9981C141.708 100.285 141.703 100.571 141.698 100.862C144.348 98.2458 167.151 75.7146 169.966 72.9335C169.289 71.1859 168.551 69.4758 167.753 67.7939C164.582 71.0073 144.456 91.3727 141.656 94.2102H141.651Z" fill="#CAF200"/>
<path d="M99.0458 141.702C98.0828 141.678 97.1338 141.626 96.1895 141.537L69.3457 168.47C69.9987 168.766 70.6611 169.048 71.3235 169.321C82.2086 158.435 90.4017 150.313 99.0412 141.697L99.0458 141.702Z" fill="#2C303C"/>
<path d="M136.619 80.0181C137.507 81.6388 138.287 83.3301 138.954 85.073C141.256 82.7898 161.462 62.772 163.759 60.4935C162.763 58.8916 161.711 57.3319 160.602 55.8145C160.452 55.9648 160.301 56.1198 160.146 56.2748C157.581 58.8634 139.264 77.3497 136.619 80.0181Z" fill="#2C303C"/>
<path d="M83.4204 138.281C82.7908 138.009 82.1707 137.722 81.56 137.417C81.1888 137.793 60.8047 158.29 57.3799 161.715C57.8685 162.053 58.3617 162.386 58.8597 162.715C67.2877 154.287 74.9641 146.667 83.4204 138.281Z" fill="#2C303C"/>
<path d="M128.055 69.1372C129.54 70.4855 130.926 71.9419 132.204 73.4922C146.556 59.1823 144.371 61.3575 155.613 50.0731C155.674 50.0121 155.736 49.951 155.797 49.8899C154.458 48.4007 153.062 46.9678 151.611 45.5913C151.531 45.6712 151.451 45.751 151.366 45.8356C140.059 57.1059 142.055 55.0999 128.051 69.1419L128.055 69.1372Z" fill="#CAF200"/>
<path d="M71.7933 130.726C71.4175 130.384 71.051 130.031 70.6846 129.669C70.304 130.041 63.1773 137.167 47.1387 153.206C47.5004 153.568 47.8669 153.925 48.238 154.282C49.5534 152.966 71.4785 131.041 71.7886 130.722L71.7933 130.726Z" fill="#2C303C"/>
<path d="M116.249 61.5782C118.405 62.4896 120.472 63.5842 122.427 64.8291C133.406 53.7562 138.935 48.2032 145.414 41.6826C145.681 41.4148 145.94 41.1564 146.189 40.9027C144.479 39.5638 142.708 38.3001 140.885 37.1162C140.88 37.1209 140.871 37.1303 140.866 37.135C128.031 49.8945 131.367 46.5825 116.254 61.5735L116.249 61.5782Z" fill="#2C303C"/>
<path d="M63.3319 119.898C63.1722 119.602 63.0125 119.302 62.8575 119.001L38.5928 143.073C38.8324 143.416 39.0814 143.759 39.3256 144.097C39.5417 143.881 63.3272 119.898 63.3272 119.898H63.3319Z" fill="#2C303C"/>
<path d="M100.258 58.2944C103.387 58.3132 106.431 58.6749 109.358 59.3467C109.625 59.0742 134.825 33.6116 134.858 33.5787C132.734 32.4606 130.55 31.4412 128.309 30.5298C123.301 35.4861 102.922 55.6542 100.258 58.2944Z" fill="#CAF200"/>
<path d="M58.6057 105.152C58.5963 105.086 58.5916 105.025 58.5822 104.959C49.9287 113.373 31.79 131.234 31.79 131.234C31.9216 131.516 32.0531 131.803 32.1847 132.085C36.1403 128.03 47.7535 116.309 58.601 105.152H58.6057Z" fill="#2C303C"/>
<path d="M88.5554 51.0739C60.4385 78.8855 56.5439 81.4082 40.8623 97.4375L47.3125 103.888C52.1608 99.1475 56.652 94.5295 59.0385 92.0866C62.1438 75.9164 74.5839 63.063 90.5379 59.3657C97.6787 52.1497 102.405 47.4001 121.586 28.1575C118.956 27.3683 116.268 26.7153 113.525 26.2173C94.4278 45.2438 95.156 44.5156 88.5507 51.0692L88.5554 51.0739Z" fill="#2C303C"/>
<path d="M42.2574 102.521L42.2338 102.498C41.8627 102.887 27.3556 117.099 27.0361 117.418C27.0737 117.583 27.116 117.747 27.1536 117.911C27.3086 117.756 42.0741 102.7 42.2574 102.526V102.521Z" fill="#2C303C"/>
<path d="M105.74 25.2167C102.188 24.9489 98.8906 24.9396 95.5974 25.1322C44.409 76.0715 49.3888 69.8233 25.2228 94.1584C25.0489 96.404 24.9879 98.3866 25.002 100.477L28.4173 103.892C57.7416 74.789 46.2694 84.9787 105.74 25.2214V25.2167Z" fill="#CAF200"/>
<path d="M85.7744 26.3538C80.5597 27.3545 75.5377 28.8907 70.7693 30.9108C32.1948 68.9544 49.2952 51.901 31.5888 69.2175C29.0284 74.8973 27.1586 80.9575 26.0781 87.2856C59.5977 53.0755 39.4859 73.1543 85.7744 26.3491V26.3538Z" fill="#2C303C"/>
</svg>
