<svg width="200" height="200" viewBox="0 0 200 200" fill="none" xmlns="http://www.w3.org/2000/svg">
<path d="M96.9461 173.963C107 163.769 149.431 120.729 172.898 97.0996L175 99.2025C151.864 122.186 108.703 164.732 98.1371 175.154L96.9414 173.958L96.9461 173.963Z" fill="#525663"/>
<path d="M93.1121 169.798C93.4424 169.463 158.521 103.459 168.719 93.2515L170.794 95.3266C161.257 104.855 94.4892 170.696 94.2473 170.934L93.1074 169.794L93.1121 169.798Z" fill="#525663"/>
<path d="M88.9531 165.965C89.1811 165.733 155.642 98.3138 164.546 89.4043L166.584 91.4421C158.019 99.998 90.8141 166.258 90.0232 167.035L88.9531 165.965Z" fill="#525663"/>
<path d="M85.1094 161.796C130.615 115.653 114.271 132.211 160.693 85.2261L162.703 87.236C116.002 133.384 132.048 117.542 86.1329 162.82L85.1094 161.796Z" fill="#525663"/>
<path d="M80.9551 157.967C81.2156 157.707 148.83 89.0875 156.846 81.062L158.809 83.0253C150.812 91.0136 82.3182 158.507 81.9042 158.916L80.9551 157.967Z" fill="#525663"/>
<path d="M77.1172 153.804C122.465 107.781 106.39 124.074 152.678 77.21L154.604 79.1361C107.884 125.279 123.893 109.484 78.0105 154.697L77.1172 153.804Z" fill="#525663"/>
<path d="M72.957 149.97C119.458 102.766 103.151 119.305 148.825 73.041L150.714 74.9299C104.547 120.51 120.901 104.38 73.7852 150.798L72.9617 149.974L72.957 149.97Z" fill="#525663"/>
<path d="M68.7988 146.127C69.0221 145.899 139.339 74.53 144.667 69.1982L146.495 71.0266C141.34 76.1769 69.8224 146.638 69.5665 146.894L68.7988 146.127Z" fill="#525663"/>
<path d="M64.9551 141.968C66.6207 140.279 135.449 70.4313 140.497 65.3555L142.279 67.1374C137.687 71.7015 67.8722 140.502 65.6669 142.679L64.9551 141.968Z" fill="#525663"/>
<path d="M61.1211 137.808C61.4607 137.459 128.326 69.5614 136.654 61.187L138.389 62.9224C130.461 70.8036 62.0144 138.213 61.7678 138.455L61.1211 137.808Z" fill="#525663"/>
<path d="M56.9668 133.975C57.5018 133.435 126.172 63.7039 132.811 57.0229L134.5 58.7117C128.084 65.0903 58.0601 134.049 57.5484 134.556L56.9715 133.979L56.9668 133.975Z" fill="#525663"/>
<path d="M53.1328 129.82C65.0199 117.691 124.59 57.2834 128.642 53.1753L130.285 54.8176C125.46 59.5724 65.7828 118.421 53.6399 130.327L53.1375 129.825L53.1328 129.82Z" fill="#525663"/>
<path d="M48.9727 125.982L124.799 49.0117L126.385 50.5982L49.4146 126.429L48.9727 125.982Z" fill="#525663"/>
<path d="M44.8145 122.148C45.7031 121.245 114.173 51.6819 120.64 45.1777L122.166 46.7038C116.188 52.645 45.624 122.106 45.196 122.53L44.8145 122.148Z" fill="#525663"/>
<path d="M40.9863 117.993C41.2283 117.747 111.643 46.1733 116.803 41.0137L118.273 42.4838C113.179 47.5736 41.5213 118.072 41.2934 118.3L40.991 117.998L40.9863 117.993Z" fill="#525663"/>
<path d="M37.1426 113.829C37.1426 113.829 63.0847 87.4638 112.633 37.166L114.057 38.5896C63.7407 88.1523 37.3938 114.08 37.3938 114.08L37.1472 113.834L37.1426 113.829Z" fill="#525663"/>
<path d="M32.9968 110.005C32.9968 110.005 102.877 38.9571 108.795 33.002L110.158 34.3652C104.184 40.3017 33.155 110.163 33.155 110.163L32.9922 110L32.9968 110.005Z" fill="#525663"/>
<path d="M29.1543 105.846C75.1997 59.0424 59.3349 75.1585 104.636 29.1689L105.934 30.467C60.149 75.568 75.8046 60.1544 29.2567 105.949L29.1543 105.846Z" fill="#525663"/>
<path d="M25 102.017C25 102.017 35.9519 90.837 100.793 25L102.045 26.2515C36.1845 91.1161 25.0279 102.045 25.0279 102.045L25 102.017Z" fill="#525663"/>
<path d="M103.491 65.7973C85.4019 84.4072 85.8113 84.0072 66.8851 103.343L64.8008 101.258C84.1457 82.323 83.9875 82.4997 102.346 64.6528L103.495 65.802L103.491 65.7973Z" fill="#525663"/>
<path d="M107.622 69.6076C107.399 69.8356 72.2263 106.036 70.7189 107.497L68.709 105.487C70.1699 103.98 106.366 68.8073 106.599 68.584L107.622 69.6076Z" fill="#525663"/>
<path d="M111.429 73.7344C111.205 73.9623 76.1163 110.112 74.8695 111.317L72.9434 109.391C72.9434 109.391 73.0876 109.242 73.3574 108.972C88.9432 93.7679 99.3368 83.6907 110.526 72.8271L111.429 73.7297V73.7344Z" fill="#525663"/>
<path d="M115.55 77.5403C115.327 77.7683 84.3739 109.693 78.6932 115.472L76.8555 113.634C82.3733 108.205 114.554 76.996 114.787 76.7773L115.555 77.545L115.55 77.5403Z" fill="#525663"/>
<path d="M119.356 81.6672C119.128 81.8998 87.9189 114.109 82.8291 119.282L81.0938 117.547C81.0938 117.547 81.238 117.403 81.5125 117.133C100.053 99.0953 102.421 96.8063 118.709 81.0205L119.356 81.6672Z" fill="#525663"/>
<path d="M123.474 85.4589C119.817 89.26 87.0262 123.046 86.654 123.428L85.0117 121.785C85.5886 121.218 119.803 88.0178 122.98 84.9658L123.474 85.4589Z" fill="#525663"/>
<path d="M127.279 89.5902C127.279 89.5902 94.3721 123.576 90.7804 127.238L89.2637 125.721C92.9903 122.06 126.911 89.2227 126.911 89.2227L127.279 89.5902Z" fill="#525663"/>
<path d="M131.402 93.3867C131.402 93.3867 97.6159 128.294 94.5965 131.369L93.1914 129.964C96.6528 126.568 131.174 93.1587 131.174 93.1587L131.402 93.3867Z" fill="#525663"/>
<path d="M135.203 97.5086C134.975 97.7365 99.2116 134.728 98.402 135.505L97.1133 134.216C97.8902 133.407 134.882 97.6435 135.11 97.4155L135.203 97.5086Z" fill="#525663"/>
</svg>
