<svg width="200" height="200" viewBox="0 0 200 200" fill="none" xmlns="http://www.w3.org/2000/svg">
<path d="M82.395 150.615C67.3856 148.432 55.8178 135.506 55.8178 119.901L55.8178 79.8555C55.8178 63.5457 43.4823 50.0927 27.6582 48.2544C26.1385 48.0768 25 46.7712 25 45.241V45.1314C25 43.3087 26.5876 41.8725 28.3998 42.0866C47.3052 44.2905 62.0273 60.3704 62.0273 79.8555L62.0273 119.901C62.0273 132.362 71.2502 142.682 83.2201 144.458C84.7242 144.682 85.8523 145.946 85.8523 147.466V147.57C85.8523 149.414 84.2176 150.876 82.395 150.61V150.615Z" fill="#8AC926"/>
<path d="M82.3111 143.518C71.2186 141.376 62.8104 131.616 62.8104 119.907L62.8104 79.8611C62.8104 59.7128 47.378 43.1366 27.7206 41.2408C26.1747 41.0894 25.0049 39.7733 25.0049 38.217V38.0864C25.0049 36.269 26.5821 34.859 28.389 35.0366C51.1643 37.2666 69.0199 56.5114 69.0199 79.8611L69.0199 119.907C69.0199 128.55 75.1981 135.762 83.3608 137.402C84.797 137.689 85.8519 138.922 85.8519 140.384V140.499C85.8519 142.379 84.1546 143.873 82.3111 143.518Z" fill="#8AC926"/>
<path d="M81.9723 136.248C74.9428 134.133 69.8039 127.615 69.8039 119.902L69.8039 79.8557C69.8039 55.848 51.2485 36.1123 27.7317 34.1904C26.1806 34.0651 25.0107 32.7178 25.0107 31.1615V31.062C25.0107 29.2603 26.5618 27.8608 28.3531 28.0122C55.0086 30.2422 76.0186 52.6363 76.0186 79.8611L76.0186 119.907C76.0186 124.743 79.2044 128.811 83.5808 130.211C84.9021 130.634 85.8578 131.777 85.8578 133.161V133.302C85.8578 135.324 83.9098 136.833 81.9723 136.253V136.248Z" fill="#8AC926"/>
<path d="M81.1413 128.158C78.5144 126.346 76.7909 123.333 76.7909 119.907L76.7909 79.8609C76.7909 52.0146 55.1229 29.1453 27.7676 27.1921C26.1956 27.0825 25.0049 25.7298 25.0049 24.1579V24.0533C25.0049 22.2568 26.5507 20.878 28.342 21.0086C58.857 23.2542 83.0057 48.787 83.0057 79.866L83.0057 119.912C83.0057 121.238 83.6794 122.403 84.703 123.103C85.4707 123.625 85.8572 124.56 85.8572 125.489V125.599C85.8572 128.017 83.1362 129.542 81.1413 128.169V128.158Z" fill="#8AC926"/>
<path d="M82.52 178.764C52.0051 176.518 27.8564 150.986 27.8564 119.907L27.8564 79.861C27.8564 78.5345 27.1827 77.3697 26.159 76.6699C25.3913 76.1476 25.0049 75.2129 25.0049 74.2833V74.1736C25.0049 71.7556 27.731 70.2307 29.7208 71.6042C32.3477 73.4164 34.0711 76.4297 34.0711 79.8556L34.0711 119.902C34.0711 147.748 55.7391 170.617 83.0945 172.57C84.6664 172.68 85.8572 174.032 85.8572 175.604V175.709C85.8572 177.505 84.3113 178.884 82.52 178.754V178.764Z" fill="#8AC926"/>
<path d="M82.5095 171.75C55.854 169.52 34.844 147.127 34.844 119.902L34.844 79.8558C34.844 75.0197 31.6583 70.9514 27.2819 69.5518C25.9606 69.1288 25.0049 67.9851 25.0049 66.6012V66.4602C25.0049 64.4391 26.9529 62.9298 28.8904 63.5095C35.9199 65.6246 41.0588 72.1422 41.0588 79.8558L41.0588 119.902C41.0588 143.909 59.6142 163.645 83.131 165.567C84.6821 165.692 85.8519 167.04 85.8519 168.596V168.695C85.8519 170.497 84.3008 171.897 82.5095 171.745V171.75Z" fill="#8AC926"/>
<path d="M82.4678 164.726C59.6925 162.496 41.8369 143.251 41.8369 119.901L41.8369 79.8552C41.8369 71.212 35.6587 63.9998 27.496 62.3599C26.0598 62.0727 25.0049 60.8402 25.0049 59.3779V59.2629C25.0049 57.3828 26.7022 55.8893 28.5457 56.2444C39.6383 58.3857 48.0464 68.1464 48.0464 79.8552L48.0464 119.901C48.0464 140.05 63.4788 156.626 83.1362 158.521C84.6821 158.673 85.8519 159.989 85.8519 161.545V161.676C85.8519 163.493 84.2747 164.903 82.4678 164.726Z" fill="#8AC926"/>
<path d="M82.4573 157.671C63.552 155.467 48.8298 139.387 48.8298 119.902L48.8298 79.8557C48.8298 67.3949 39.6069 57.0752 27.637 55.2996C26.1329 55.075 25.0049 53.8113 25.0049 52.2916V52.187C25.0049 50.3435 26.6395 48.8813 28.4622 49.1476C43.4715 51.3306 55.0393 64.2563 55.0393 79.861L55.0393 119.907C55.0393 136.217 67.3748 149.67 83.1989 151.508C84.7186 151.686 85.8519 152.991 85.8519 154.522V154.631C85.8519 156.454 84.2643 157.89 82.4521 157.676L82.4573 157.671Z" fill="#8AC926"/>
<path d="M117.605 150.615C132.614 148.432 144.182 135.506 144.182 119.901V79.8555C144.182 63.5457 156.517 50.0927 172.341 48.2544C173.861 48.0768 175 46.7712 175 45.241V45.1314C175 43.3087 173.412 41.8725 171.6 42.0866C152.695 44.2905 137.972 60.3704 137.972 79.8555V119.901C137.972 132.362 128.75 142.682 116.78 144.458C115.276 144.682 114.147 145.946 114.147 147.466V147.57C114.147 149.414 115.782 150.876 117.605 150.61V150.615Z" fill="#8AC926"/>
<path d="M117.688 143.518C128.781 141.376 137.189 131.616 137.189 119.907V79.8611C137.189 59.7128 152.621 43.1366 172.279 41.2408C173.825 41.0894 174.995 39.7733 174.995 38.217V38.0864C174.995 36.269 173.417 34.859 171.61 35.0366C148.835 37.2666 130.98 56.5114 130.98 79.8611V119.907C130.98 128.55 124.801 135.762 116.639 137.402C115.202 137.689 114.147 138.922 114.147 140.384V140.499C114.147 142.379 115.845 143.873 117.688 143.518Z" fill="#8AC926"/>
<path d="M118.028 136.248C125.058 134.133 130.196 127.615 130.196 119.902V79.8557C130.196 55.848 148.752 36.1123 172.269 34.1904C173.82 34.0651 174.99 32.7178 174.99 31.1615V31.062C174.99 29.2603 173.439 27.8608 171.647 28.0122C144.992 30.2422 123.982 52.6363 123.982 79.8611V119.907C123.982 124.743 120.796 128.811 116.42 130.211C115.098 130.634 114.143 131.777 114.143 133.161V133.302C114.143 135.324 116.091 136.833 118.028 136.253V136.248Z" fill="#8AC926"/>
<path d="M118.858 128.158C121.485 126.346 123.209 123.333 123.209 119.907V79.8609C123.209 52.0146 144.877 29.1453 172.232 27.1921C173.804 27.0825 174.995 25.7298 174.995 24.1579V24.0533C174.995 22.2568 173.449 20.878 171.658 21.0086C141.143 23.2542 116.994 48.787 116.994 79.866V119.912C116.994 121.238 116.32 122.403 115.297 123.103C114.529 123.625 114.143 124.56 114.143 125.489V125.599C114.143 128.017 116.863 129.542 118.858 128.169V128.158Z" fill="#8AC926"/>
<path d="M117.48 178.764C147.995 176.518 172.143 150.986 172.143 119.907V79.861C172.143 78.5345 172.817 77.3697 173.841 76.6699C174.608 76.1476 174.995 75.2129 174.995 74.2833V74.1736C174.995 71.7556 172.269 70.2307 170.279 71.6042C167.652 73.4164 165.929 76.4297 165.929 79.8556V119.902C165.929 147.748 144.261 170.617 116.905 172.57C115.333 172.68 114.143 174.032 114.143 175.604V175.709C114.143 177.505 115.688 178.884 117.48 178.754V178.764Z" fill="#8AC926"/>
<path d="M117.49 171.75C144.145 169.52 165.155 147.127 165.155 119.902V79.8558C165.155 75.0197 168.341 70.9514 172.718 69.5518C174.039 69.1288 174.995 67.9851 174.995 66.6012V66.4602C174.995 64.4391 173.047 62.9298 171.109 63.5095C164.08 65.6246 158.941 72.1422 158.941 79.8558V119.902C158.941 143.909 140.385 163.645 116.868 165.567C115.317 165.692 114.147 167.04 114.147 168.596V168.695C114.147 170.497 115.699 171.897 117.49 171.745V171.75Z" fill="#8AC926"/>
<path d="M117.533 164.726C140.308 162.496 158.163 143.251 158.163 119.901V79.8552C158.163 71.212 164.342 63.9998 172.504 62.3599C173.941 62.0727 174.995 60.8402 174.995 59.3779V59.2629C174.995 57.3828 173.298 55.8893 171.455 56.2444C160.362 58.3857 151.954 68.1464 151.954 79.8552V119.901C151.954 140.05 136.522 156.626 116.864 158.521C115.318 158.673 114.148 159.989 114.148 161.545V161.676C114.148 163.493 115.726 164.903 117.533 164.726Z" fill="#8AC926"/>
<path d="M117.542 157.671C136.447 155.467 151.17 139.387 151.17 119.902V79.8557C151.17 67.3949 160.392 57.0752 172.362 55.2996C173.866 55.075 174.995 53.8113 174.995 52.2916V52.187C174.995 50.3435 173.36 48.8813 171.537 49.1476C156.528 51.3306 144.96 64.2563 144.96 79.861V119.907C144.96 136.217 132.625 149.67 116.8 151.508C115.281 151.686 114.147 152.991 114.147 154.522V154.631C114.147 156.454 115.735 157.89 117.547 157.676L117.542 157.671Z" fill="#8AC926"/>
</svg>
