<svg width="200" height="200" viewBox="0 0 200 200" fill="none" xmlns="http://www.w3.org/2000/svg">
<path d="M108.834 163.09L92.2234 163.075L26.8789 50.5659L139.605 50.678L131.632 65.204L52.1351 65.1293L108.834 163.09Z" fill="#CAF200"/>
<path d="M108.833 164.958L92.2226 164.943C91.5575 164.943 90.9449 164.592 90.6086 164.017L25.2639 51.5076C24.9277 50.9323 24.9277 50.215 25.2639 49.6396C25.6002 49.0642 26.213 48.7056 26.8855 48.7056L139.611 48.8176C140.269 48.8176 140.882 49.1688 141.218 49.7367C141.554 50.3046 141.562 51.007 141.248 51.5898L133.275 66.1158C132.946 66.7136 132.319 67.0872 131.639 67.0872L55.3845 67.0125L110.358 161.984C110.589 162.298 110.731 162.687 110.731 163.105C110.731 164.136 109.894 164.973 108.863 164.973C108.863 164.973 108.856 164.973 108.848 164.973L108.833 164.958ZM93.2985 161.207L105.598 161.222L50.5201 66.071C50.1838 65.4956 50.1838 64.7783 50.5201 64.2029C50.8563 63.6276 51.4691 63.2689 52.1342 63.2689L130.525 63.3436L136.451 52.5463L30.1209 52.4417L93.291 161.207H93.2985Z" fill="#2C303C"/>
<path d="M108.737 135.241C108.086 135.241 107.474 134.897 107.137 134.337L98.5593 120.155C98.2081 119.572 98.2006 118.84 98.5443 118.249L136.817 52.292L26.8708 52.2696C26.2058 52.2696 25.5856 51.9109 25.2494 51.3356C24.9131 50.7602 24.9206 50.0429 25.2494 49.4675L33.5883 35.0984C33.9246 34.5231 34.5372 34.1719 35.2023 34.1644L165.309 34C165.974 34 166.594 34.3587 166.93 34.934C167.266 35.5094 167.266 36.2267 166.93 36.8021L110.35 134.3C110.022 134.868 109.409 135.226 108.751 135.234H108.737V135.241ZM102.333 119.168L108.707 129.704L162.073 37.7436L36.2932 37.908L30.1211 48.5409L140.067 48.5634C140.733 48.5634 141.353 48.922 141.689 49.4974C142.025 50.0728 142.018 50.7901 141.689 51.3654L102.34 119.168H102.333Z" fill="#2C303C"/>
<path d="M108.116 165.265C107.451 165.265 106.831 164.906 106.495 164.323L50.4458 66.5118C50.117 65.9364 50.117 65.234 50.4458 64.6587C50.7746 64.0833 51.3723 63.7247 52.0373 63.7097L68.6106 63.3884C69.313 63.366 69.9259 63.7321 70.2696 64.3299L108.184 130.496L163.269 35.3452C163.605 34.7698 164.218 34.4111 164.883 34.4111C165.548 34.4111 166.168 34.7698 166.497 35.3526L174.754 49.7666C175.082 50.3419 175.082 51.0518 174.754 51.6271L109.73 164.323C109.394 164.899 108.781 165.257 108.109 165.257L108.116 165.265ZM55.2579 67.3935L108.124 159.646L170.98 50.7006L164.868 40.0302L109.783 135.182C109.446 135.757 108.834 136.116 108.169 136.116C107.504 136.116 106.883 135.757 106.555 135.174L67.5796 67.1544L55.2653 67.3935H55.2579Z" fill="#2C303C"/>
</svg>
