<svg width="200" height="200" viewBox="0 0 200 200" fill="none" xmlns="http://www.w3.org/2000/svg">
<path d="M99.6487 96.8957C99.3192 96.8957 98.9897 96.8133 98.6849 96.6568L26.1368 58.2654C25.4612 57.9112 25.041 57.2109 25.041 56.4448C25.041 55.6786 25.4612 54.9783 26.1368 54.624L98.6849 16.241C99.2863 15.9197 100.011 15.9197 100.613 16.241L173.161 54.624C173.836 54.9783 174.256 55.6786 174.256 56.4448C174.256 57.2109 173.836 57.9112 173.161 58.2654L100.613 96.6568C100.308 96.8133 99.9782 96.8957 99.6487 96.8957ZM31.5083 56.4448L99.6487 92.5046L167.789 56.4448L99.6487 20.3849L31.5083 56.4448Z" fill="#2C303C"/>
<path d="M99.6084 181.019L99.6496 94.8362L27.1016 56.4531L27.0605 142.628L99.6084 181.019Z" fill="#CAF200"/>
<path d="M99.6075 183.078C99.2779 183.078 98.9485 182.996 98.6436 182.839L26.0956 144.448C25.42 144.094 25 143.394 25 142.627L25.041 56.453C25.041 55.728 25.42 55.0607 26.0379 54.69C26.6557 54.3192 27.4221 54.2945 28.0647 54.6323L100.613 93.0236C101.288 93.3778 101.708 94.0781 101.708 94.8443L101.675 181.019C101.675 181.744 101.296 182.411 100.679 182.782C100.349 182.98 99.9865 183.078 99.6157 183.078H99.6075ZM29.1192 141.392L97.5479 177.6L97.5809 96.0801L29.152 59.8719L29.1192 141.392Z" fill="#2C303C"/>
<path d="M100.192 183.078C99.8213 183.078 99.459 182.98 99.1294 182.782C98.5115 182.411 98.1324 181.744 98.1324 181.019L98.0996 94.8443C98.0996 94.0781 98.5196 93.3778 99.1952 93.0236L171.743 54.6323C172.378 54.2945 173.152 54.3192 173.77 54.69C174.388 55.0607 174.767 55.728 174.767 56.453L174.808 142.627C174.808 143.394 174.388 144.094 173.712 144.448L101.164 182.839C100.859 182.996 100.53 183.078 100.2 183.078H100.192ZM102.219 96.0801L102.252 177.6L170.68 141.392L170.647 59.8719L102.219 96.0801Z" fill="#2C303C"/>
<path d="M114.882 174.337C113.745 174.337 112.822 173.414 112.822 172.278L112.789 103.544C112.789 102.778 113.209 102.077 113.885 101.723L171.752 71.1091C172.757 70.5818 174.001 70.9608 174.536 71.9659C175.072 72.971 174.685 74.215 173.68 74.7505L116.917 104.788L116.941 172.286C116.941 173.423 116.019 174.345 114.882 174.345V174.337Z" fill="#2C303C"/>
<path d="M127.766 168.455C126.629 168.455 125.706 167.532 125.706 166.395L125.682 112.705C125.682 111.939 126.102 111.239 126.777 110.884L171.974 86.968C172.979 86.4407 174.223 86.8197 174.758 87.8248C175.294 88.8299 174.907 90.0739 173.901 90.6094L129.801 113.949L129.826 166.395C129.826 167.532 128.903 168.455 127.766 168.455Z" fill="#2C303C"/>
<path d="M140.437 160.48C139.301 160.48 138.378 159.557 138.378 158.42L138.361 120.416C138.361 119.65 138.782 118.95 139.457 118.595L171.447 101.665C172.452 101.138 173.696 101.517 174.232 102.522C174.767 103.527 174.38 104.771 173.375 105.307L142.481 121.652L142.497 158.412C142.497 159.549 141.574 160.471 140.437 160.471V160.48Z" fill="#2C303C"/>
<path d="M140.437 160.48C139.301 160.48 138.378 159.557 138.378 158.42L138.361 120.416C138.361 119.65 138.782 118.95 139.457 118.595L171.447 101.665C172.452 101.138 173.696 101.517 174.232 102.522C174.767 103.527 174.38 104.771 173.375 105.307L142.481 121.652L142.497 158.412C142.497 159.549 141.574 160.471 140.437 160.471V160.48Z" fill="#2C303C"/>
<path d="M152.318 153.873C151.181 153.873 150.258 152.95 150.258 151.813V128.754C150.25 127.987 150.67 127.287 151.345 126.933L170.764 116.66C171.769 116.124 173.013 116.511 173.548 117.516C174.084 118.521 173.696 119.765 172.691 120.301L154.377 129.998V151.821C154.385 152.958 153.463 153.881 152.326 153.881L152.318 153.873Z" fill="#2C303C"/>
</svg>
