<svg width="200" height="200" viewBox="0 0 200 200" fill="none" xmlns="http://www.w3.org/2000/svg">
<path d="M162.018 37.9912L79.2852 37.9912L79.2852 120.724L162.018 120.724V37.9912Z" fill="#CAF200"/>
<path d="M162.017 122.602L79.2843 122.602C78.2476 122.602 77.4063 121.761 77.4063 120.724L77.4062 37.9914C77.4062 36.9547 78.2476 36.1133 79.2843 36.1133L162.017 36.1133C163.054 36.1133 163.895 36.9547 163.895 37.9914V120.724C163.895 121.761 163.054 122.602 162.017 122.602ZM81.1624 118.846L160.139 118.846V39.8694L81.1624 39.8694L81.1624 118.846Z" fill="#2C303C"/>
<path d="M120.715 163.905H37.9816C36.9449 163.905 36.1035 163.064 36.1035 162.027L36.1035 79.2941C36.1035 78.2574 36.9449 77.416 37.9816 77.416L120.715 77.416C121.751 77.416 122.593 78.2574 122.593 79.2941L122.593 162.027C122.593 163.064 121.751 163.905 120.715 163.905ZM39.8597 160.149H118.837L118.837 81.1722L39.8597 81.1722L39.8597 160.149Z" fill="#2C303C"/>
<path d="M38.5303 163.349C38.0495 163.349 37.5687 163.169 37.2006 162.801C36.4644 162.065 36.4644 160.878 37.2006 160.142L160.132 37.2104C160.868 36.4742 162.055 36.4742 162.791 37.2104C163.527 37.9466 163.527 39.1335 162.791 39.8697L39.8599 162.801C39.4918 163.169 39.0111 163.349 38.5303 163.349Z" fill="#2C303C"/>
<path d="M68.2417 70.1214H26.879C26.1202 70.1214 25.4366 69.6631 25.1436 68.9645C24.8506 68.2659 25.0159 67.4545 25.5493 66.9212L66.912 25.5509C67.4453 25.01 68.2567 24.8523 68.9554 25.1452C69.654 25.4382 70.1122 26.1218 70.1122 26.8806V68.2508C70.1122 69.2875 69.2708 70.1289 68.2341 70.1289L68.2417 70.1214ZM31.4088 66.3652H66.3636V31.4105L31.4088 66.3652Z" fill="#2C303C"/>
<path d="M131.759 175.009C131.519 175.009 131.271 174.964 131.038 174.866C130.339 174.573 129.881 173.889 129.881 173.131V131.76C129.881 130.724 130.722 129.882 131.759 129.882H173.122C173.88 129.882 174.564 130.341 174.857 131.039C175.15 131.738 174.985 132.549 174.451 133.083L133.089 174.453C132.728 174.813 132.247 175.001 131.759 175.001V175.009ZM133.637 133.638V168.593L168.592 133.638H133.637Z" fill="#2C303C"/>
</svg>
