<svg width="200" height="200" viewBox="0 0 200 200" fill="none" xmlns="http://www.w3.org/2000/svg">
<path d="M120.717 26.8015L68.2363 79.2822L120.717 131.763L173.198 79.2822L120.717 26.8015Z" fill="#CAF200"/>
<path d="M120.718 133.564C120.257 133.564 119.797 133.391 119.445 133.039L66.9624 80.5564C66.6244 80.2184 66.4375 79.7654 66.4375 79.2837C66.4375 78.8019 66.6244 78.3489 66.9624 78.011L119.445 25.5285C120.15 24.8238 121.286 24.8238 121.99 25.5285L174.473 78.011C175.177 78.7156 175.177 79.8517 174.473 80.5564L121.99 133.039C121.638 133.391 121.178 133.564 120.718 133.564ZM70.7805 79.2837L120.718 129.221L170.655 79.2837L120.718 29.3466L70.7805 79.2837Z" fill="#2C303C"/>
<path d="M146.406 135.009C145.939 135.009 145.479 134.822 145.134 134.484L65.5148 54.865C65.0403 54.3904 64.8678 53.6929 65.0691 53.053C65.2704 52.413 65.8097 51.9385 66.4712 51.8235L163.354 34.5522C163.929 34.4515 164.526 34.6384 164.943 35.0483C165.36 35.4653 165.547 36.055 165.439 36.6374L148.175 133.52C148.06 134.182 147.586 134.721 146.946 134.922C146.766 134.98 146.586 135.009 146.406 135.009ZM70.4979 54.7571L145.242 129.501L161.449 38.5428L70.4979 54.7571Z" fill="#2C303C"/>
<path d="M62.3735 139.424C61.9133 139.424 61.4531 139.251 61.1008 138.899C60.3961 138.194 60.3961 137.058 61.1008 136.354L162.399 35.0558C163.103 34.3512 164.239 34.3512 164.944 35.0558C165.649 35.7605 165.649 36.8966 164.944 37.6013L63.6462 138.899C63.2938 139.251 62.8337 139.424 62.3735 139.424Z" fill="#2C303C"/>
<path d="M94.2774 155.063C93.8172 155.063 93.357 154.891 93.0047 154.538L45.4621 106.996C44.7574 106.291 44.7574 105.155 45.4621 104.45C46.1667 103.746 47.3028 103.746 48.0075 104.45L95.5501 151.993C96.2548 152.698 96.2548 153.834 95.5501 154.538C95.1978 154.891 94.7376 155.063 94.2774 155.063Z" fill="#2C303C"/>
<path d="M38.2932 110.583C34.7412 110.583 31.3976 109.203 28.8882 106.686C23.7039 101.502 23.7039 93.0605 28.8882 87.8762C31.3976 85.3668 34.7412 83.979 38.2932 83.979C41.8453 83.979 45.1887 85.3596 47.6981 87.8762C52.8824 93.0605 52.8824 101.502 47.6981 106.686C45.1887 109.196 41.8453 110.583 38.2932 110.583ZM38.2932 87.5742C35.6975 87.5742 33.2672 88.5808 31.4336 90.4143C27.6515 94.1965 27.6515 100.359 31.4336 104.141C33.2672 105.974 35.7047 106.981 38.2932 106.981C40.8818 106.981 43.3265 105.974 45.1529 104.141C48.935 100.359 48.935 94.1965 45.1529 90.4143C43.3193 88.5808 40.8818 87.5742 38.2932 87.5742Z" fill="#2C303C"/>
<path d="M102.719 175.009C99.1668 175.009 95.8234 173.629 93.314 171.112C88.1297 165.928 88.1297 157.486 93.314 152.302C95.8234 149.793 99.1668 148.405 102.719 148.405C106.271 148.405 109.614 149.785 112.124 152.302C114.633 154.811 116.021 158.155 116.021 161.707C116.021 165.259 114.641 168.603 112.124 171.112C109.614 173.621 106.271 175.009 102.719 175.009ZM102.719 152C100.123 152 97.6929 153.007 95.8594 154.84C92.0773 158.622 92.0773 164.784 95.8594 168.567C97.6929 170.4 100.13 171.407 102.719 171.407C105.307 171.407 107.745 170.4 109.578 168.567C111.412 166.733 112.419 164.295 112.419 161.707C112.419 159.118 111.412 156.681 109.578 154.847C107.745 153.014 105.307 152.007 102.719 152.007V152Z" fill="#2C303C"/>
</svg>
