<svg width="200" height="200" viewBox="0 0 200 200" fill="none" xmlns="http://www.w3.org/2000/svg">
<path d="M96.3521 152.868H103.646L106.412 148.083H93.5859L96.3521 152.868Z" fill="#2C303C"/>
<path d="M93.586 148.083H34.7067L31.9453 152.868H96.3521L93.586 148.083Z" fill="#2C303C"/>
<path d="M25 164.903L175 164.903L174.405 163.87L25.5951 163.87L25 164.903Z" fill="#2C303C"/>
<path d="M84.4735 132.296H43.8241L40.0391 138.852H88.2585L84.4735 132.296Z" fill="#2C303C"/>
<path d="M75.361 116.513H52.9367L48.1328 124.835H80.1648L75.361 116.513Z" fill="#2C303C"/>
<path d="M88.2596 138.852H111.741L115.526 132.296H84.4746L88.2596 138.852Z" fill="#2C303C"/>
<path d="M132.557 102.801L67.4453 102.801L72.073 110.818L127.929 110.818L132.557 102.801Z" fill="#2C303C"/>
<path d="M80.1671 124.835H119.836L124.64 116.513L75.3633 116.513L80.1671 124.835Z" fill="#2C303C"/>
<path d="M119.834 124.835H151.866L147.062 116.513H124.638L119.834 124.835Z" fill="#2C303C"/>
<path d="M103.646 152.868H168.053L165.292 148.083H106.413L103.646 152.868Z" fill="#2C303C"/>
<path d="M111.742 138.852H159.962L156.177 132.296H115.527L111.742 138.852Z" fill="#2C303C"/>
<path d="M80.2801 69.1504L72.4102 82.7857L127.59 82.7857L119.72 69.1504L80.2801 69.1504Z" fill="#2C303C"/>
<path d="M64.3164 96.8024L135.684 96.8024L128.833 84.938L71.1675 84.938L64.3164 96.8024Z" fill="#2C303C"/>
<path d="M56.2227 110.819H72.072L67.4443 102.801L132.556 102.801L127.928 110.819H143.777L137.945 100.726L62.0549 100.726L56.2227 110.819Z" fill="#2C303C"/>
<path d="M100 35L80.5039 68.7696H119.501L100 35Z" fill="#2C303C"/>
</svg>
