<svg width="405" height="708" viewBox="0 0 405 708" fill="none" xmlns="http://www.w3.org/2000/svg">
<path d="M404.067 0H303.052V101.015H404.067V0Z" fill="#2C303C"/>
<path opacity="0.3" d="M353.563 50.5109L303.052 101.015V0L353.563 50.5109Z" fill="url(#paint0_linear_413_47238)" style="mix-blend-mode:soft-light"/>
<path opacity="0.3" d="M404.073 0V101.015L353.562 50.5109L404.073 0Z" fill="url(#paint1_linear_413_47238)" style="mix-blend-mode:multiply"/>
<path opacity="0.75" d="M353.563 50.5107L404.074 101.015H303.052L353.563 50.5107Z" fill="url(#paint2_linear_413_47238)" style="mix-blend-mode:multiply"/>
<path d="M303.052 0H404.074L353.563 50.5109L303.052 0Z" fill="url(#paint3_linear_413_47238)" style="mix-blend-mode:soft-light"/>
<path d="M303.052 101.015H202.037V202.03H303.052V101.015Z" fill="#2C303C"/>
<path opacity="0.3" d="M252.548 151.526L202.037 202.036V101.015L252.548 151.526Z" fill="url(#paint4_linear_413_47238)" style="mix-blend-mode:soft-light"/>
<path opacity="0.3" d="M303.052 101.015V202.036L252.548 151.526L303.052 101.015Z" fill="url(#paint5_linear_413_47238)" style="mix-blend-mode:multiply"/>
<path opacity="0.75" d="M252.548 151.526L303.052 202.037H202.037L252.548 151.526Z" fill="url(#paint6_linear_413_47238)" style="mix-blend-mode:multiply"/>
<path d="M202.037 101.015H303.052L252.548 151.526L202.037 101.015Z" fill="url(#paint7_linear_413_47238)" style="mix-blend-mode:soft-light"/>
<path d="M404.067 101.015H303.052V202.03H404.067V101.015Z" fill="#2C303C"/>
<path opacity="0.3" d="M353.563 151.526L303.052 202.036V101.015L353.563 151.526Z" fill="url(#paint8_linear_413_47238)" style="mix-blend-mode:soft-light"/>
<path opacity="0.3" d="M404.073 101.015V202.036L353.562 151.526L404.073 101.015Z" fill="url(#paint9_linear_413_47238)" style="mix-blend-mode:multiply"/>
<path opacity="0.75" d="M353.563 151.526L404.074 202.037H303.052L353.563 151.526Z" fill="url(#paint10_linear_413_47238)" style="mix-blend-mode:multiply"/>
<path d="M303.052 101.015H404.074L353.563 151.526L303.052 101.015Z" fill="url(#paint11_linear_413_47238)" style="mix-blend-mode:soft-light"/>
<path d="M202.03 202.037H101.015V303.052H202.03V202.037Z" fill="#2C303C"/>
<path opacity="0.3" d="M151.526 252.548L101.015 303.052V202.037L151.526 252.548Z" fill="url(#paint12_linear_413_47238)" style="mix-blend-mode:soft-light"/>
<path opacity="0.3" d="M202.036 202.037V303.052L151.525 252.548L202.036 202.037Z" fill="url(#paint13_linear_413_47238)" style="mix-blend-mode:multiply"/>
<path opacity="0.75" d="M151.526 252.548L202.036 303.052H101.015L151.526 252.548Z" fill="url(#paint14_linear_413_47238)" style="mix-blend-mode:multiply"/>
<path d="M101.015 202.037H202.036L151.526 252.548L101.015 202.037Z" fill="url(#paint15_linear_413_47238)" style="mix-blend-mode:soft-light"/>
<path d="M404.067 202.037H303.052V303.052H404.067V202.037Z" fill="#2C303C"/>
<path opacity="0.3" d="M353.563 252.548L303.052 303.052V202.037L353.563 252.548Z" fill="url(#paint16_linear_413_47238)" style="mix-blend-mode:soft-light"/>
<path opacity="0.3" d="M404.073 202.037V303.052L353.562 252.548L404.073 202.037Z" fill="url(#paint17_linear_413_47238)" style="mix-blend-mode:multiply"/>
<path opacity="0.75" d="M353.563 252.548L404.074 303.052H303.052L353.563 252.548Z" fill="url(#paint18_linear_413_47238)" style="mix-blend-mode:multiply"/>
<path d="M303.052 202.037H404.074L353.563 252.548L303.052 202.037Z" fill="url(#paint19_linear_413_47238)" style="mix-blend-mode:soft-light"/>
<path d="M303.052 202.037H202.037V303.052H303.052V202.037Z" fill="#2C303C"/>
<path opacity="0.3" d="M252.548 252.548L202.037 303.052V202.037L252.548 252.548Z" fill="url(#paint20_linear_413_47238)" style="mix-blend-mode:soft-light"/>
<path opacity="0.3" d="M303.052 202.037V303.052L252.548 252.548L303.052 202.037Z" fill="url(#paint21_linear_413_47238)" style="mix-blend-mode:multiply"/>
<path opacity="0.75" d="M252.548 252.548L303.052 303.052H202.037L252.548 252.548Z" fill="url(#paint22_linear_413_47238)" style="mix-blend-mode:multiply"/>
<path d="M202.037 202.037H303.052L252.548 252.548L202.037 202.037Z" fill="url(#paint23_linear_413_47238)" style="mix-blend-mode:soft-light"/>
<path d="M404.067 303.052H303.052V404.067H404.067V303.052Z" fill="#2C303C"/>
<path opacity="0.3" d="M353.563 353.563L303.052 404.074V303.052L353.563 353.563Z" fill="url(#paint24_linear_413_47238)" style="mix-blend-mode:soft-light"/>
<path opacity="0.3" d="M404.073 303.052V404.074L353.562 353.563L404.073 303.052Z" fill="url(#paint25_linear_413_47238)" style="mix-blend-mode:multiply"/>
<path opacity="0.75" d="M353.563 353.562L404.074 404.073H303.052L353.563 353.562Z" fill="url(#paint26_linear_413_47238)" style="mix-blend-mode:multiply"/>
<path d="M303.052 303.052H404.074L353.563 353.563L303.052 303.052Z" fill="url(#paint27_linear_413_47238)" style="mix-blend-mode:soft-light"/>
<path d="M202.03 303.052H101.015V404.067H202.03V303.052Z" fill="#2C303C"/>
<path opacity="0.3" d="M151.526 353.563L101.015 404.074V303.052L151.526 353.563Z" fill="url(#paint28_linear_413_47238)" style="mix-blend-mode:soft-light"/>
<path opacity="0.3" d="M202.036 303.052V404.074L151.525 353.563L202.036 303.052Z" fill="url(#paint29_linear_413_47238)" style="mix-blend-mode:multiply"/>
<path opacity="0.75" d="M151.526 353.562L202.036 404.073H101.015L151.526 353.562Z" fill="url(#paint30_linear_413_47238)" style="mix-blend-mode:multiply"/>
<path d="M101.015 303.052H202.036L151.526 353.563L101.015 303.052Z" fill="url(#paint31_linear_413_47238)" style="mix-blend-mode:soft-light"/>
<path d="M303.052 303.052H202.037V404.067H303.052V303.052Z" fill="#2C303C"/>
<path opacity="0.3" d="M252.548 353.563L202.037 404.074V303.052L252.548 353.563Z" fill="url(#paint32_linear_413_47238)" style="mix-blend-mode:soft-light"/>
<path opacity="0.3" d="M303.052 303.052V404.074L252.548 353.563L303.052 303.052Z" fill="url(#paint33_linear_413_47238)" style="mix-blend-mode:multiply"/>
<path opacity="0.75" d="M252.548 353.562L303.052 404.073H202.037L252.548 353.562Z" fill="url(#paint34_linear_413_47238)" style="mix-blend-mode:multiply"/>
<path d="M202.037 303.052H303.052L252.548 353.563L202.037 303.052Z" fill="url(#paint35_linear_413_47238)" style="mix-blend-mode:soft-light"/>
<path d="M101.015 303.052H0V404.067H101.015V303.052Z" fill="#2C303C"/>
<path opacity="0.3" d="M50.5109 353.563L0 404.074V303.052L50.5109 353.563Z" fill="url(#paint36_linear_413_47238)" style="mix-blend-mode:soft-light"/>
<path opacity="0.3" d="M101.015 303.052V404.074L50.5107 353.563L101.015 303.052Z" fill="url(#paint37_linear_413_47238)" style="mix-blend-mode:multiply"/>
<path opacity="0.75" d="M50.5109 353.562L101.015 404.073H0L50.5109 353.562Z" fill="url(#paint38_linear_413_47238)" style="mix-blend-mode:multiply"/>
<path d="M0 303.052H101.015L50.5109 353.563L0 303.052Z" fill="url(#paint39_linear_413_47238)" style="mix-blend-mode:soft-light"/>
<path d="M404.067 404.073H303.052V505.088H404.067V404.073Z" fill="#2C303C"/>
<path opacity="0.3" d="M353.563 454.577L303.052 505.088V404.073L353.563 454.577Z" fill="url(#paint40_linear_413_47238)" style="mix-blend-mode:soft-light"/>
<path opacity="0.3" d="M404.073 404.073V505.088L353.562 454.577L404.073 404.073Z" fill="url(#paint41_linear_413_47238)" style="mix-blend-mode:multiply"/>
<path opacity="0.75" d="M353.563 454.578L404.074 505.089H303.052L353.563 454.578Z" fill="url(#paint42_linear_413_47238)" style="mix-blend-mode:multiply"/>
<path d="M303.052 404.073H404.074L353.563 454.577L303.052 404.073Z" fill="url(#paint43_linear_413_47238)" style="mix-blend-mode:soft-light"/>
<path d="M202.03 404.073H101.015V505.088H202.03V404.073Z" fill="#2C303C"/>
<path opacity="0.3" d="M151.526 454.577L101.015 505.088V404.073L151.526 454.577Z" fill="url(#paint44_linear_413_47238)" style="mix-blend-mode:soft-light"/>
<path opacity="0.3" d="M202.036 404.073V505.088L151.525 454.577L202.036 404.073Z" fill="url(#paint45_linear_413_47238)" style="mix-blend-mode:multiply"/>
<path opacity="0.75" d="M151.526 454.578L202.036 505.089H101.015L151.526 454.578Z" fill="url(#paint46_linear_413_47238)" style="mix-blend-mode:multiply"/>
<path d="M101.015 404.073H202.036L151.526 454.577L101.015 404.073Z" fill="url(#paint47_linear_413_47238)" style="mix-blend-mode:soft-light"/>
<path d="M303.052 505.089H202.037V606.104H303.052V505.089Z" fill="#2C303C"/>
<path opacity="0.3" d="M252.548 555.6L202.037 606.111V505.089L252.548 555.6Z" fill="url(#paint48_linear_413_47238)" style="mix-blend-mode:soft-light"/>
<path opacity="0.3" d="M303.052 505.089V606.111L252.548 555.6L303.052 505.089Z" fill="url(#paint49_linear_413_47238)" style="mix-blend-mode:multiply"/>
<path opacity="0.75" d="M252.548 555.6L303.052 606.111H202.037L252.548 555.6Z" fill="url(#paint50_linear_413_47238)" style="mix-blend-mode:multiply"/>
<path d="M202.037 505.089H303.052L252.548 555.6L202.037 505.089Z" fill="url(#paint51_linear_413_47238)" style="mix-blend-mode:soft-light"/>
<path d="M404.067 505.089H303.052V606.104H404.067V505.089Z" fill="#2C303C"/>
<path opacity="0.3" d="M353.563 555.6L303.052 606.111V505.089L353.563 555.6Z" fill="url(#paint52_linear_413_47238)" style="mix-blend-mode:soft-light"/>
<path opacity="0.3" d="M404.073 505.089V606.111L353.562 555.6L404.073 505.089Z" fill="url(#paint53_linear_413_47238)" style="mix-blend-mode:multiply"/>
<path opacity="0.75" d="M353.563 555.6L404.074 606.111H303.052L353.563 555.6Z" fill="url(#paint54_linear_413_47238)" style="mix-blend-mode:multiply"/>
<path d="M303.052 505.089H404.074L353.563 555.6L303.052 505.089Z" fill="url(#paint55_linear_413_47238)" style="mix-blend-mode:soft-light"/>
<path d="M303.052 404.073H202.037V505.088H303.052V404.073Z" fill="#2C303C"/>
<path opacity="0.3" d="M252.548 454.577L202.037 505.088V404.073L252.548 454.577Z" fill="url(#paint56_linear_413_47238)" style="mix-blend-mode:soft-light"/>
<path opacity="0.3" d="M303.052 404.073V505.088L252.548 454.577L303.052 404.073Z" fill="url(#paint57_linear_413_47238)" style="mix-blend-mode:multiply"/>
<path opacity="0.75" d="M252.548 454.578L303.052 505.089H202.037L252.548 454.578Z" fill="url(#paint58_linear_413_47238)" style="mix-blend-mode:multiply"/>
<path d="M202.037 404.073H303.052L252.548 454.577L202.037 404.073Z" fill="url(#paint59_linear_413_47238)" style="mix-blend-mode:soft-light"/>
<path d="M404.067 606.11H303.052V707.125H404.067V606.11Z" fill="#2C303C"/>
<path opacity="0.3" d="M353.563 656.614L303.052 707.125V606.11L353.563 656.614Z" fill="url(#paint60_linear_413_47238)" style="mix-blend-mode:soft-light"/>
<path opacity="0.3" d="M404.073 606.11V707.125L353.562 656.614L404.073 606.11Z" fill="url(#paint61_linear_413_47238)" style="mix-blend-mode:multiply"/>
<path opacity="0.75" d="M353.563 656.614L404.074 707.125H303.052L353.563 656.614Z" fill="url(#paint62_linear_413_47238)" style="mix-blend-mode:multiply"/>
<path d="M303.052 606.11H404.074L353.563 656.614L303.052 606.11Z" fill="url(#paint63_linear_413_47238)" style="mix-blend-mode:soft-light"/>
<defs>
<linearGradient id="paint0_linear_413_47238" x1="303.052" y1="50.5109" x2="353.563" y2="50.5109" gradientUnits="userSpaceOnUse">
<stop stop-color="#BBBBBB"/>
<stop offset="1" stop-color="white"/>
</linearGradient>
<linearGradient id="paint1_linear_413_47238" x1="353.562" y1="50.5109" x2="404.073" y2="50.5109" gradientUnits="userSpaceOnUse">
<stop stop-color="#BBBBBB"/>
<stop offset="1" stop-color="#DDDDDD"/>
</linearGradient>
<linearGradient id="paint2_linear_413_47238" x1="353.563" y1="101.015" x2="353.563" y2="50.5107" gradientUnits="userSpaceOnUse">
<stop stop-color="#DDDDDD"/>
<stop offset="1" stop-color="#BBBBBB"/>
</linearGradient>
<linearGradient id="paint3_linear_413_47238" x1="353.563" y1="50.5109" x2="353.563" y2="0" gradientUnits="userSpaceOnUse">
<stop stop-color="white"/>
<stop offset="1" stop-color="#BBBBBB"/>
</linearGradient>
<linearGradient id="paint4_linear_413_47238" x1="202.037" y1="151.526" x2="252.548" y2="151.526" gradientUnits="userSpaceOnUse">
<stop stop-color="#BBBBBB"/>
<stop offset="1" stop-color="white"/>
</linearGradient>
<linearGradient id="paint5_linear_413_47238" x1="252.548" y1="151.526" x2="303.052" y2="151.526" gradientUnits="userSpaceOnUse">
<stop stop-color="#BBBBBB"/>
<stop offset="1" stop-color="#DDDDDD"/>
</linearGradient>
<linearGradient id="paint6_linear_413_47238" x1="252.548" y1="202.037" x2="252.548" y2="151.526" gradientUnits="userSpaceOnUse">
<stop stop-color="#DDDDDD"/>
<stop offset="1" stop-color="#BBBBBB"/>
</linearGradient>
<linearGradient id="paint7_linear_413_47238" x1="252.548" y1="151.526" x2="252.548" y2="101.015" gradientUnits="userSpaceOnUse">
<stop stop-color="white"/>
<stop offset="1" stop-color="#BBBBBB"/>
</linearGradient>
<linearGradient id="paint8_linear_413_47238" x1="303.052" y1="151.526" x2="353.563" y2="151.526" gradientUnits="userSpaceOnUse">
<stop stop-color="#BBBBBB"/>
<stop offset="1" stop-color="white"/>
</linearGradient>
<linearGradient id="paint9_linear_413_47238" x1="353.562" y1="151.526" x2="404.073" y2="151.526" gradientUnits="userSpaceOnUse">
<stop stop-color="#BBBBBB"/>
<stop offset="1" stop-color="#DDDDDD"/>
</linearGradient>
<linearGradient id="paint10_linear_413_47238" x1="353.563" y1="202.037" x2="353.563" y2="151.526" gradientUnits="userSpaceOnUse">
<stop stop-color="#DDDDDD"/>
<stop offset="1" stop-color="#BBBBBB"/>
</linearGradient>
<linearGradient id="paint11_linear_413_47238" x1="353.563" y1="151.526" x2="353.563" y2="101.015" gradientUnits="userSpaceOnUse">
<stop stop-color="white"/>
<stop offset="1" stop-color="#BBBBBB"/>
</linearGradient>
<linearGradient id="paint12_linear_413_47238" x1="101.015" y1="252.548" x2="151.526" y2="252.548" gradientUnits="userSpaceOnUse">
<stop stop-color="#BBBBBB"/>
<stop offset="1" stop-color="white"/>
</linearGradient>
<linearGradient id="paint13_linear_413_47238" x1="151.525" y1="252.548" x2="202.036" y2="252.548" gradientUnits="userSpaceOnUse">
<stop stop-color="#BBBBBB"/>
<stop offset="1" stop-color="#DDDDDD"/>
</linearGradient>
<linearGradient id="paint14_linear_413_47238" x1="151.526" y1="303.052" x2="151.526" y2="252.548" gradientUnits="userSpaceOnUse">
<stop stop-color="#DDDDDD"/>
<stop offset="1" stop-color="#BBBBBB"/>
</linearGradient>
<linearGradient id="paint15_linear_413_47238" x1="151.526" y1="252.548" x2="151.526" y2="202.037" gradientUnits="userSpaceOnUse">
<stop stop-color="white"/>
<stop offset="1" stop-color="#BBBBBB"/>
</linearGradient>
<linearGradient id="paint16_linear_413_47238" x1="303.052" y1="252.548" x2="353.563" y2="252.548" gradientUnits="userSpaceOnUse">
<stop stop-color="#BBBBBB"/>
<stop offset="1" stop-color="white"/>
</linearGradient>
<linearGradient id="paint17_linear_413_47238" x1="353.562" y1="252.548" x2="404.073" y2="252.548" gradientUnits="userSpaceOnUse">
<stop stop-color="#BBBBBB"/>
<stop offset="1" stop-color="#DDDDDD"/>
</linearGradient>
<linearGradient id="paint18_linear_413_47238" x1="353.563" y1="303.052" x2="353.563" y2="252.548" gradientUnits="userSpaceOnUse">
<stop stop-color="#DDDDDD"/>
<stop offset="1" stop-color="#BBBBBB"/>
</linearGradient>
<linearGradient id="paint19_linear_413_47238" x1="353.563" y1="252.548" x2="353.563" y2="202.037" gradientUnits="userSpaceOnUse">
<stop stop-color="white"/>
<stop offset="1" stop-color="#BBBBBB"/>
</linearGradient>
<linearGradient id="paint20_linear_413_47238" x1="202.037" y1="252.548" x2="252.548" y2="252.548" gradientUnits="userSpaceOnUse">
<stop stop-color="#BBBBBB"/>
<stop offset="1" stop-color="white"/>
</linearGradient>
<linearGradient id="paint21_linear_413_47238" x1="252.548" y1="252.548" x2="303.052" y2="252.548" gradientUnits="userSpaceOnUse">
<stop stop-color="#BBBBBB"/>
<stop offset="1" stop-color="#DDDDDD"/>
</linearGradient>
<linearGradient id="paint22_linear_413_47238" x1="252.548" y1="303.052" x2="252.548" y2="252.548" gradientUnits="userSpaceOnUse">
<stop stop-color="#DDDDDD"/>
<stop offset="1" stop-color="#BBBBBB"/>
</linearGradient>
<linearGradient id="paint23_linear_413_47238" x1="252.548" y1="252.548" x2="252.548" y2="202.037" gradientUnits="userSpaceOnUse">
<stop stop-color="white"/>
<stop offset="1" stop-color="#BBBBBB"/>
</linearGradient>
<linearGradient id="paint24_linear_413_47238" x1="303.052" y1="353.563" x2="353.563" y2="353.563" gradientUnits="userSpaceOnUse">
<stop stop-color="#BBBBBB"/>
<stop offset="1" stop-color="white"/>
</linearGradient>
<linearGradient id="paint25_linear_413_47238" x1="353.562" y1="353.563" x2="404.073" y2="353.563" gradientUnits="userSpaceOnUse">
<stop stop-color="#BBBBBB"/>
<stop offset="1" stop-color="#DDDDDD"/>
</linearGradient>
<linearGradient id="paint26_linear_413_47238" x1="353.563" y1="404.073" x2="353.563" y2="353.562" gradientUnits="userSpaceOnUse">
<stop stop-color="#DDDDDD"/>
<stop offset="1" stop-color="#BBBBBB"/>
</linearGradient>
<linearGradient id="paint27_linear_413_47238" x1="353.563" y1="353.563" x2="353.563" y2="303.052" gradientUnits="userSpaceOnUse">
<stop stop-color="white"/>
<stop offset="1" stop-color="#BBBBBB"/>
</linearGradient>
<linearGradient id="paint28_linear_413_47238" x1="101.015" y1="353.563" x2="151.526" y2="353.563" gradientUnits="userSpaceOnUse">
<stop stop-color="#BBBBBB"/>
<stop offset="1" stop-color="white"/>
</linearGradient>
<linearGradient id="paint29_linear_413_47238" x1="151.525" y1="353.563" x2="202.036" y2="353.563" gradientUnits="userSpaceOnUse">
<stop stop-color="#BBBBBB"/>
<stop offset="1" stop-color="#DDDDDD"/>
</linearGradient>
<linearGradient id="paint30_linear_413_47238" x1="151.526" y1="404.073" x2="151.526" y2="353.562" gradientUnits="userSpaceOnUse">
<stop stop-color="#DDDDDD"/>
<stop offset="1" stop-color="#BBBBBB"/>
</linearGradient>
<linearGradient id="paint31_linear_413_47238" x1="151.526" y1="353.563" x2="151.526" y2="303.052" gradientUnits="userSpaceOnUse">
<stop stop-color="white"/>
<stop offset="1" stop-color="#BBBBBB"/>
</linearGradient>
<linearGradient id="paint32_linear_413_47238" x1="202.037" y1="353.563" x2="252.548" y2="353.563" gradientUnits="userSpaceOnUse">
<stop stop-color="#BBBBBB"/>
<stop offset="1" stop-color="white"/>
</linearGradient>
<linearGradient id="paint33_linear_413_47238" x1="252.548" y1="353.563" x2="303.052" y2="353.563" gradientUnits="userSpaceOnUse">
<stop stop-color="#BBBBBB"/>
<stop offset="1" stop-color="#DDDDDD"/>
</linearGradient>
<linearGradient id="paint34_linear_413_47238" x1="252.548" y1="404.073" x2="252.548" y2="353.562" gradientUnits="userSpaceOnUse">
<stop stop-color="#DDDDDD"/>
<stop offset="1" stop-color="#BBBBBB"/>
</linearGradient>
<linearGradient id="paint35_linear_413_47238" x1="252.548" y1="353.563" x2="252.548" y2="303.052" gradientUnits="userSpaceOnUse">
<stop stop-color="white"/>
<stop offset="1" stop-color="#BBBBBB"/>
</linearGradient>
<linearGradient id="paint36_linear_413_47238" x1="0" y1="353.563" x2="50.5109" y2="353.563" gradientUnits="userSpaceOnUse">
<stop stop-color="#BBBBBB"/>
<stop offset="1" stop-color="white"/>
</linearGradient>
<linearGradient id="paint37_linear_413_47238" x1="50.5107" y1="353.563" x2="101.015" y2="353.563" gradientUnits="userSpaceOnUse">
<stop stop-color="#BBBBBB"/>
<stop offset="1" stop-color="#DDDDDD"/>
</linearGradient>
<linearGradient id="paint38_linear_413_47238" x1="50.5109" y1="404.073" x2="50.5109" y2="353.562" gradientUnits="userSpaceOnUse">
<stop stop-color="#DDDDDD"/>
<stop offset="1" stop-color="#BBBBBB"/>
</linearGradient>
<linearGradient id="paint39_linear_413_47238" x1="50.5109" y1="353.563" x2="50.5109" y2="303.052" gradientUnits="userSpaceOnUse">
<stop stop-color="white"/>
<stop offset="1" stop-color="#BBBBBB"/>
</linearGradient>
<linearGradient id="paint40_linear_413_47238" x1="303.052" y1="454.577" x2="353.563" y2="454.577" gradientUnits="userSpaceOnUse">
<stop stop-color="#BBBBBB"/>
<stop offset="1" stop-color="white"/>
</linearGradient>
<linearGradient id="paint41_linear_413_47238" x1="353.562" y1="454.577" x2="404.073" y2="454.577" gradientUnits="userSpaceOnUse">
<stop stop-color="#BBBBBB"/>
<stop offset="1" stop-color="#DDDDDD"/>
</linearGradient>
<linearGradient id="paint42_linear_413_47238" x1="353.563" y1="505.089" x2="353.563" y2="454.578" gradientUnits="userSpaceOnUse">
<stop stop-color="#DDDDDD"/>
<stop offset="1" stop-color="#BBBBBB"/>
</linearGradient>
<linearGradient id="paint43_linear_413_47238" x1="353.563" y1="454.577" x2="353.563" y2="404.073" gradientUnits="userSpaceOnUse">
<stop stop-color="white"/>
<stop offset="1" stop-color="#BBBBBB"/>
</linearGradient>
<linearGradient id="paint44_linear_413_47238" x1="101.015" y1="454.577" x2="151.526" y2="454.577" gradientUnits="userSpaceOnUse">
<stop stop-color="#BBBBBB"/>
<stop offset="1" stop-color="white"/>
</linearGradient>
<linearGradient id="paint45_linear_413_47238" x1="151.525" y1="454.577" x2="202.036" y2="454.577" gradientUnits="userSpaceOnUse">
<stop stop-color="#BBBBBB"/>
<stop offset="1" stop-color="#DDDDDD"/>
</linearGradient>
<linearGradient id="paint46_linear_413_47238" x1="151.526" y1="505.089" x2="151.526" y2="454.578" gradientUnits="userSpaceOnUse">
<stop stop-color="#DDDDDD"/>
<stop offset="1" stop-color="#BBBBBB"/>
</linearGradient>
<linearGradient id="paint47_linear_413_47238" x1="151.526" y1="454.577" x2="151.526" y2="404.073" gradientUnits="userSpaceOnUse">
<stop stop-color="white"/>
<stop offset="1" stop-color="#BBBBBB"/>
</linearGradient>
<linearGradient id="paint48_linear_413_47238" x1="202.037" y1="555.6" x2="252.548" y2="555.6" gradientUnits="userSpaceOnUse">
<stop stop-color="#BBBBBB"/>
<stop offset="1" stop-color="white"/>
</linearGradient>
<linearGradient id="paint49_linear_413_47238" x1="252.548" y1="555.6" x2="303.052" y2="555.6" gradientUnits="userSpaceOnUse">
<stop stop-color="#BBBBBB"/>
<stop offset="1" stop-color="#DDDDDD"/>
</linearGradient>
<linearGradient id="paint50_linear_413_47238" x1="252.548" y1="606.111" x2="252.548" y2="555.6" gradientUnits="userSpaceOnUse">
<stop stop-color="#DDDDDD"/>
<stop offset="1" stop-color="#BBBBBB"/>
</linearGradient>
<linearGradient id="paint51_linear_413_47238" x1="252.548" y1="555.6" x2="252.548" y2="505.089" gradientUnits="userSpaceOnUse">
<stop stop-color="white"/>
<stop offset="1" stop-color="#BBBBBB"/>
</linearGradient>
<linearGradient id="paint52_linear_413_47238" x1="303.052" y1="555.6" x2="353.563" y2="555.6" gradientUnits="userSpaceOnUse">
<stop stop-color="#BBBBBB"/>
<stop offset="1" stop-color="white"/>
</linearGradient>
<linearGradient id="paint53_linear_413_47238" x1="353.562" y1="555.6" x2="404.073" y2="555.6" gradientUnits="userSpaceOnUse">
<stop stop-color="#BBBBBB"/>
<stop offset="1" stop-color="#DDDDDD"/>
</linearGradient>
<linearGradient id="paint54_linear_413_47238" x1="353.563" y1="606.111" x2="353.563" y2="555.6" gradientUnits="userSpaceOnUse">
<stop stop-color="#DDDDDD"/>
<stop offset="1" stop-color="#BBBBBB"/>
</linearGradient>
<linearGradient id="paint55_linear_413_47238" x1="353.563" y1="555.6" x2="353.563" y2="505.089" gradientUnits="userSpaceOnUse">
<stop stop-color="white"/>
<stop offset="1" stop-color="#BBBBBB"/>
</linearGradient>
<linearGradient id="paint56_linear_413_47238" x1="202.037" y1="454.577" x2="252.548" y2="454.577" gradientUnits="userSpaceOnUse">
<stop stop-color="#BBBBBB"/>
<stop offset="1" stop-color="white"/>
</linearGradient>
<linearGradient id="paint57_linear_413_47238" x1="252.548" y1="454.577" x2="303.052" y2="454.577" gradientUnits="userSpaceOnUse">
<stop stop-color="#BBBBBB"/>
<stop offset="1" stop-color="#DDDDDD"/>
</linearGradient>
<linearGradient id="paint58_linear_413_47238" x1="252.548" y1="505.089" x2="252.548" y2="454.578" gradientUnits="userSpaceOnUse">
<stop stop-color="#DDDDDD"/>
<stop offset="1" stop-color="#BBBBBB"/>
</linearGradient>
<linearGradient id="paint59_linear_413_47238" x1="252.548" y1="454.577" x2="252.548" y2="404.073" gradientUnits="userSpaceOnUse">
<stop stop-color="white"/>
<stop offset="1" stop-color="#BBBBBB"/>
</linearGradient>
<linearGradient id="paint60_linear_413_47238" x1="303.052" y1="656.614" x2="353.563" y2="656.614" gradientUnits="userSpaceOnUse">
<stop stop-color="#BBBBBB"/>
<stop offset="1" stop-color="white"/>
</linearGradient>
<linearGradient id="paint61_linear_413_47238" x1="353.562" y1="656.614" x2="404.073" y2="656.614" gradientUnits="userSpaceOnUse">
<stop stop-color="#BBBBBB"/>
<stop offset="1" stop-color="#DDDDDD"/>
</linearGradient>
<linearGradient id="paint62_linear_413_47238" x1="353.563" y1="707.125" x2="353.563" y2="656.614" gradientUnits="userSpaceOnUse">
<stop stop-color="#DDDDDD"/>
<stop offset="1" stop-color="#BBBBBB"/>
</linearGradient>
<linearGradient id="paint63_linear_413_47238" x1="353.563" y1="656.614" x2="353.563" y2="606.11" gradientUnits="userSpaceOnUse">
<stop stop-color="white"/>
<stop offset="1" stop-color="#BBBBBB"/>
</linearGradient>
</defs>
</svg>
