<svg width="375" height="750" viewBox="0 0 375 750" fill="none" xmlns="http://www.w3.org/2000/svg">
<path d="M187.501 0H0V187.501H187.501V0Z" fill="#2E3233"/>
<path d="M187.501 375H0V562.501H187.501V375Z" fill="#2E3233"/>
<path d="M103.128 93.7539C103.128 140.347 140.908 178.127 187.501 178.127V9.37402C140.908 9.37402 103.128 47.1539 103.128 93.747V93.7539Z" fill="#E2E3DF"/>
<path d="M103.128 468.754C103.128 515.347 140.908 553.127 187.501 553.127V384.374C140.908 384.374 103.128 422.154 103.128 468.747V468.754Z" fill="#E2E3DF"/>
<path d="M0 9.37402V178.127C46.5931 178.127 84.373 140.347 84.373 93.7539C84.373 47.1608 46.5931 9.38094 0 9.38094V9.37402Z" fill="#515B5E"/>
<path d="M0 384.374V553.127C46.5931 553.127 84.373 515.347 84.373 468.754C84.373 422.161 46.5931 384.381 0 384.381V384.374Z" fill="#515B5E"/>
<path d="M375.002 0H187.501V187.501H375.002V0Z" fill="#CAF200"/>
<path d="M375.002 375H187.501V562.501H375.002V375Z" fill="#CAF200"/>
<path d="M290.629 93.7539C290.629 140.347 328.409 178.127 375.002 178.127V9.37402C328.409 9.37402 290.629 47.1539 290.629 93.747V93.7539Z" fill="#FFFEFC"/>
<path d="M290.629 468.754C290.629 515.347 328.409 553.127 375.002 553.127V384.374C328.409 384.374 290.629 422.154 290.629 468.747V468.754Z" fill="#FFFEFC"/>
<path d="M187.501 9.37402V178.127C234.094 178.127 271.874 140.347 271.874 93.7539C271.874 47.1608 234.094 9.38094 187.501 9.38094V9.37402Z" fill="#2E3233"/>
<path d="M187.501 384.374V553.127C234.094 553.127 271.874 515.347 271.874 468.754C271.874 422.161 234.094 384.381 187.501 384.381V384.374Z" fill="#2E3233"/>
<path d="M187.501 187.501H0V375.002H187.501V187.501Z" fill="#E2E3DF"/>
<path d="M187.501 562.501H0V750.002H187.501V562.501Z" fill="#E2E3DF"/>
<path d="M103.128 281.248C103.128 327.841 140.908 365.621 187.501 365.621V196.868C140.908 196.868 103.128 234.648 103.128 281.241V281.248Z" fill="#515B5E"/>
<path d="M103.128 656.248C103.128 702.841 140.908 740.621 187.501 740.621V571.868C140.908 571.868 103.128 609.648 103.128 656.241V656.248Z" fill="#515B5E"/>
<path d="M0 196.875V365.628C46.5931 365.628 84.373 327.848 84.373 281.255C84.373 234.662 46.5931 196.882 0 196.882V196.875Z" fill="#CAF200"/>
<path d="M0 571.875V740.628C46.5931 740.628 84.373 702.848 84.373 656.255C84.373 609.662 46.5931 571.882 0 571.882V571.875Z" fill="#CAF200"/>
<path d="M375.002 187.501H187.501V375.002H375.002V187.501Z" fill="#FFFEFC"/>
<path d="M375.002 562.501H187.501V750.002H375.002V562.501Z" fill="#FFFEFC"/>
<path d="M290.629 281.248C290.629 327.841 328.409 365.621 375.002 365.621V196.868C328.409 196.868 290.629 234.648 290.629 281.241V281.248Z" fill="#2E3233"/>
<path d="M290.629 656.248C290.629 702.841 328.409 740.621 375.002 740.621V571.868C328.409 571.868 290.629 609.648 290.629 656.241V656.248Z" fill="#2E3233"/>
<path d="M187.501 196.875V365.628C234.094 365.628 271.874 327.848 271.874 281.255C271.874 234.662 234.094 196.882 187.501 196.882V196.875Z" fill="#E2E3DF"/>
<path d="M187.501 571.875V740.628C234.094 740.628 271.874 702.848 271.874 656.255C271.874 609.662 234.094 571.882 187.501 571.882V571.875Z" fill="#E2E3DF"/>
</svg>
