<svg width="200" height="200" viewBox="0 0 200 200" fill="none" xmlns="http://www.w3.org/2000/svg">
<path d="M85 39.9999V63.7863L61.2136 39.9999H85ZM85 115L85 160H40L40 115L85 115ZM100 25L25 25L100 100L25 100L25 175H100L100 100L100 25Z" fill="#2C303C"/>
<path d="M160 115V138.786L136.214 115L160 115ZM175 100L100 100L175 175V100Z" fill="#2C303C"/>
<path d="M137.5 39.9999C149.906 39.9999 160 50.0937 160 62.5C160 74.9062 149.906 85.0001 137.5 85.0001C125.094 85.0001 115 74.9062 115 62.5C115 50.0937 125.094 39.9999 137.5 39.9999ZM137.5 25C116.792 25 100 41.7917 100 62.5C100 83.2083 116.792 100 137.5 100C158.208 100 175 83.2083 175 62.5C175 41.7917 158.208 25 137.5 25Z" fill="#2C303C"/>
</svg>
