<svg width="200" height="200" viewBox="0 0 200 200" fill="none" xmlns="http://www.w3.org/2000/svg">
<path d="M56.3944 174.99H27.3241C26.0412 174.99 25 173.949 25 172.666L25 143.596C25 142.313 26.0412 141.271 27.3241 141.271H56.3944C57.6773 141.271 58.7185 142.313 58.7185 143.596L58.7185 172.666C58.7185 173.949 57.6773 174.99 56.3944 174.99ZM29.6483 170.342H54.0702V145.92H29.6483L29.6483 170.342Z" fill="#2C303C"/>
<path d="M85.465 143.596H56.3945L56.3945 172.666H85.465V143.596Z" fill="#CAF200"/>
<path d="M85.4649 174.99H56.3945C55.1115 174.99 54.0703 173.949 54.0703 172.666L54.0703 143.596C54.0703 142.313 55.1115 141.271 56.3945 141.271H85.4649C86.7478 141.271 87.789 142.313 87.789 143.596V172.666C87.789 173.949 86.7478 174.99 85.4649 174.99ZM58.7186 170.342H83.1407V145.92H58.7186L58.7186 170.342Z" fill="#2C303C"/>
<path d="M114.535 174.99H85.4648C84.1818 174.99 83.1406 173.949 83.1406 172.666V143.596C83.1406 142.313 84.1818 141.271 85.4648 141.271H114.535C115.818 141.271 116.859 142.313 116.859 143.596V172.666C116.859 173.949 115.818 174.99 114.535 174.99ZM87.7889 170.342H112.211V145.92H87.7889V170.342Z" fill="#2C303C"/>
<path d="M143.606 143.596H114.535V172.666H143.606V143.596Z" fill="#CAF200"/>
<path d="M143.606 174.99H114.535C113.252 174.99 112.211 173.949 112.211 172.666V143.596C112.211 142.313 113.252 141.271 114.535 141.271H143.606C144.888 141.271 145.93 142.313 145.93 143.596V172.666C145.93 173.949 144.888 174.99 143.606 174.99ZM116.859 170.342H141.281V145.92H116.859V170.342Z" fill="#2C303C"/>
<path d="M172.676 174.99H143.605C142.322 174.99 141.281 173.949 141.281 172.666V143.596C141.281 142.313 142.322 141.271 143.605 141.271H172.676C173.959 141.271 175 142.313 175 143.596V172.666C175 173.949 173.959 174.99 172.676 174.99ZM145.93 170.342H170.352V145.92H145.93V170.342Z" fill="#2C303C"/>
<path d="M85.4649 145.92H56.3945C55.1115 145.92 54.0703 144.879 54.0703 143.596L54.0703 114.525C54.0703 113.242 55.1115 112.201 56.3945 112.201H85.4649C86.7478 112.201 87.789 113.242 87.789 114.525V143.596C87.789 144.879 86.7478 145.92 85.4649 145.92ZM58.7186 141.272H83.1407V116.849H58.7186L58.7186 141.272Z" fill="#2C303C"/>
<path d="M114.535 114.535H85.4648V143.606H114.535V114.535Z" fill="#CAF200"/>
<path d="M114.535 145.92H85.4648C84.1818 145.92 83.1406 144.879 83.1406 143.596V114.525C83.1406 113.242 84.1818 112.201 85.4648 112.201H114.535C115.818 112.201 116.859 113.242 116.859 114.525V143.596C116.859 144.879 115.818 145.92 114.535 145.92ZM87.7889 141.272H112.211V116.849H87.7889V141.272Z" fill="#2C303C"/>
<path d="M143.606 145.92H114.535C113.252 145.92 112.211 144.879 112.211 143.596V114.525C112.211 113.242 113.252 112.201 114.535 112.201H143.606C144.888 112.201 145.93 113.242 145.93 114.525V143.596C145.93 144.879 144.888 145.92 143.606 145.92ZM116.859 141.272H141.281V116.849H116.859V141.272Z" fill="#2C303C"/>
<path d="M172.676 114.535H143.605V143.606H172.676V114.535Z" fill="#CAF200"/>
<path d="M172.676 145.92H143.605C142.322 145.92 141.281 144.879 141.281 143.596V114.525C141.281 113.242 142.322 112.201 143.605 112.201H172.676C173.959 112.201 175 113.242 175 114.525V143.596C175 144.879 173.959 145.92 172.676 145.92ZM145.93 141.272H170.352V116.849H145.93V141.272Z" fill="#2C303C"/>
<path d="M114.535 116.859H85.4648C84.1818 116.859 83.1406 115.818 83.1406 114.535V85.4648C83.1406 84.1818 84.1818 83.1406 85.4648 83.1406H114.535C115.818 83.1406 116.859 84.1818 116.859 85.4648V114.535C116.859 115.818 115.818 116.859 114.535 116.859ZM87.7889 112.211H112.211V87.7889H87.7889V112.211Z" fill="#2C303C"/>
<path d="M143.606 85.4648H114.535V114.535H143.606V85.4648Z" fill="#CAF200"/>
<path d="M143.606 116.859H114.535C113.252 116.859 112.211 115.818 112.211 114.535V85.4648C112.211 84.1818 113.252 83.1406 114.535 83.1406H143.606C144.888 83.1406 145.93 84.1818 145.93 85.4648V114.535C145.93 115.818 144.888 116.859 143.606 116.859ZM116.859 112.211H141.281V87.7889H116.859V112.211Z" fill="#2C303C"/>
<path d="M172.676 116.859H143.605C142.322 116.859 141.281 115.818 141.281 114.535V85.4648C141.281 84.1818 142.322 83.1406 143.605 83.1406H172.676C173.959 83.1406 175 84.1818 175 85.4648V114.535C175 115.818 173.959 116.859 172.676 116.859ZM145.93 112.211H170.352V87.7889H145.93V112.211Z" fill="#2C303C"/>
<path d="M143.606 87.789H114.535C113.252 87.789 112.211 86.7478 112.211 85.4649V56.3945C112.211 55.1115 113.252 54.0703 114.535 54.0703L143.606 54.0703C144.888 54.0703 145.93 55.1115 145.93 56.3945V85.4649C145.93 86.7478 144.888 87.789 143.606 87.789ZM116.859 83.1407H141.281V58.7186L116.859 58.7186V83.1407Z" fill="#2C303C"/>
<path d="M172.676 56.3945L143.605 56.3945V85.465H172.676V56.3945Z" fill="#CAF200"/>
<path d="M172.676 87.789H143.605C142.322 87.789 141.281 86.7478 141.281 85.4649V56.3945C141.281 55.1115 142.322 54.0703 143.605 54.0703L172.676 54.0703C173.959 54.0703 175 55.1115 175 56.3945V85.4649C175 86.7478 173.959 87.789 172.676 87.789ZM145.93 83.1407H170.352V58.7186L145.93 58.7186V83.1407Z" fill="#2C303C"/>
<path d="M172.676 58.7187L143.605 58.7187C142.322 58.7187 141.281 57.6775 141.281 56.3946V27.3241C141.281 26.0412 142.322 25 143.605 25L172.676 25C173.959 25 175 26.0412 175 27.3241V56.3946C175 57.6775 173.959 58.7187 172.676 58.7187ZM145.93 54.0704H170.352V29.6483L145.93 29.6483V54.0704Z" fill="#2C303C"/>
</svg>
