<svg width="200" height="200" viewBox="0 0 200 200" fill="none" xmlns="http://www.w3.org/2000/svg">
<path d="M45.2366 88.5156C27.828 98.8387 21.8867 121.256 32.0403 138.834C42.1854 156.404 64.569 162.481 82.2148 152.556V152.573L154.655 110.755V110.738C172.156 100.449 178.123 77.9636 167.953 60.3686C157.79 42.7567 135.339 36.6882 117.676 46.6977L45.2451 88.5156H45.2366Z" fill="#CAF200"/>
<path d="M64.085 159.43C50.1429 159.43 37.167 151.946 30.2087 139.894C19.5805 121.485 25.7845 97.6859 44.0322 86.7696C44.083 86.7357 44.1338 86.7018 44.1847 86.6764L116.616 44.8586C122.515 41.5193 129.176 39.7563 135.906 39.7563C149.848 39.7563 162.832 47.2486 169.791 59.3091C180.444 77.7517 174.232 101.525 155.95 112.433C155.874 112.493 155.798 112.543 155.722 112.586L83.2902 154.404C83.1885 154.463 83.0869 154.505 82.9852 154.548C77.1965 157.743 70.6704 159.43 64.0934 159.43H64.085ZM46.4306 90.2699C46.4306 90.2699 46.3544 90.3209 46.3205 90.3378C29.9544 100.042 24.3691 121.316 33.8786 137.775C40.0826 148.522 51.66 155.192 64.085 155.192C70.0432 155.192 75.9505 153.641 81.1714 150.7C81.2561 150.649 81.3409 150.615 81.4257 150.581L153.374 109.043C153.442 108.992 153.501 108.95 153.577 108.907C170.028 99.2369 175.656 77.9381 166.121 61.4195C159.917 50.6642 148.339 43.9856 135.906 43.9856C129.914 43.9856 123.972 45.562 118.718 48.5284L46.4306 90.2615V90.2699Z" fill="#2C303C"/>
<path d="M100.013 180.186H99.9964C78.6892 180.186 61.2212 162.921 60.9076 141.64C60.8906 141.546 60.8906 141.453 60.8906 141.351L60.8906 57.7157C60.8906 57.6056 60.8991 57.487 60.9161 57.3768C61.3229 36.1882 78.7824 19.0085 99.9964 19C121.253 19 138.763 36.2729 139.085 57.5293C139.085 57.5886 139.085 57.648 139.085 57.7074V141.343C138.916 162.76 121.38 180.169 99.9964 180.169L100.013 180.186ZM65.1283 141.097C65.1368 141.182 65.1453 141.258 65.1453 141.343C65.2894 160.421 80.9267 175.948 99.9879 175.948H100.013C119.074 175.948 134.712 160.421 134.864 141.343V57.8768C134.864 57.8345 134.864 57.7921 134.864 57.7497C134.644 38.7308 119.007 23.2547 100.013 23.2547C81.0028 23.2547 65.3742 38.7308 65.1623 57.7497C65.1623 57.8429 65.1623 57.9361 65.1368 58.0293L65.1368 141.106L65.1283 141.097Z" fill="#2C303C"/>
<path d="M135.906 159.421C129.278 159.421 122.701 157.709 116.878 154.463C116.828 154.437 116.768 154.412 116.717 154.378L44.2861 112.56C25.8181 101.703 19.5125 77.811 30.2085 59.2837C37.1669 47.2231 50.1512 39.7393 64.0933 39.7393C70.7381 39.7393 77.315 41.4598 83.1461 44.7143C83.2308 44.7482 83.3156 44.7906 83.3919 44.833L155.823 86.6508C155.925 86.7101 156.009 86.7695 156.103 86.8373C174.249 97.7791 180.402 121.502 169.799 139.868C162.841 151.92 149.856 159.413 135.914 159.413L135.906 159.421ZM118.701 150.632C118.701 150.632 118.777 150.674 118.819 150.691C124.04 153.624 129.947 155.175 135.906 155.175C148.339 155.175 159.917 148.496 166.121 137.749C175.622 121.29 170.036 100.017 153.67 90.3207C153.585 90.2699 153.509 90.219 153.441 90.1596L81.4849 48.6215C81.4086 48.5876 81.3408 48.5537 81.273 48.5198C76.0267 45.5449 70.0854 43.9685 64.0933 43.9685C51.6598 43.9685 40.0825 50.6472 33.8785 61.394C24.3351 77.9042 29.9626 99.2114 46.4219 108.89L118.709 150.623L118.701 150.632Z" fill="#2C303C"/>
</svg>
