<svg width="200" height="200" viewBox="0 0 200 200" fill="none" xmlns="http://www.w3.org/2000/svg">
<path d="M85.6539 146.14C85.1663 146.14 84.6787 145.957 84.3053 145.584L25.5563 86.8344C25.1982 86.4763 25 85.9887 25 85.4859C25 84.9831 25.2057 84.4954 25.5638 84.1373L84.4806 25.5635C84.8386 25.2054 85.3186 25.0073 85.8215 25.0073L114.286 25.0073C115.055 25.0073 115.748 25.4721 116.045 26.1882C116.343 26.9044 116.175 27.7196 115.626 28.2682L58.0659 85.4935L100.564 129.363C101.288 130.11 101.28 131.298 100.541 132.037L86.9872 145.591C86.6139 145.964 86.1262 146.147 85.6386 146.147L85.6539 146.14ZM29.6018 85.4935L85.6539 141.545L96.5336 130.666L54.028 86.7963C53.3042 86.0497 53.3117 84.8535 54.0507 84.1221L109.668 28.8243L86.6063 28.8243L29.6018 85.5011V85.4935Z" fill="#2C303C"/>
<path d="M172.805 114.3V85.8288L114.232 26.9121L55.4824 85.6612L69.0364 99.2151L114.254 55.4066L172.805 114.3Z" fill="#CAF200"/>
<path d="M172.806 116.205C172.31 116.205 171.823 116.007 171.457 115.642L114.232 58.0811L70.3624 100.579C69.6158 101.303 68.4272 101.295 67.6882 100.556L54.1342 87.0023C53.3876 86.2557 53.3876 85.0519 54.1342 84.3052L112.883 25.5562C113.241 25.1981 113.721 25 114.232 25C114.735 25 115.222 25.2057 115.58 25.5638L174.154 84.4805C174.512 84.8386 174.71 85.3185 174.71 85.8214V114.293C174.71 115.063 174.246 115.756 173.53 116.053C173.293 116.152 173.049 116.198 172.806 116.198V116.205ZM114.255 53.5022C114.742 53.5022 115.23 53.6926 115.603 54.066L170.901 109.684V86.6214L114.224 29.617L58.1722 85.669L69.052 96.5488L112.921 54.0431C113.295 53.685 113.767 53.5098 114.247 53.5098L114.255 53.5022Z" fill="#2C303C"/>
<path d="M114.164 174.139H85.7002C84.9307 174.139 84.2374 173.674 83.9403 172.958C83.6431 172.242 83.8107 171.427 84.3593 170.878L141.92 113.653L99.4218 69.7833C98.698 69.0366 98.7056 67.8481 99.4447 67.1091L112.999 53.5551C113.745 52.8085 114.949 52.8085 115.696 53.5551L174.445 112.304C174.803 112.662 175.001 113.15 175.001 113.653C175.001 114.156 174.795 114.643 174.437 115.001L115.52 173.575C115.162 173.933 114.682 174.131 114.18 174.131L114.164 174.139ZM90.3173 170.33H113.38L170.384 113.653L114.332 57.6007L103.452 68.4805L145.958 112.358C146.682 113.104 146.674 114.3 145.935 115.032L90.3173 170.33Z" fill="#2C303C"/>
<path d="M85.6153 174.139C85.1125 174.139 84.6248 173.933 84.2667 173.575L25.6929 114.659C25.3348 114.3 25.1367 113.821 25.1367 113.318L25.1367 84.8535C25.1367 84.084 25.6015 83.3907 26.3177 83.0936C27.0339 82.7965 27.8491 82.9641 28.3976 83.5126L85.6229 141.073L129.492 98.5751C130.239 97.8513 131.428 97.8589 132.167 98.598L145.721 112.152C146.467 112.899 146.467 114.102 145.721 114.849L86.9715 173.598C86.6134 173.956 86.1334 174.154 85.6229 174.154L85.6153 174.139ZM28.9462 112.533L85.6229 169.537L141.675 113.485L130.795 102.605L86.9257 145.111C86.1791 145.835 84.9829 145.827 84.2515 145.088L28.9538 89.4706L28.9538 112.533H28.9462Z" fill="#2C303C"/>
</svg>
