<svg width="200" height="200" viewBox="0 0 200 200" fill="none" xmlns="http://www.w3.org/2000/svg">
<path d="M26.2376 25.0001L25 25.0001L25 175L26.2376 175L173.762 175L175 175L175 25.0001L173.762 25.0001L26.2376 25.0001ZM53.4143 27.8273L172.173 146.591L172.173 160.939L39.0612 27.8273L53.4143 27.8273ZM57.6503 27.8273L72.0033 27.8273L172.173 128.002L172.173 142.35L57.6503 27.8273ZM76.2393 27.8273L90.5873 27.8273L172.173 109.413L172.173 123.761L76.2393 27.8273ZM94.8283 27.8273L110.273 27.8273L172.173 89.727L172.173 105.172L94.8283 27.8273ZM114.514 27.8273L128.862 27.8273L172.178 71.143L172.178 85.491L114.519 27.8324L114.514 27.8273ZM133.103 27.8273L147.451 27.8273L172.178 52.5541L172.178 66.9021L133.103 27.8273ZM151.692 27.8273L166.04 27.8273L172.178 33.965L172.178 48.313L151.692 27.8273ZM170.281 27.8273L172.178 27.8273L172.178 29.7239L170.281 27.8273ZM34.8302 27.8273L172.178 165.175L172.178 172.168L164.823 172.168L94.7126 102.058L27.8324 35.1775L27.8324 27.8224L34.8302 27.8224L34.8302 27.8273ZM146.234 172.173L27.8324 53.7716L27.8324 39.4184L160.582 172.173L146.234 172.173ZM141.993 172.173L127.645 172.173L27.8324 72.3604L27.8324 58.0124L141.993 172.178L141.993 172.173ZM123.404 172.173L109.056 172.173L27.8324 90.9496L27.8324 76.6015L123.404 172.178L123.404 172.173ZM104.815 172.173L89.3698 172.173L27.8273 110.63L27.8273 95.1855L104.815 172.173ZM85.1339 172.173L70.7858 172.173L27.8324 129.219L27.8324 114.871L85.1339 172.173ZM66.5498 172.173L52.2018 172.173L27.8374 147.808L27.8374 133.46L66.5549 172.173L66.5498 172.173ZM47.9608 172.173L33.6128 172.173L27.8374 166.397L27.8374 152.049L47.9659 172.173L47.9608 172.173ZM29.3718 172.173L27.8324 172.173L27.8324 170.633L29.3718 172.173Z" fill="#2C303C"/>
</svg>
