<svg width="500" height="250" viewBox="0 0 500 250" fill="none" xmlns="http://www.w3.org/2000/svg">
<path d="M124.997 0V99.9972L166.66 125.003L249.993 74.9979L124.997 0Z" fill="#CDFF00"/>
<path d="M166.66 125.004L124.997 150.003V250L249.993 175.002V74.998L166.66 125.004Z" fill="#A4ABBF"/>
<path d="M0 74.9979L83.3332 125.003L124.997 99.9972V0L0 74.9979Z" fill="#CCC9D1"/>
<path d="M83.3332 125.004L0 74.998V175.002L124.997 250V150.003L83.3332 125.004Z" fill="#E2E1E9"/>
<path d="M374.99 0V99.9972L416.653 125.003L499.993 74.9979L374.99 0Z" fill="#5F6273"/>
<path d="M416.653 125.004L374.99 150.003V250L499.993 175.002V74.998L416.653 125.004Z" fill="#CDFF00"/>
<path d="M249.993 74.9979L333.333 125.003L374.99 99.9972V0L249.993 74.9979Z" fill="#A4ABBF"/>
<path d="M333.333 125.004L249.993 74.998V175.002L374.99 250V150.003L333.333 125.004Z" fill="#CCC9D1"/>
</svg>
