<svg width="200" height="200" viewBox="0 0 200 200" fill="none" xmlns="http://www.w3.org/2000/svg">
<path d="M134.672 152.975L134.446 152.829C127.149 148.263 117.717 148.263 110.412 152.829L110.186 152.975C103.759 156.994 95.4543 156.994 89.0268 152.975L88.8013 152.829C81.5038 148.263 72.0719 148.263 64.7664 152.829L64.5409 152.975C59.6357 156.043 53.6512 156.76 48.2305 155.149C49.487 156.349 50.7837 157.501 52.1288 158.613C56.9133 158.999 61.8024 157.888 65.9827 155.27L66.2082 155.125C72.6358 151.106 80.94 151.106 87.3675 155.125L87.5931 155.27C94.8905 159.837 104.322 159.837 111.628 155.27L111.853 155.125C118.281 151.106 126.585 151.106 133.013 155.125L133.238 155.27C137.684 158.049 142.92 159.128 147.986 158.524C149.428 157.324 150.821 156.067 152.166 154.763C146.448 156.857 139.932 156.269 134.672 152.975Z" fill="#2C303C"/>
<path d="M45.8538 48.9014C52.4102 51.3902 59.917 50.7539 65.974 46.9682L66.1996 46.8233C72.6271 42.804 80.9313 42.804 87.3589 46.8233L87.5844 46.9682C94.8818 51.5352 104.314 51.5352 111.619 46.9682L111.845 46.8233C118.272 42.804 126.577 42.804 133.004 46.8233L133.23 46.9682C139.456 50.8666 147.228 51.4224 153.914 48.6758C153.229 47.967 152.528 47.2663 151.811 46.5816C146.181 48.5308 139.818 47.8945 134.663 44.6727L134.438 44.5277C127.14 39.9608 117.708 39.9608 110.403 44.5277L110.177 44.6727C103.75 48.6919 95.4457 48.6919 89.0181 44.6727L88.7926 44.5277C81.4952 39.9608 72.0633 39.9608 64.7578 44.5277L64.5323 44.6727C59.5546 47.7818 53.4573 48.4744 47.9721 46.7669C47.2472 47.4596 46.5384 48.1684 45.8457 48.8933L45.8538 48.9014Z" fill="#2C303C"/>
<path d="M87.3583 33.2918L87.5839 33.4368C94.8813 38.0038 104.313 38.0038 111.619 33.4368L111.844 33.2918C116.371 30.4647 121.824 29.6351 126.898 30.7869C124.023 29.6834 121.067 28.7491 118.038 28C115.372 28.5235 112.779 29.5143 110.41 30.9963L110.185 31.1413C103.757 35.1605 95.4531 35.1605 89.0256 31.1413L88.8001 30.9963C86.5609 29.5948 84.1204 28.6282 81.6074 28.0886C78.9736 28.7571 76.388 29.5545 73.875 30.4969C78.4903 29.8203 83.3069 30.7547 87.3744 33.2999L87.3583 33.2918Z" fill="#2C303C"/>
<path d="M155.822 58.2123C149.394 62.2315 141.09 62.2315 134.662 58.2123L134.437 58.0673C127.139 53.5004 117.708 53.5004 110.402 58.0673L110.177 58.2123C103.749 62.2315 95.4448 62.2315 89.0173 58.2123L88.7918 58.0673C81.4943 53.5004 72.0624 53.5004 64.757 58.0673L64.5315 58.2123C58.1039 62.2315 49.7997 62.2315 43.3721 58.2123L43.1466 58.0673C42.019 57.3585 40.835 56.7785 39.6187 56.2872C39.071 57.0363 38.5314 57.7854 38.0078 58.5586C39.2885 59.0258 40.5369 59.6218 41.7129 60.3628L41.9384 60.5078C49.2359 65.0747 58.6677 65.0747 65.9732 60.5078L66.1988 60.3628C72.6263 56.3436 80.9305 56.3436 87.358 60.3628L87.5836 60.5078C94.881 65.0747 104.313 65.0747 111.618 60.5078L111.844 60.3628C118.271 56.3436 126.576 56.3436 133.003 60.3628L133.229 60.5078C140.526 65.0747 149.958 65.0747 157.255 60.5078L157.481 60.3628C158.85 59.501 160.316 58.8405 161.822 58.3492C161.291 57.5759 160.743 56.8027 160.179 56.0456C158.746 56.5691 157.36 57.2457 156.047 58.0673L155.822 58.2123Z" fill="#2C303C"/>
<path d="M134.671 166.506L134.445 166.361C127.148 161.794 117.716 161.794 110.411 166.361L110.185 166.506C103.758 170.525 95.4533 170.525 89.0258 166.506L88.8003 166.361C81.5028 161.794 72.0709 161.794 64.7654 166.361L64.5399 166.506C64.403 166.595 64.258 166.667 64.1211 166.748C65.0554 167.255 66.0059 167.747 66.9644 168.222C73.2791 164.654 81.1887 164.799 87.3665 168.665L87.5921 168.81C94.8895 173.377 104.321 173.377 111.627 168.81L111.852 168.665C118.151 164.726 126.246 164.654 132.609 168.431C133.576 167.964 134.526 167.473 135.468 166.965C135.203 166.812 134.929 166.667 134.671 166.506Z" fill="#2C303C"/>
<path d="M156.057 125.758L155.831 125.903C149.403 129.922 141.099 129.922 134.672 125.903L134.446 125.758C127.149 121.191 117.717 121.191 110.411 125.758L110.186 125.903C103.758 129.922 95.454 129.922 89.0265 125.903L88.801 125.758C81.5035 121.191 72.0716 121.191 64.7662 125.758L64.5407 125.903C58.1131 129.922 49.8089 129.922 43.3813 125.903L43.1558 125.758C38.6372 122.931 33.3051 121.86 28.1582 122.528C28.424 123.414 28.706 124.292 29.004 125.162C33.3776 124.695 37.8801 125.654 41.7221 128.054L41.9476 128.199C49.2451 132.766 58.6769 132.766 65.9824 128.199L66.208 128.054C72.6355 124.035 80.9397 124.035 87.3672 128.054L87.5928 128.199C94.8902 132.766 104.322 132.766 111.628 128.199L111.853 128.054C118.281 124.035 126.585 124.035 133.012 128.054L133.238 128.199C140.535 132.766 149.967 132.766 157.265 128.199L157.49 128.054C161.55 125.517 166.35 124.582 170.957 125.251C171.255 124.389 171.529 123.527 171.795 122.649C166.423 121.763 160.793 122.794 156.048 125.758H156.057Z" fill="#2C303C"/>
<path d="M156.056 98.6786L155.83 98.8236C149.403 102.843 141.098 102.843 134.671 98.8236L134.445 98.6786C127.148 94.1117 117.716 94.1117 110.411 98.6786L110.185 98.8236C103.757 102.843 95.4532 102.843 89.0256 98.8236L88.8001 98.6786C81.5027 94.1117 72.0708 94.1117 64.7653 98.6786L64.5398 98.8236C58.1123 102.843 49.808 102.843 43.3805 98.8236L43.155 98.6786C37.7423 95.2876 31.1457 94.4178 25.1289 96.0609C25.0725 97.0113 25.0242 97.9698 25 98.9283C30.5254 97.1563 36.6952 97.8248 41.7213 100.974L41.9468 101.119C49.2442 105.686 58.6761 105.686 65.9816 101.119L66.2071 100.974C72.6347 96.9549 80.9389 96.9549 87.3664 100.974L87.592 101.119C94.8894 105.686 104.321 105.686 111.627 101.119L111.852 100.974C118.28 96.9549 126.584 96.9549 133.012 100.974L133.237 101.119C140.535 105.686 149.966 105.686 157.264 101.119L157.489 100.974C162.757 97.6798 169.281 97.0919 175 99.1941C174.976 98.2276 174.936 97.261 174.879 96.3025C168.645 94.3533 161.71 95.1346 156.056 98.6786Z" fill="#2C303C"/>
<path d="M155.822 71.7518C149.394 75.771 141.09 75.771 134.662 71.7518L134.437 71.6068C127.139 67.0399 117.708 67.0399 110.402 71.6068L110.177 71.7518C103.749 75.771 95.4448 75.771 89.0173 71.7518L88.7917 71.6068C81.4943 67.0399 72.0624 67.0399 64.7569 71.6068L64.5314 71.7518C58.1039 75.771 49.7996 75.771 43.3721 71.7518L43.1466 71.6068C39.8684 69.5529 36.1552 68.4333 32.4018 68.2239C31.9749 69.1019 31.5722 69.9879 31.1855 70.89C34.8504 70.898 38.5152 71.9048 41.7129 73.9024L41.9384 74.0473C49.2358 78.6143 58.6677 78.6143 65.9732 74.0473L66.1987 73.9024C72.6263 69.8831 80.9305 69.8831 87.358 73.9024L87.5836 74.0473C94.881 78.6143 104.313 78.6143 111.618 74.0473L111.844 73.9024C118.271 69.8831 126.576 69.8831 133.003 73.9024L133.229 74.0473C140.526 78.6143 149.958 78.6143 157.255 74.0473L157.481 73.9024C160.912 71.7599 164.867 70.7692 168.798 70.9142C168.403 70.004 167.992 69.0938 167.557 68.1998C163.546 68.2884 159.551 69.416 156.047 71.6068L155.822 71.7518Z" fill="#2C303C"/>
<path d="M156.056 85.147L155.831 85.292C149.403 89.3112 141.099 89.3112 134.672 85.292L134.446 85.147C127.149 80.5801 117.717 80.5801 110.411 85.147L110.186 85.292C103.758 89.3112 95.4539 89.3112 89.0263 85.292L88.8008 85.147C81.5034 80.5801 72.0715 80.5801 64.766 85.147L64.5405 85.292C58.113 89.3112 49.8087 89.3112 43.3812 85.292L43.1557 85.147C38.3954 82.1668 32.7331 81.1438 27.3446 82.054C27.0949 83.0045 26.8774 83.971 26.668 84.9376C31.7423 83.7858 37.1953 84.6154 41.7219 87.4425L41.9475 87.5875C49.2449 92.1544 58.6768 92.1544 65.9822 87.5875L66.2078 87.4425C72.6353 83.4233 80.9395 83.4233 87.3671 87.4425L87.5926 87.5875C94.8901 92.1544 104.322 92.1544 111.627 87.5875L111.853 87.4425C118.28 83.4233 126.585 83.4233 133.012 87.4425L133.238 87.5875C140.535 92.1544 149.967 92.1544 157.265 87.5875L157.49 87.4425C162.258 84.4623 168.066 83.6972 173.366 85.1389C173.156 84.1482 172.931 83.1656 172.681 82.191C167.051 81.0311 161.05 82.0138 156.056 85.147Z" fill="#2C303C"/>
<path d="M155.822 139.434C149.394 143.454 141.09 143.454 134.663 139.434L134.437 139.289C127.14 134.723 117.708 134.723 110.402 139.289L110.177 139.434C103.749 143.454 95.445 143.454 89.0174 139.434L88.7919 139.289C81.4945 134.723 72.0626 134.723 64.7571 139.289L64.5316 139.434C58.104 143.454 49.7998 143.454 43.3722 139.434L43.1467 139.289C40.2471 137.477 37.0172 136.398 33.7148 136.019C34.2545 137.034 34.8183 138.041 35.4063 139.024C37.6132 139.499 39.7477 140.353 41.713 141.577L41.9386 141.722C49.236 146.289 58.6678 146.289 65.9733 141.722L66.1989 141.577C72.6264 137.558 80.9306 137.558 87.3582 141.577L87.5837 141.722C94.8811 146.289 104.313 146.289 111.619 141.722L111.844 141.577C118.272 137.558 126.576 137.558 133.003 141.577L133.229 141.722C140.526 146.289 149.958 146.289 157.256 141.722L157.481 141.577C159.704 140.184 162.153 139.289 164.666 138.863C165.23 137.896 165.777 136.921 166.309 135.931C162.717 136.205 159.189 137.316 156.047 139.281L155.822 139.426V139.434Z" fill="#2C303C"/>
<path d="M156.057 112.218L155.831 112.363C149.404 116.382 141.1 116.382 134.672 112.363L134.447 112.218C127.149 107.651 117.717 107.651 110.412 112.218L110.186 112.363C103.759 116.382 95.4545 116.382 89.027 112.363L88.8015 112.218C81.504 107.651 72.0721 107.651 64.7667 112.218L64.5412 112.363C58.1136 116.382 49.8094 116.382 43.3818 112.363L43.1563 112.218C37.8403 108.892 31.4047 108.006 25.4766 109.52C25.5813 110.422 25.694 111.324 25.831 112.218C31.1389 110.768 36.9462 111.534 41.7226 114.514L41.9481 114.659C49.2456 119.226 58.6774 119.226 65.9829 114.659L66.2085 114.514C72.636 110.495 80.9402 110.495 87.3677 114.514L87.5933 114.659C94.8907 119.226 104.323 119.226 111.628 114.659L111.854 114.514C118.281 110.495 126.585 110.495 133.013 114.514L133.238 114.659C140.536 119.226 149.968 119.226 157.265 114.659L157.491 114.514C162.493 111.389 168.622 110.704 174.131 112.444C174.268 111.542 174.389 110.631 174.502 109.721C168.372 107.925 161.599 108.755 156.057 112.218Z" fill="#2C303C"/>
</svg>
