<svg width="200" height="200" viewBox="0 0 200 200" fill="none" xmlns="http://www.w3.org/2000/svg">
<path d="M149.104 100.902L99.9977 139.267L50.8965 100.902L99.9977 62.5366L149.104 100.902Z" fill="#CAF200"/>
<path d="M99.9974 140.612C99.7068 140.612 99.4108 140.515 99.1686 140.327L50.0674 101.962C49.7391 101.709 49.5508 101.316 49.5508 100.902C49.5508 100.487 49.7391 100.094 50.0674 99.8416L99.1686 61.4765C99.653 61.0944 100.336 61.0944 100.826 61.4765L149.927 99.8416C150.256 100.094 150.444 100.487 150.444 100.902C150.444 101.316 150.256 101.709 149.927 101.962L100.826 140.327C100.584 140.515 100.288 140.612 99.9974 140.612ZM53.081 100.902L99.9974 137.561L146.914 100.902L99.9974 64.2426L53.081 100.902Z" fill="#2C303C"/>
<path d="M99.9983 132.352C99.7077 132.352 99.4117 132.255 99.1696 132.066L60.6377 101.962C60.3094 101.709 60.1211 101.316 60.1211 100.902C60.1211 100.487 60.3094 100.095 60.6377 99.8416L99.1696 69.7373C99.6539 69.3552 100.337 69.3552 100.827 69.7373L139.359 99.8416C139.687 100.095 139.876 100.487 139.876 100.902C139.876 101.316 139.687 101.709 139.359 101.962L100.827 132.066C100.585 132.255 100.289 132.352 99.9983 132.352ZM63.6514 100.902L99.9983 129.3L136.345 100.902L99.9983 72.5034L63.6514 100.902Z" fill="#2C303C"/>
<path d="M75.4466 140.612C75.156 140.612 74.86 140.515 74.6178 140.327L25.5166 101.962C25.1883 101.709 25 101.316 25 100.902C25 100.487 25.1883 100.094 25.5166 99.8416L74.6178 61.4765C75.1022 61.0944 75.7857 61.0944 76.2754 61.4765L125.377 99.8416C125.705 100.094 125.893 100.487 125.893 100.902C125.893 101.316 125.705 101.709 125.377 101.962L76.2754 140.327C76.0332 140.515 75.7372 140.612 75.4466 140.612ZM28.5303 100.902L75.4466 137.561L122.363 100.902L75.4466 64.2426L28.5303 100.902Z" fill="#2C303C"/>
<path d="M124.548 140.612C124.258 140.612 123.962 140.515 123.719 140.327L74.6182 101.962C74.2899 101.709 74.1016 101.316 74.1016 100.902C74.1016 100.487 74.2899 100.094 74.6182 99.8416L123.719 61.4765C124.204 61.0944 124.887 61.0944 125.377 61.4765L174.478 99.8416C174.806 100.094 174.995 100.487 174.995 100.902C174.995 101.316 174.806 101.709 174.478 101.962L125.377 140.327C125.135 140.515 124.839 140.612 124.548 140.612ZM77.6318 100.902L124.548 137.561L171.465 100.902L124.548 64.2426L77.6318 100.902Z" fill="#2C303C"/>
<path d="M173.655 102.247L26.3512 102.247C25.6086 102.247 25.0059 101.644 25.0059 100.902C25.0059 100.159 25.6086 99.5562 26.3512 99.5562L173.655 99.5562C174.398 99.5562 175 100.159 175 100.902C175 101.644 174.398 102.247 173.655 102.247Z" fill="#2C303C"/>
<path d="M103.409 61.8655C107.953 59.9831 110.111 54.7731 108.229 50.2287C106.346 45.6842 101.136 43.5261 96.5918 45.4085C92.0473 47.2909 89.8893 52.5009 91.7716 57.0454C93.654 61.5899 98.864 63.7479 103.409 61.8655Z" fill="#CAF200"/>
<path d="M99.998 63.8816C94.3473 63.8816 89.7461 59.2804 89.7461 53.6298C89.7461 47.9792 94.342 43.3779 99.998 43.3779C105.654 43.3779 110.25 47.9738 110.25 53.6298C110.25 59.2858 105.654 63.8816 99.998 63.8816ZM99.998 46.0687C95.8273 46.0687 92.4369 49.4591 92.4369 53.6298C92.4369 57.8005 95.8273 61.1909 99.998 61.1909C104.169 61.1909 107.559 57.8005 107.559 53.6298C107.559 49.4591 104.169 46.0687 99.998 46.0687Z" fill="#2C303C"/>
<path d="M99.9963 157.08C104.915 157.08 108.903 153.092 108.903 148.173C108.903 143.254 104.915 139.267 99.9963 139.267C95.0774 139.267 91.0898 143.254 91.0898 148.173C91.0898 153.092 95.0774 157.08 99.9963 157.08Z" fill="#CAF200"/>
<path d="M99.998 158.42C94.3473 158.42 89.7461 153.824 89.7461 148.168C89.7461 142.512 94.342 137.916 99.998 137.916C105.654 137.916 110.25 142.512 110.25 148.168C110.25 153.824 105.654 158.42 99.998 158.42ZM99.998 140.607C95.8273 140.607 92.4369 143.997 92.4369 148.168C92.4369 152.339 95.8273 155.729 99.998 155.729C104.169 155.729 107.559 152.339 107.559 148.168C107.559 143.997 104.169 140.607 99.998 140.607Z" fill="#2C303C"/>
</svg>
