<svg width="200" height="200" viewBox="0 0 200 200" fill="none" xmlns="http://www.w3.org/2000/svg">
<path d="M99.997 138.31C99.3529 138.31 98.7522 137.962 98.4338 137.405L40.8771 37.7139C40.5514 37.1567 40.5514 36.4619 40.8771 35.9046C41.2027 35.3474 41.7962 35 42.4403 35L157.554 35C158.198 35 158.799 35.3474 159.117 35.9046C159.443 36.4619 159.443 37.1567 159.117 37.7139L101.56 137.405C101.235 137.962 100.641 138.31 99.9898 138.31H99.997ZM45.5739 38.6186L99.997 132.882L154.42 38.6186L45.5739 38.6186Z" fill="#2C303C"/>
<path d="M173.199 63.97L115.643 163.661L58.0859 63.97L173.199 63.97Z" fill="#CAF200"/>
<path d="M115.643 165.47C114.999 165.47 114.398 165.123 114.073 164.566L56.5157 64.8746C56.1901 64.3173 56.1901 63.6225 56.5157 63.0653C56.8414 62.508 57.4349 62.1606 58.079 62.1606L173.192 62.1606C173.837 62.1606 174.437 62.508 174.756 63.0653C175.081 63.6225 175.081 64.3173 174.756 64.8746L117.199 164.566C116.873 165.123 116.28 165.47 115.636 165.47H115.643ZM61.2199 65.7792L115.643 160.043L170.066 65.7792L61.2199 65.7792Z" fill="#2C303C"/>
<path d="M84.3642 165.47C83.7201 165.47 83.1194 165.123 82.801 164.566L25.2443 64.8746C24.9186 64.3173 24.9186 63.6225 25.2443 63.0653C25.5699 62.508 26.1634 62.1606 26.8147 62.1606L141.928 62.1606C142.572 62.1606 143.173 62.508 143.499 63.0653C143.824 63.6225 143.824 64.3173 143.499 64.8746L85.9419 164.566C85.6163 165.123 85.0228 165.47 84.3715 165.47H84.3642ZM29.9411 65.7792L84.3642 160.043L138.787 65.7792L29.9411 65.7792Z" fill="#2C303C"/>
</svg>
