<svg width="200" height="200" viewBox="0 0 200 200" fill="none" xmlns="http://www.w3.org/2000/svg">
<path d="M151.882 48.0996L48.125 48.0996L48.125 151.856H151.882V48.0996Z" fill="#CAF200"/>
<path d="M151.882 153.488H48.1252C47.2249 153.488 46.4941 152.757 46.4941 151.857L46.4941 48.0998C46.4941 47.1995 47.2249 46.4688 48.1252 46.4688L151.882 46.4687C152.782 46.4687 153.513 47.1995 153.513 48.0998V151.857C153.513 152.757 152.782 153.488 151.882 153.488ZM49.7563 150.226H150.251V49.7309L49.7563 49.7309L49.7563 150.226Z" fill="#2C303C"/>
<path d="M100.001 174.979C99.5831 174.979 99.1657 174.822 98.846 174.502L25.4795 101.136C24.8402 100.497 24.8402 99.4657 25.4795 98.8263L98.846 25.46C99.4593 24.8467 100.542 24.8467 101.155 25.46L174.522 98.8263C174.829 99.1329 174.998 99.544 174.998 99.9811C174.998 100.418 174.829 100.829 174.522 101.136L101.155 174.502C100.836 174.822 100.418 174.979 100.001 174.979ZM28.944 99.9811L100.001 171.038L171.064 99.9811L100.001 28.9179L28.944 99.9811Z" fill="#2C303C"/>
<path d="M100.001 174.979C99.3617 174.979 98.7551 174.601 98.4941 173.974L46.619 48.7329C46.2732 47.8978 46.6711 46.9452 47.4997 46.5994C48.3348 46.2536 49.2874 46.6516 49.6331 47.4802L101.508 172.722C101.854 173.557 101.456 174.509 100.628 174.855C100.425 174.94 100.21 174.979 100.001 174.979Z" fill="#2C303C"/>
<path d="M173.367 101.613C173.158 101.613 172.949 101.574 172.74 101.489L47.4986 49.6137C46.6635 49.2679 46.2721 48.3153 46.6179 47.4802C46.9637 46.6516 47.9163 46.2536 48.7514 46.5994L173.993 98.4746C174.828 98.8204 175.219 99.7729 174.874 100.608C174.613 101.234 174.006 101.613 173.367 101.613Z" fill="#2C303C"/>
</svg>
