<svg width="200" height="200" viewBox="0 0 200 200" fill="none" xmlns="http://www.w3.org/2000/svg">
<path d="M81.6569 44.9668L63.3151 63.3086L44.9668 81.6569L63.3151 99.9987L81.6569 81.6569L99.9986 63.3086L81.6569 44.9668Z" fill="#CAF200"/>
<path d="M63.3148 101.62C62.8997 101.62 62.4846 101.464 62.1668 101.146L43.825 82.8046C43.5202 82.4998 43.3516 82.0912 43.3516 81.6566C43.3516 81.2221 43.5202 80.8135 43.825 80.5087L80.5151 43.8186C81.1248 43.2089 82.2013 43.2089 82.811 43.8186L101.153 62.1604C101.788 62.796 101.788 63.8207 101.153 64.4563L64.4628 101.146C64.145 101.464 63.7299 101.62 63.3148 101.62ZM47.2625 81.6566L63.3148 97.709L97.709 63.3148L81.6566 47.2625L47.2625 81.6566Z" fill="#2C303C"/>
<path d="M118.346 83.278C117.931 83.278 117.516 83.1224 117.198 82.8046L80.508 46.1145C79.8723 45.4789 79.8723 44.4541 80.508 43.8185L98.8498 25.4767C99.4854 24.8411 100.51 24.8411 101.146 25.4767L137.836 62.1668C138.471 62.8024 138.471 63.8271 137.836 64.4628L119.494 82.8046C119.176 83.1224 118.761 83.278 118.346 83.278ZM83.9518 44.9665L118.346 79.3606L134.398 63.3083L100.004 28.9142L83.9518 44.9665Z" fill="#2C303C"/>
<path d="M99.9983 101.62C99.5832 101.62 99.1682 101.464 98.8504 101.147L80.5086 82.8049C80.2038 82.5001 80.0352 82.0915 80.0352 81.6569C80.0352 81.2224 80.2038 80.8138 80.5086 80.5089L98.8504 62.1671C99.486 61.5315 100.511 61.5315 101.146 62.1671L119.495 80.5089C119.799 80.8138 119.968 81.2224 119.968 81.6569C119.968 82.0915 119.799 82.5001 119.495 82.8049L101.146 101.147C100.828 101.464 100.413 101.62 99.9983 101.62ZM83.9459 81.6569L99.9983 97.7092L116.051 81.6569L99.9983 65.6046L83.9459 81.6569Z" fill="#2C303C"/>
<path d="M81.656 119.968C81.2409 119.968 80.8258 119.812 80.508 119.494L62.1662 101.153C61.5306 100.517 61.5306 99.4922 62.1662 98.8566L80.508 80.5148C81.1436 79.8792 82.1684 79.8792 82.804 80.5148L101.146 98.8566C101.781 99.4922 101.781 100.517 101.146 101.153L82.804 119.494C82.4862 119.812 82.0711 119.968 81.656 119.968ZM65.6037 100.005L81.656 116.057L97.7083 100.005L81.656 83.9523L65.6037 100.005Z" fill="#2C303C"/>
<path d="M136.688 63.3086L118.346 81.6569L99.9979 99.9987L81.6563 118.347L99.9979 136.689L118.346 118.347L136.688 99.9987L155.036 81.6569L136.688 63.3086Z" fill="#CAF200"/>
<path d="M99.9976 138.31C99.5825 138.31 99.1676 138.155 98.8498 137.837L80.508 119.495C79.8723 118.859 79.8723 117.835 80.508 117.199L135.54 62.1671C136.175 61.5315 137.2 61.5315 137.836 62.1671L156.178 80.5089C156.813 81.1445 156.813 82.1693 156.178 82.8049L101.146 137.837C100.828 138.155 100.413 138.31 99.9976 138.31ZM83.9453 118.347L99.9976 134.399L152.74 81.6569L136.688 65.6046L83.9453 118.347Z" fill="#2C303C"/>
<path d="M81.6566 156.652C81.2416 156.652 80.8265 156.496 80.5086 156.178L25.4767 101.146C24.8411 100.511 24.8411 99.4858 25.4767 98.8502L43.8185 80.5084C44.4541 79.8728 45.4789 79.8728 46.1145 80.5084L101.146 135.54C101.782 136.176 101.782 137.201 101.146 137.836L82.8046 156.178C82.4868 156.496 82.0717 156.652 81.6566 156.652ZM28.9142 99.9982L81.6566 152.741L97.709 136.688L44.9665 83.9459L28.9142 99.9982Z" fill="#2C303C"/>
<path d="M136.689 138.31C136.261 138.31 135.846 138.142 135.541 137.837L117.199 119.495C116.564 118.859 116.564 117.835 117.199 117.199L153.889 80.5089C154.525 79.8733 155.55 79.8733 156.185 80.5089L174.527 98.8507C174.832 99.1556 175.001 99.5642 175.001 99.9987C175.001 100.433 174.832 100.842 174.527 101.147L137.837 137.837C137.532 138.142 137.124 138.31 136.689 138.31ZM120.637 118.347L136.689 134.399L171.083 100.005L155.031 83.9529L120.637 118.347Z" fill="#2C303C"/>
<path d="M99.9976 175C99.5695 175 99.1546 174.831 98.8498 174.526L80.508 156.184C79.8723 155.549 79.8723 154.524 80.508 153.888L117.198 117.198C117.834 116.563 118.858 116.563 119.494 117.198L137.836 135.54C138.471 136.176 138.471 137.201 137.836 137.836L101.146 174.526C100.841 174.831 100.432 175 99.9976 175ZM83.9453 155.036L99.9976 171.089L134.392 136.695L118.339 120.642L83.9453 155.036Z" fill="#2C303C"/>
</svg>
