<svg width="200" height="200" viewBox="0 0 200 200" fill="none" xmlns="http://www.w3.org/2000/svg">
<path d="M172.907 108.782C171.995 108.782 171.231 108.089 171.146 107.184C167.646 70.3451 137.058 42.571 100.007 42.571C62.9561 42.571 32.3748 70.3521 28.8677 107.184C28.7829 108.089 28.0192 108.782 27.1071 108.782C26.195 108.782 25.4313 108.089 25.3465 107.184C25.1202 104.78 25 102.362 25 100C25 58.6429 58.6429 25 100 25C141.357 25 175 58.6429 175 100C175 102.362 174.887 104.78 174.654 107.184C174.569 108.089 173.805 108.782 172.893 108.782H172.907ZM100.014 39.0355C118.794 39.0355 136.761 46.0074 150.606 58.6712C159.663 66.9582 166.466 77.2038 170.552 88.517C165.044 54.5489 135.51 28.5283 100.007 28.5283C64.5046 28.5283 34.9699 54.5489 29.4617 88.517C33.5486 77.2038 40.3507 66.9582 49.4084 58.6712C63.2531 46.0074 81.2271 39.0355 100 39.0355H100.014Z" fill="#2C303C"/>
<path d="M171.888 115.796C171.04 115.796 170.312 115.195 170.156 114.368C163.658 80.8946 134.159 56.5993 100.007 56.5993C65.8546 56.5993 36.355 80.8946 29.857 114.368C29.6943 115.195 28.9661 115.796 28.1247 115.796C27.2762 115.796 26.5479 115.195 26.3923 114.368C25.9327 111.992 25.5792 109.574 25.353 107.184C25.3459 107.071 25.3459 106.958 25.353 106.852C27.1136 88.3684 35.6551 71.2571 49.4149 58.6781C63.2596 46.0143 81.2336 39.0425 100.007 39.0425C118.78 39.0425 136.753 46.0143 150.598 58.6781C164.358 71.2571 172.899 88.3684 174.66 106.852C174.667 106.965 174.667 107.078 174.66 107.184C174.434 109.581 174.08 111.999 173.621 114.368C173.458 115.202 172.73 115.796 171.888 115.796ZM100.007 42.5637C64.5182 42.5637 34.9693 68.0399 29.4611 102.56C40.0249 73.3076 68.0819 53.0639 100.007 53.0639C131.931 53.0639 159.988 73.3005 170.552 102.56C165.044 68.0469 135.488 42.5637 100.007 42.5637Z" fill="#2C303C"/>
<path d="M170.163 122.817C169.386 122.817 168.693 122.308 168.473 121.559C159.486 91.5784 131.338 70.6417 100.014 70.6417C68.6903 70.6417 40.5343 91.5784 31.5544 121.559C31.3281 122.308 30.6422 122.817 29.8644 122.817C29.0866 122.817 28.3937 122.308 28.1745 121.559C27.4674 119.204 26.8735 116.786 26.4068 114.368C26.3644 114.148 26.3644 113.915 26.4068 113.696C33.2301 78.5681 64.186 53.0708 100.028 53.0708C135.87 53.0708 166.826 78.5681 173.649 113.696C173.692 113.915 173.692 114.148 173.649 114.368C173.183 116.786 172.582 119.204 171.882 121.559C171.655 122.308 170.97 122.817 170.192 122.817H170.163ZM100.007 67.1063C116.468 67.1063 132.087 72.3387 145.182 82.2379C156.255 90.6026 164.889 102.05 169.909 114.905C169.972 114.615 170.029 114.325 170.086 114.035C163.453 80.7389 134.039 56.6062 100.007 56.6062C65.9751 56.6062 36.5534 80.7389 29.9281 114.035C29.9846 114.325 30.0483 114.615 30.1048 114.905C35.1322 102.05 43.7656 90.6026 54.8314 82.2379C67.9266 72.3387 83.5461 67.1063 100.007 67.1063Z" fill="#2C303C"/>
<path d="M167.66 129.832C166.946 129.832 166.303 129.4 166.027 128.743C154.904 101.973 128.99 84.6703 100.007 84.6703C71.0235 84.6703 45.1089 101.966 33.9865 128.743C33.7108 129.4 33.0673 129.832 32.3531 129.832C31.639 129.832 30.9957 129.4 30.7199 128.743C29.7512 126.402 28.8885 123.984 28.1602 121.552C28.0612 121.219 28.0612 120.866 28.1602 120.533C32.6926 105.402 42.1674 91.7977 54.8312 82.2238C67.9264 72.3247 83.5459 67.0923 100.007 67.0923C116.468 67.0923 132.087 72.3247 145.182 82.2238C157.853 91.7977 167.321 105.402 171.86 120.533C171.959 120.866 171.959 121.219 171.86 121.552C171.132 123.991 170.269 126.409 169.301 128.743C169.025 129.4 168.381 129.832 167.667 129.832H167.66ZM100.007 81.1349C128.983 81.1349 155.032 97.6028 167.526 123.447C167.802 122.648 168.063 121.849 168.311 121.043C159.161 91.3381 131.147 70.6348 100.007 70.6348C68.8669 70.6348 40.8452 91.3381 31.6956 121.043C31.9431 121.849 32.2048 122.648 32.4805 123.447C44.9746 97.6028 71.0235 81.1349 99.9996 81.1349H100.007Z" fill="#2C303C"/>
<path d="M164.302 136.853C163.658 136.853 163.064 136.499 162.753 135.934C150.196 112.975 126.155 98.7128 100.014 98.7128C73.8733 98.7128 49.8324 112.975 37.2746 135.934C36.9635 136.499 36.3696 136.853 35.7262 136.853C35.0827 136.853 34.4888 136.499 34.1777 135.934C32.912 133.614 31.7523 131.196 30.7341 128.743C30.5574 128.311 30.5574 127.823 30.7341 127.385C42.408 99.2926 69.6024 81.1348 100.021 81.1348C130.44 81.1348 157.634 99.2855 169.308 127.385C169.485 127.816 169.485 128.304 169.308 128.743C168.29 131.196 167.13 133.614 165.864 135.934C165.553 136.499 164.959 136.853 164.316 136.853H164.302ZM100.014 95.1774C126.353 95.1774 150.662 108.973 164.224 131.401C164.761 130.305 165.271 129.188 165.751 128.071C154.473 101.69 128.757 84.6772 100.014 84.6772C71.2712 84.6772 45.5546 101.683 34.2766 128.071C34.7574 129.195 35.2666 130.305 35.804 131.401C49.3658 108.973 73.6753 95.1774 100.014 95.1774Z" fill="#2C303C"/>
<path d="M159.925 143.867C159.352 143.867 158.808 143.584 158.482 143.118C145.09 124.097 123.234 112.741 100.007 112.741C76.7793 112.741 54.9233 124.097 41.5312 143.118C41.1989 143.591 40.6616 143.867 40.0889 143.867C39.5162 143.867 38.9717 143.584 38.6464 143.118C37.0201 140.812 35.514 138.394 34.1706 135.927C33.8806 135.396 33.8806 134.76 34.1706 134.23C47.3505 110.139 72.5793 95.1704 100.014 95.1704C127.449 95.1704 152.677 110.139 165.857 134.23C166.147 134.76 166.147 135.396 165.857 135.927C164.507 138.387 163.001 140.805 161.381 143.118C161.049 143.591 160.512 143.867 159.939 143.867H159.925ZM37.7413 135.078C38.4979 136.414 39.2969 137.737 40.1453 139.024C54.294 120.307 76.4894 109.206 100.014 109.206C123.539 109.206 145.727 120.307 159.882 139.024C160.724 137.73 161.53 136.414 162.286 135.078C149.601 112.614 125.836 98.7058 100.021 98.7058C74.2054 98.7058 50.4335 112.621 37.7555 135.078H37.7413Z" fill="#2C303C"/>
<path d="M154.319 150.889C153.817 150.889 153.343 150.677 153.011 150.309C139.477 135.361 120.16 126.784 100.015 126.784C79.8705 126.784 60.553 135.361 47.0194 150.309C46.3477 151.051 45.0679 151.051 44.3962 150.309C42.3527 148.046 40.4154 145.628 38.6477 143.125C38.2164 142.517 38.2164 141.697 38.6477 141.089C52.6974 121.128 75.6422 109.213 100.015 109.213C124.388 109.213 147.326 121.128 161.376 141.089C161.807 141.697 161.807 142.517 161.376 143.125C159.608 145.635 157.678 148.053 155.634 150.309C155.302 150.677 154.821 150.889 154.326 150.889H154.319ZM100.008 123.249C120.492 123.249 140.163 131.691 154.284 146.491C155.493 145.077 156.652 143.613 157.755 142.107C144.307 123.701 122.819 112.749 100.015 112.749C77.2119 112.749 55.7165 123.701 42.2679 142.107C43.3709 143.613 44.5306 145.077 45.7397 146.491C59.8601 131.699 79.5241 123.249 100.015 123.249H100.008Z" fill="#2C303C"/>
<path d="M147.021 157.91C146.618 157.91 146.215 157.776 145.883 157.5C133.056 146.745 116.765 140.827 100.008 140.827C83.2497 140.827 66.9585 146.745 54.132 157.5C53.4744 158.051 52.5199 158.051 51.8623 157.5C49.2108 155.272 46.6935 152.854 44.3955 150.316C43.7874 149.644 43.7874 148.619 44.3955 147.94C58.5937 132.25 78.8658 123.256 100.015 123.256C121.163 123.256 141.435 132.257 155.633 147.94C156.242 148.612 156.242 149.637 155.633 150.316C153.328 152.861 150.818 155.28 148.167 157.5C147.841 157.776 147.431 157.91 147.028 157.91H147.021ZM100.008 137.284C117.091 137.284 133.721 143.153 147 153.83C148.711 152.338 150.359 150.754 151.907 149.121C138.437 134.901 119.615 126.784 100.008 126.784C80.4002 126.784 61.5776 134.901 48.1077 149.121C49.6633 150.761 51.3037 152.338 53.0148 153.83C66.2938 143.146 82.9174 137.284 100.008 137.284Z" fill="#2C303C"/>
<path d="M137.078 164.924C136.767 164.924 136.456 164.839 136.18 164.677C125.256 158.249 112.748 154.855 100.006 154.855C87.2645 154.855 74.7561 158.249 63.8317 164.677C63.2802 165.002 62.5943 165.002 62.0357 164.677C58.465 162.577 55.0357 160.158 51.8538 157.493C51.4508 157.153 51.2246 156.658 51.2246 156.135C51.2246 155.612 51.4579 155.117 51.8538 154.778C65.3167 143.493 82.4139 137.277 100.006 137.277C117.598 137.277 134.695 143.493 148.158 154.778C148.561 155.117 148.788 155.612 148.788 156.135C148.788 156.658 148.554 157.153 148.158 157.493C144.976 160.158 141.547 162.577 137.976 164.677C137.701 164.839 137.389 164.924 137.078 164.924ZM100.006 151.32C113.023 151.32 125.814 154.7 137.064 161.106C139.539 159.6 141.936 157.938 144.22 156.142C131.662 146.25 116.05 140.82 100.006 140.82C83.9624 140.82 68.3501 146.243 55.7923 156.142C58.0762 157.938 60.4731 159.607 62.9479 161.106C74.1975 154.7 86.9887 151.32 100.006 151.32Z" fill="#2C303C"/>
<path d="M120.972 171.945C120.803 171.945 120.633 171.924 120.47 171.875C113.845 169.902 106.965 168.898 100.015 168.898C93.064 168.898 86.1769 169.902 79.5587 171.875C79.2263 171.974 78.8799 171.974 78.5476 171.875C72.7919 170.156 67.2413 167.738 62.0513 164.684C61.514 164.365 61.1816 163.786 61.1816 163.163C61.1816 162.541 61.514 161.954 62.0513 161.643C73.5202 154.898 86.6506 151.334 100.022 151.334C113.392 151.334 126.516 154.898 137.992 161.643C138.529 161.961 138.862 162.541 138.862 163.163C138.862 163.786 138.529 164.373 137.992 164.684C132.802 167.738 127.251 170.156 121.496 171.875C121.333 171.924 121.163 171.945 120.994 171.945H120.972ZM66.5555 163.156C70.5505 165.271 74.7364 167.01 79.0496 168.332C85.8446 166.359 92.8872 165.355 100.008 165.355C107.128 165.355 114.17 166.352 120.965 168.332C125.279 167.01 129.464 165.278 133.459 163.156C123.2 157.719 111.703 154.855 100.008 154.855C88.3124 154.855 76.8153 157.719 66.5555 163.156Z" fill="#2C303C"/>
<path d="M100.006 174.993C92.7091 174.993 85.4897 173.939 78.5391 171.867C77.7896 171.641 77.2734 170.955 77.2734 170.17C77.2734 169.386 77.7896 168.7 78.5391 168.473C85.4897 166.402 92.7162 165.348 100.006 165.348C107.296 165.348 114.522 166.402 121.473 168.473C122.223 168.7 122.739 169.386 122.739 170.17C122.739 170.955 122.223 171.641 121.473 171.867C114.522 173.939 107.296 174.993 100.006 174.993ZM86.4796 170.178C95.3676 171.882 104.652 171.882 113.54 170.178C104.652 168.473 95.3676 168.473 86.4796 170.178Z" fill="#2C303C"/>
</svg>
