<svg width="200" height="200" viewBox="0 0 200 200" fill="none" xmlns="http://www.w3.org/2000/svg">
<path d="M109.945 90.0488L46.0645 90.0488L46.0645 153.93H109.945V90.0488Z" fill="#CAF200"/>
<path d="M109.944 155.85H46.063C45.0029 155.85 44.1426 154.989 44.1426 153.929L44.1426 90.0483C44.1426 88.9883 45.0029 88.1279 46.063 88.1279L109.944 88.1279C111.004 88.1279 111.864 88.9883 111.864 90.0483L111.864 153.929C111.864 154.989 111.004 155.85 109.944 155.85ZM47.9834 152.009H108.023V91.9688L47.9834 91.9688L47.9834 152.009Z" fill="#2C303C"/>
<path d="M129.092 175H109.489C108.429 175 107.568 174.14 107.568 173.08V153.476C107.568 152.416 108.429 151.556 109.489 151.556H129.092C130.153 151.556 131.013 152.416 131.013 153.476V173.08C131.013 174.14 130.153 175 129.092 175ZM111.409 171.159H127.172V155.397H111.409V171.159Z" fill="#2C303C"/>
<path d="M46.5241 92.4294H26.9204C25.8603 92.4294 25 91.569 25 90.5089L25 70.9053C25 69.8452 25.8603 68.9849 26.9204 68.9849H46.5241C47.5841 68.9849 48.4445 69.8452 48.4445 70.9053V90.5089C48.4445 91.569 47.5841 92.4294 46.5241 92.4294ZM28.8408 88.5885H44.6037V72.8257H28.8408L28.8408 88.5885Z" fill="#2C303C"/>
<path d="M46.5236 153.476H26.9199L26.9199 173.08H46.5236V153.476Z" fill="#CAF200"/>
<path d="M46.5241 175H26.9204C25.8603 175 25 174.14 25 173.08L25 153.476C25 152.416 25.8603 151.556 26.9204 151.556H46.5241C47.5841 151.556 48.4445 152.416 48.4445 153.476V173.08C48.4445 174.14 47.5841 175 46.5241 175ZM28.8408 171.159H44.6037V155.397H28.8408L28.8408 171.159Z" fill="#2C303C"/>
<path d="M129.094 70.9053H109.49V90.5089H129.094V70.9053Z" fill="#CAF200"/>
<path d="M129.092 92.4298H109.489C108.429 92.4298 107.568 91.5695 107.568 90.5094V70.9058C107.568 69.8457 108.429 68.9854 109.489 68.9854H129.092C130.153 68.9854 131.013 69.8457 131.013 70.9058V90.5094C131.013 91.5695 130.153 92.4298 129.092 92.4298ZM111.409 88.589H127.172V72.8262H111.409V88.589Z" fill="#2C303C"/>
<path d="M173.079 26.9204L128.641 26.9204V71.3589H173.079V26.9204Z" fill="#CAF200"/>
<path d="M173.08 73.2793H128.641C127.581 73.2793 126.721 72.419 126.721 71.3589L126.721 26.9204C126.721 25.8603 127.581 25 128.641 25L173.08 25C174.14 25 175 25.8603 175 26.9204V71.3589C175 72.419 174.14 73.2793 173.08 73.2793ZM130.562 69.4385H171.159V28.8408L130.562 28.8408V69.4385Z" fill="#2C303C"/>
<path d="M100.226 134.441H67.4712C66.4111 134.441 65.5508 133.58 65.5508 132.52V99.7656C65.5508 98.7056 66.4111 97.8452 67.4712 97.8452H100.226C101.286 97.8452 102.146 98.7056 102.146 99.7656V132.52C102.146 133.58 101.286 134.441 100.226 134.441ZM69.3916 130.6H98.3055V101.686H69.3916V130.6Z" fill="#2C303C"/>
</svg>
