<svg width="200" height="200" viewBox="0 0 200 200" fill="none" xmlns="http://www.w3.org/2000/svg">
<path d="M146.945 53.3979L53.0566 53.3979L53.0566 147.286H146.945V53.3979Z" fill="#CAF200"/>
<path d="M79.0114 111.312C77.9616 111.312 77.1096 110.46 77.1096 109.41L77.1096 80.9132H52.9566C37.5443 80.9132 25 68.3689 25 52.9566C25 37.5443 37.5443 25 52.9566 25C68.3689 25 80.9132 37.5443 80.9132 52.9566V77.1096L107.965 77.1096C109.014 77.1096 109.866 77.9616 109.866 79.0114C109.866 80.0612 109.014 80.9132 107.965 80.9132L80.9132 80.9132L80.9132 109.41C80.9132 110.46 80.0612 111.312 79.0114 111.312ZM52.9566 28.8036C39.6363 28.8036 28.8036 39.6363 28.8036 52.9566C28.8036 66.2769 39.6363 77.1096 52.9566 77.1096H77.1096V52.9566C77.1096 39.6363 66.2769 28.8036 52.9566 28.8036Z" fill="#2C303C"/>
<path d="M52.9566 175.692C37.5443 175.692 25 163.147 25 147.735C25 132.323 37.5443 119.778 52.9566 119.778H77.1096V92.727C77.1096 91.6772 77.9616 90.8252 79.0114 90.8252C80.0612 90.8252 80.9132 91.6772 80.9132 92.727V119.778H109.41C110.46 119.778 111.312 120.63 111.312 121.68C111.312 122.73 110.46 123.582 109.41 123.582L80.9132 123.582V147.735C80.9132 163.147 68.3689 175.692 52.9566 175.692ZM52.9566 123.582C39.6363 123.582 28.8036 134.415 28.8036 147.735C28.8036 161.055 39.6363 171.888 52.9566 171.888C66.2769 171.888 77.1096 161.055 77.1096 147.735V123.582H52.9566Z" fill="#2C303C"/>
<path d="M120.988 111.312C119.938 111.312 119.086 110.46 119.086 109.41V80.9132H92.0346C90.9848 80.9132 90.1328 80.0612 90.1328 79.0114C90.1328 77.9616 90.9848 77.1096 92.0346 77.1096H119.086V52.9566C119.086 37.5443 131.63 25 147.043 25C162.455 25 174.999 37.5443 174.999 52.9566C174.999 68.3689 162.455 80.9132 147.043 80.9132H122.89L122.89 109.41C122.89 110.46 122.038 111.312 120.988 111.312ZM122.89 77.1096H147.043C160.363 77.1096 171.196 66.2769 171.196 52.9566C171.196 39.6363 160.363 28.8036 147.043 28.8036C133.722 28.8036 122.89 39.6363 122.89 52.9566V77.1096Z" fill="#2C303C"/>
<path d="M147.043 175.692C131.63 175.692 119.086 163.147 119.086 147.735L119.086 123.582H90.5893C89.5395 123.582 88.6875 122.73 88.6875 121.68C88.6875 120.63 89.5395 119.778 90.5893 119.778H119.086V92.727C119.086 91.6772 119.938 90.8252 120.988 90.8252C122.038 90.8252 122.89 91.6772 122.89 92.727V119.778L147.043 119.778C162.455 119.778 174.999 132.323 174.999 147.735C174.999 163.147 162.455 175.692 147.043 175.692ZM122.89 123.582V147.735C122.89 161.055 133.722 171.888 147.043 171.888C160.363 171.888 171.196 161.055 171.196 147.735C171.196 134.415 160.363 123.582 147.043 123.582H122.89Z" fill="#2C303C"/>
</svg>
