<svg width="200" height="200" viewBox="0 0 200 200" fill="none" xmlns="http://www.w3.org/2000/svg">
<path d="M71.1417 181.407C70.4034 181.407 69.7298 181.009 69.3728 180.368L25.2556 101.189C24.9148 100.573 24.9148 99.8261 25.2556 99.2175L69.3728 20.0386C69.7298 19.3976 70.4115 19 71.1417 19C71.872 19 72.5536 19.3976 72.9106 20.0386L117.028 99.2175C117.369 99.8342 117.369 100.581 117.028 101.189L72.9106 180.368C72.5536 181.009 71.872 181.407 71.1417 181.407ZM29.3452 100.199L71.1417 175.207L112.938 100.199L71.1417 25.1912L29.3452 100.199Z" fill="#2C303C"/>
<path d="M99.9971 181.407C99.2587 181.407 98.5853 181.009 98.2283 180.368L54.1111 101.189C53.7703 100.573 53.7703 99.8261 54.1111 99.2175L98.2283 20.0386C98.5853 19.3976 99.2668 19 99.9971 19C100.727 19 101.409 19.3976 101.766 20.0386L145.883 99.2175C146.224 99.8342 146.224 100.581 145.883 101.189L101.766 180.368C101.409 181.009 100.727 181.407 99.9971 181.407ZM58.2006 100.199L99.9971 175.207L141.794 100.199L99.9971 25.1912L58.2006 100.199Z" fill="#2C303C"/>
<path d="M172.975 100.199L128.858 179.378L84.7324 100.199L128.858 21.0205L172.975 100.199Z" fill="#CAF200"/>
<path d="M128.859 181.407C128.12 181.407 127.447 181.009 127.09 180.368L82.9724 101.189C82.6316 100.573 82.6316 99.8261 82.9724 99.2175L127.09 20.0386C127.447 19.3976 128.128 19 128.859 19C129.589 19 130.27 19.3976 130.627 20.0386L174.745 99.2175C175.085 99.8342 175.085 100.581 174.745 101.189L130.627 180.368C130.27 181.009 129.589 181.407 128.859 181.407ZM87.062 100.199L128.859 175.207L170.655 100.199L128.859 25.1912L87.062 100.199Z" fill="#2C303C"/>
</svg>
