<svg width="200" height="200" viewBox="0 0 200 200" fill="none" xmlns="http://www.w3.org/2000/svg">
<path d="M99.9978 26.8176L26.8398 99.9756L99.9978 173.134L173.156 99.9756L99.9978 26.8176Z" fill="#CAF200"/>
<path d="M99.9978 174.853C99.6814 174.853 99.365 174.772 99.078 174.603L35.8241 138.082C35.2575 137.751 34.9043 137.148 34.9043 136.485L34.9043 63.4519C34.9043 62.797 35.2575 62.1863 35.8241 61.8625L99.078 25.3421C99.6446 25.011 100.351 25.011 100.918 25.3421L164.172 61.8625C164.738 62.1936 165.091 62.797 165.091 63.4519L165.091 136.485C165.091 137.14 164.738 137.751 164.172 138.082L100.918 174.603C100.631 174.764 100.314 174.853 99.9978 174.853ZM38.5836 135.433L99.9978 170.886L161.412 135.433V64.5189L99.9978 29.0655L38.5836 64.5189L38.5836 135.433Z" fill="#2C303C"/>
<path d="M99.9982 174.978C99.5126 174.978 99.0416 174.787 98.6958 174.441L25.5373 101.282C25.1915 100.936 25 100.473 25 99.9797C25 99.4867 25.1915 99.0231 25.5373 98.6773L98.6958 25.5188C99.3875 24.8271 100.609 24.8271 101.301 25.5188L174.459 98.6773C175.18 99.3984 175.18 100.561 174.459 101.282L101.301 174.441C100.955 174.787 100.491 174.978 99.9982 174.978ZM29.4446 99.9797L99.9982 170.533L170.552 99.9797L99.9982 29.4262L29.4446 99.9797Z" fill="#2C303C"/>
</svg>
