<svg width="142" height="24" viewBox="0 0 142 24" fill="none" xmlns="http://www.w3.org/2000/svg">
<path d="M29.1234 15.9167C31.5276 15.6207 33.2366 13.4317 32.9405 11.0276C32.6445 8.62345 30.4555 6.9145 28.0514 7.21054C25.6472 7.50659 23.9382 9.69552 24.2343 12.0997C24.5303 14.5038 26.7193 16.2128 29.1234 15.9167Z" fill="#2C303C"/>
<path d="M0 11.6384C0 9.84242 1.45737 8.39014 3.24854 8.39014C5.03972 8.39014 6.49685 9.84727 6.49685 11.6384C6.49685 13.4296 5.03972 14.8868 3.24854 14.8868C1.45737 14.8868 0 13.4296 0 11.6384Z" fill="#2C303C"/>
<path d="M48.1299 11.638C48.1299 8.44291 50.7198 5.84814 53.9197 5.84814C57.1196 5.84814 59.7096 8.43807 59.7096 11.638C59.7096 14.8379 57.1196 17.4279 53.9197 17.4279C50.7198 17.4279 48.1299 14.8379 48.1299 11.638Z" fill="#2C303C"/>
<path d="M84.6577 17.0423C87.6429 14.0571 87.6427 9.21739 84.6576 6.23223C81.6724 3.24708 76.8327 3.24693 73.8475 6.23209C70.8623 9.21725 70.8623 14.0571 73.8475 17.0423C76.8326 20.0275 81.6726 20.0275 84.6577 17.0423Z" fill="#2C303C"/>
<path d="M113.459 13.095C114.245 8.24966 110.955 3.68396 106.11 2.89745C101.264 2.11094 96.6989 5.40145 95.9124 10.2468C95.1259 15.0922 98.4162 19.6576 103.262 20.4441C108.107 21.2306 112.672 17.9404 113.459 13.095Z" fill="#2C303C"/>
<path d="M140.056 13.2928C140.956 7.75071 137.192 2.5287 131.65 1.62909C126.108 0.729489 120.886 4.49295 119.986 10.035C119.087 15.5771 122.85 20.7991 128.392 21.6987C133.934 22.5983 139.156 18.8348 140.056 13.2928Z" fill="#2C303C"/>
</svg>
