<svg width="448" height="150" viewBox="0 0 448 150" fill="none" xmlns="http://www.w3.org/2000/svg">
<path d="M74.6529 0C33.4252 0 0 33.4252 0 74.6528C0 115.88 33.4252 149.306 74.6529 149.306C115.88 149.306 149.306 115.88 149.306 74.6528C149.306 33.4252 115.88 0 74.6529 0ZM61.9626 139.599C33.0998 139.599 9.70633 116.206 9.70633 87.343C9.70633 58.4802 33.0998 35.0868 61.9626 35.0868C90.8254 35.0868 114.219 58.4802 114.219 87.343C114.219 116.206 90.8254 139.599 61.9626 139.599Z" fill="#5D6B74"/>
<path d="M61.9628 35.0859C33.1 35.0859 9.70654 58.4794 9.70654 87.3422C9.70654 116.205 33.1 139.598 61.9628 139.598C90.8256 139.598 114.219 116.205 114.219 87.3422C114.219 58.4794 90.8256 35.0859 61.9628 35.0859ZM49.2726 129.892C32.7816 129.892 19.4129 116.523 19.4129 100.032C19.4129 83.5414 32.7816 70.1727 49.2726 70.1727C65.7637 70.1727 79.1324 83.5414 79.1324 100.032C79.1324 116.523 65.7637 129.892 49.2726 129.892Z" fill="#364656"/>
<path d="M70.3885 121.145C82.0494 109.484 82.0494 90.5782 70.3885 78.9172C58.7275 67.2563 39.8214 67.2563 28.1604 78.9172C16.4995 90.5782 16.4995 109.484 28.1604 121.145C39.8214 132.806 58.7275 132.806 70.3885 121.145Z" fill="#CAF200"/>
<path d="M223.958 0C182.731 0 149.306 33.4252 149.306 74.6528C149.306 115.88 182.731 149.306 223.958 149.306C265.186 149.306 298.611 115.88 298.611 74.6528C298.611 33.4252 265.186 0 223.958 0ZM211.268 139.599C182.405 139.599 159.012 116.206 159.012 87.343C159.012 58.4802 182.405 35.0868 211.268 35.0868C240.131 35.0868 263.525 58.4802 263.525 87.343C263.525 116.206 240.131 139.599 211.268 139.599Z" fill="#94A4A5"/>
<path d="M211.268 35.0859C182.405 35.0859 159.012 58.4794 159.012 87.3422C159.012 116.205 182.405 139.598 211.268 139.598C240.131 139.598 263.524 116.205 263.524 87.3422C263.524 58.4794 240.131 35.0859 211.268 35.0859ZM198.578 129.892C182.087 129.892 168.718 116.523 168.718 100.032C168.718 83.5414 182.087 70.1727 198.578 70.1727C215.069 70.1727 228.437 83.5414 228.437 100.032C228.437 116.523 215.069 129.892 198.578 129.892Z" fill="#5D6B74"/>
<path d="M227.576 106.876C231.364 90.8256 221.424 74.7435 205.374 70.9554C189.324 67.1672 173.242 77.1074 169.454 93.1575C165.666 109.208 175.606 125.29 191.656 129.078C207.706 132.866 223.788 122.926 227.576 106.876Z" fill="#364656"/>
<path d="M373.264 0C332.036 0 298.611 33.4252 298.611 74.6528C298.611 115.88 332.036 149.306 373.264 149.306C414.492 149.306 447.917 115.88 447.917 74.6528C447.917 33.4252 414.492 0 373.264 0ZM360.574 139.599C331.711 139.599 308.318 116.206 308.318 87.343C308.318 58.4802 331.711 35.0868 360.574 35.0868C389.437 35.0868 412.83 58.4802 412.83 87.343C412.83 116.206 389.437 139.599 360.574 139.599Z" fill="#F2F5E9"/>
<path d="M360.574 35.0859C331.711 35.0859 308.318 58.4794 308.318 87.3422C308.318 116.205 331.711 139.598 360.574 139.598C389.437 139.598 412.83 116.205 412.83 87.3422C412.83 58.4794 389.437 35.0859 360.574 35.0859ZM347.884 129.892C331.393 129.892 318.024 116.523 318.024 100.032C318.024 83.5414 331.393 70.1727 347.884 70.1727C364.375 70.1727 377.744 83.5414 377.744 100.032C377.744 116.523 364.375 129.892 347.884 129.892Z" fill="#94A4A5"/>
<path d="M363.548 125.371C377.575 116.701 381.918 98.3001 373.248 84.2724C364.577 70.2446 346.177 65.9017 332.149 74.5722C318.121 83.2427 313.778 101.643 322.449 115.671C331.119 129.699 349.52 134.042 363.548 125.371Z" fill="#5D6B74"/>
</svg>
