<svg width="728" height="200" viewBox="0 0 728 200" fill="none" xmlns="http://www.w3.org/2000/svg">
<path d="M627.996 174.992C586.644 174.992 553 141.348 553 99.9962C553 58.644 586.644 25 627.996 25L701.069 25C702.135 25 703 25.865 703 26.9309V99.9962C703 141.348 669.356 174.992 627.996 174.992ZM627.996 28.8618C588.776 28.8618 556.862 60.7757 556.862 99.9962C556.862 139.217 588.776 171.131 627.996 171.131C667.217 171.131 699.138 139.217 699.138 99.9962V28.8618L627.996 28.8618Z" fill="#A6A6A6"/>
<path d="M627.997 155.892C597.172 155.892 572.102 130.813 572.102 99.9963C572.102 69.1791 597.18 44.1006 627.997 44.1006L681.97 44.1006C683.036 44.1006 683.901 44.9656 683.901 46.0315V99.9963C683.901 130.821 658.822 155.892 627.997 155.892ZM627.997 47.9547C599.304 47.9547 575.963 71.2954 575.963 99.9886C575.963 128.682 599.304 152.022 627.997 152.022C656.691 152.022 680.039 128.682 680.039 99.9886V47.9547L627.997 47.9547Z" fill="#A6A6A6"/>
<path d="M627.997 67.6885C610.148 67.6885 595.689 82.1548 595.689 99.9963C595.689 117.838 610.156 132.304 627.997 132.304C645.839 132.304 660.313 117.846 660.313 99.9963V67.6885L627.997 67.6885Z" fill="#CAF200"/>
<path d="M628.004 134.235C609.12 134.235 593.766 118.873 593.766 99.9965C593.766 81.1201 609.128 65.7578 628.004 65.7578L660.32 65.7578C661.386 65.7578 662.251 66.6229 662.251 67.6887V99.9965C662.251 118.881 646.889 134.235 628.004 134.235ZM628.004 69.6119C611.252 69.6119 597.627 83.2363 597.627 99.9888C597.627 116.741 611.252 130.366 628.004 130.366C644.757 130.366 658.389 116.741 658.389 99.9888V69.6119L628.004 69.6119Z" fill="#A6A6A6"/>
<path d="M26.2376 25.0001L25 25.0001L25 175L26.2376 175L173.762 175L175 175L175 25.0001L173.762 25.0001L26.2376 25.0001ZM53.4143 27.8273L172.173 146.591L172.173 160.939L39.0612 27.8273L53.4143 27.8273ZM57.6503 27.8273L72.0033 27.8273L172.173 128.002L172.173 142.35L57.6503 27.8273ZM76.2393 27.8273L90.5873 27.8273L172.173 109.413L172.173 123.761L76.2393 27.8273ZM94.8283 27.8273L110.273 27.8273L172.173 89.727L172.173 105.172L94.8283 27.8273ZM114.514 27.8273L128.862 27.8273L172.178 71.143L172.178 85.491L114.519 27.8324L114.514 27.8273ZM133.103 27.8273L147.451 27.8273L172.178 52.5541L172.178 66.9021L133.103 27.8273ZM151.692 27.8273L166.04 27.8273L172.178 33.965L172.178 48.313L151.692 27.8273ZM170.281 27.8273L172.178 27.8273L172.178 29.7239L170.281 27.8273ZM34.8302 27.8273L172.178 165.175L172.178 172.168L164.823 172.168L94.7126 102.058L27.8324 35.1775L27.8324 27.8224L34.8302 27.8224L34.8302 27.8273ZM146.234 172.173L27.8324 53.7716L27.8324 39.4184L160.582 172.173L146.234 172.173ZM141.993 172.173L127.645 172.173L27.8324 72.3604L27.8324 58.0124L141.993 172.178L141.993 172.173ZM123.404 172.173L109.056 172.173L27.8324 90.9496L27.8324 76.6015L123.404 172.178L123.404 172.173ZM104.815 172.173L89.3698 172.173L27.8273 110.63L27.8273 95.1855L104.815 172.173ZM85.1339 172.173L70.7858 172.173L27.8324 129.219L27.8324 114.871L85.1339 172.173ZM66.5498 172.173L52.2018 172.173L27.8374 147.808L27.8374 133.46L66.5549 172.173L66.5498 172.173ZM47.9608 172.173L33.6128 172.173L27.8374 166.397L27.8374 152.049L47.9659 172.173L47.9608 172.173ZM29.3718 172.173L27.8324 172.173L27.8324 170.633L29.3718 172.173Z" fill="#A6A6A6"/>
<path d="M400.465 165.451L327.535 165.451C326.799 165.451 326.112 165.054 325.74 164.417L289.279 101.259C288.907 100.622 288.907 99.8285 289.279 99.1918L325.74 36.0335C326.112 35.3969 326.79 35 327.535 35L400.465 35C401.201 35 401.887 35.3969 402.26 36.0335L438.721 99.1918C439.093 99.8285 439.093 100.622 438.721 101.259L402.26 164.417C401.887 165.054 401.21 165.451 400.465 165.451ZM328.733 161.317H399.275L434.546 100.225L399.275 39.1339L328.733 39.1339L293.463 100.225L328.733 161.317Z" fill="#A6A6A6"/>
<path d="M431.42 110.394C430.709 110.394 430.015 110.03 429.635 109.369L393.942 48.2941L322.557 48.2941C321.416 48.2941 320.49 47.3681 320.49 46.2271C320.49 45.0862 321.416 44.1602 322.557 44.1602L395.133 44.1602C395.869 44.1602 396.546 44.5487 396.918 45.1854L433.206 107.285C433.785 108.269 433.446 109.534 432.462 110.113C432.131 110.303 431.776 110.394 431.42 110.394Z" fill="#A6A6A6"/>
<path d="M425.715 120.341C425.004 120.341 424.309 119.977 423.929 119.316L388.245 58.2409L316.86 58.2409C315.719 58.2409 314.793 57.3149 314.793 56.1739C314.793 55.0329 315.719 54.1069 316.86 54.1069L389.435 54.1069C390.171 54.1069 390.849 54.4955 391.221 55.1321L427.509 117.232C428.088 118.216 427.749 119.481 426.765 120.06C426.434 120.25 426.079 120.341 425.723 120.341H425.715Z" fill="#A6A6A6"/>
<path d="M420.004 130.287C419.293 130.287 418.598 129.923 418.218 129.262L382.534 68.1872L311.149 68.1872C310.008 68.1872 309.082 67.2612 309.082 66.1202C309.082 64.9792 310.008 64.0532 311.149 64.0532L383.724 64.0532C384.46 64.0532 385.138 64.4418 385.51 65.0784L421.798 127.178C422.377 128.162 422.038 129.427 421.054 130.006C420.723 130.196 420.368 130.287 420.012 130.287H420.004Z" fill="#A6A6A6"/>
<path d="M414.289 140.225C413.578 140.225 412.884 139.862 412.504 139.2L376.811 78.1252L305.426 78.1252C304.285 78.1252 303.359 77.1991 303.359 76.0582C303.359 74.9172 304.285 73.9912 305.426 73.9912L378.002 73.9912C378.738 73.9912 379.416 74.3799 379.788 75.0165L416.075 137.117C416.654 138.1 416.315 139.365 415.331 139.944C415 140.134 414.645 140.225 414.289 140.225Z" fill="#A6A6A6"/>
<path d="M408.586 150.171C407.875 150.171 407.18 149.807 406.8 149.146L371.116 88.071L299.731 88.071C298.59 88.071 297.664 87.1449 297.664 86.004C297.664 84.863 298.59 83.937 299.731 83.937L372.306 83.937C373.042 83.937 373.72 84.3256 374.092 84.9622L410.38 147.062C410.959 148.046 410.628 149.311 409.636 149.89C409.305 150.08 408.95 150.171 408.594 150.171H408.586Z" fill="#A6A6A6"/>
<path d="M402.871 160.109C402.16 160.109 401.466 159.746 401.085 159.084L365.401 98.0094L294.016 98.0094C292.875 98.0094 291.949 97.0834 291.949 95.9425C291.949 94.8015 292.875 93.8755 294.016 93.8755L366.592 93.8755C367.328 93.8755 368.005 94.2641 368.377 94.9007L404.665 157.001C405.244 157.985 404.905 159.25 403.921 159.828C403.59 160.019 403.235 160.109 402.879 160.109H402.871Z" fill="#A6A6A6"/>
</svg>
