<svg width="200" height="200" viewBox="0 0 200 200" fill="none" xmlns="http://www.w3.org/2000/svg">
<path d="M39.1133 160.885V175H42.2643V157.734L39.1133 160.885Z" fill="#2C303C"/>
<path d="M61.3594 138.64L61.3594 175H64.5052V135.495L61.3594 138.64Z" fill="#2C303C"/>
<path d="M53.9414 146.057L53.9414 175H57.0924L57.0924 142.906L53.9414 146.057Z" fill="#2C303C"/>
<path d="M135.494 64.5052L135.494 175H138.645L138.645 61.354L135.494 64.5052Z" fill="#CAF200"/>
<path d="M46.5312 153.469L46.5313 175H49.6771L49.6771 150.323L46.5312 153.469Z" fill="#2C303C"/>
<path d="M31.7031 168.297V175H34.849V165.151L31.7031 168.297Z" fill="#2C303C"/>
<path d="M142.912 57.0887L142.912 175H146.058L146.058 53.9429L142.912 57.0887Z" fill="#2C303C"/>
<path d="M157.738 42.2601L157.738 175H160.884L160.884 39.1143L157.738 42.2601Z" fill="#CAF200"/>
<path d="M150.324 49.6773L150.324 175H153.475L153.475 46.5264L150.324 49.6773Z" fill="#2C303C"/>
<path d="M83.5977 116.401L83.5977 175H86.7435L86.7435 113.255L83.5977 116.401Z" fill="#2C303C"/>
<path d="M91.0156 108.984L91.0156 175H94.1614L94.1614 105.838L91.0156 108.984Z" fill="#2C303C"/>
<path d="M128.082 71.9168L128.082 175H131.228L131.228 68.771L128.082 71.9168Z" fill="#CAF200"/>
<path d="M98.4277 101.573L98.4277 175H101.574L101.574 98.4272L98.4277 101.573Z" fill="#2C303C"/>
<path d="M113.254 86.7445L113.254 175H116.4L116.4 83.5986L113.254 86.7445Z" fill="#2C303C"/>
<path d="M68.7695 131.229L68.7695 175H71.9206L71.9206 128.078L68.7695 131.229Z" fill="#2C303C"/>
<path d="M120.668 79.3336L120.668 175H123.819L123.819 76.1826L120.668 79.3336Z" fill="#CAF200"/>
<path d="M105.84 94.1614L105.84 175H108.991L108.991 91.0103L105.84 94.1614Z" fill="#2C303C"/>
<path d="M76.1875 123.813L76.1875 175H79.3334L79.3334 120.667L76.1875 123.813Z" fill="#2C303C"/>
<path d="M172.566 175H174.999L174.999 25L172.566 27.4323L172.566 175Z" fill="#2C303C"/>
<path d="M25 175H27.4375V172.562L25 175Z" fill="#CAF200"/>
<path d="M165.15 34.849L165.15 175H168.296L168.296 31.7031L165.15 34.849Z" fill="#2C303C"/>
<path d="M25 25L25 175L175 25L25 25Z" fill="#2C303C"/>
</svg>
