<svg width="200" height="200" viewBox="0 0 200 200" fill="none" xmlns="http://www.w3.org/2000/svg">
<path d="M103.326 25L138.529 95.4057L173.732 25L103.326 25Z" fill="#2C303C"/>
<path d="M61.4725 95.4057L96.6753 25L26.2695 25L61.4725 95.4057Z" fill="#2C303C"/>
<path d="M26.2695 175.006H96.6753L61.4725 104.594L26.2695 175.006Z" fill="#2C303C"/>
<path d="M103.326 175.006H173.732L138.529 104.594L103.326 175.006Z" fill="#CAF200"/>
<path d="M97.9474 31.6465L64.7969 97.9475H97.9474L97.9474 31.6465Z" fill="#2C303C"/>
<path d="M97.9474 102.059H64.7969L97.9474 168.354L97.9474 102.059Z" fill="#2C303C"/>
<path d="M102.053 97.9475H135.203L102.053 31.6465L102.053 97.9475Z" fill="#2C303C"/>
<path d="M175 102.058H141.855L175 168.353V102.058Z" fill="#CAF200"/>
<path d="M25 97.9475H58.1447L25 31.6465L25 97.9475Z" fill="#2C303C"/>
<path d="M25 168.353L58.1447 102.058H25L25 168.353Z" fill="#2C303C"/>
<path d="M102.053 168.353L135.203 102.058H102.053L102.053 168.353Z" fill="#2C303C"/>
<path d="M175 97.9475V31.6465L141.855 97.9475H175Z" fill="#CAF200"/>
</svg>
