<svg width="200" height="200" viewBox="0 0 200 200" fill="none" xmlns="http://www.w3.org/2000/svg">
<path d="M175 174.787L25 174.787V175L175 175V174.787Z" fill="#2C303C"/>
<path d="M175 165.974L25 165.974V167.173L175 167.173V165.974Z" fill="#2C303C"/>
<path d="M175 157.165L25 157.165V159.354L175 159.354V157.165Z" fill="#2C303C"/>
<path d="M175 148.352L25 148.352V151.526L175 151.526V148.352Z" fill="#CAF200"/>
<path d="M175 139.543L25 139.543V143.708L175 143.708V139.543Z" fill="#2C303C"/>
<path d="M175 130.73L25 130.73V135.881L175 135.881V130.73Z" fill="#2C303C"/>
<path d="M175 121.922L25 121.922V128.063L175 128.063V121.922Z" fill="#2C303C"/>
<path d="M175 113.109L25 113.109V120.235L175 120.235V113.109Z" fill="#CAF200"/>
<path d="M25 112.412L175 112.412C175 110.204 175 27.2128 175 25L25 25C25 34.6993 25 101.831 25 112.412Z" fill="#2C303C"/>
</svg>
