<svg width="200" height="200" viewBox="0 0 200 200" fill="none" xmlns="http://www.w3.org/2000/svg">
<path d="M167.924 159.334L159.746 167.512L161.382 169.148L169.56 160.97L167.924 159.334Z" fill="#2C303C"/>
<path d="M155.818 167.491L157.457 169.129C159.207 167.379 171.768 154.817 173.601 152.984L171.963 151.346C170.13 153.179 157.573 165.736 155.818 167.491Z" fill="#2C303C"/>
<path d="M175 147.622L173.362 145.984C171.199 148.147 153.961 165.385 151.885 167.461L153.523 169.099C155.599 167.023 172.832 149.79 175 147.622Z" fill="#2C303C"/>
<path d="M171.058 147.607L169.42 145.969C158.861 156.528 162.648 152.741 147.957 167.432L149.595 169.07C167.344 151.322 168.496 150.169 171.058 147.607Z" fill="#CAF200"/>
<path d="M167.102 147.607L165.464 145.969C163.3 148.133 146.077 165.356 144.016 167.417L145.654 169.055C147.715 166.994 164.939 149.771 167.102 147.607Z" fill="#2C303C"/>
<path d="M163.144 147.607L161.506 145.969C149.79 157.685 154.894 152.581 140.082 167.393L141.72 169.031C159.061 151.691 160.66 150.091 163.144 147.607Z" fill="#2C303C"/>
<path d="M159.191 147.607L157.553 145.969C144.481 159.041 149.133 154.389 136.158 167.364L137.796 169.002C150.747 156.051 146.163 160.636 159.191 147.607Z" fill="#2C303C"/>
<path d="M155.249 147.593L153.61 145.955C151.442 148.123 134.19 165.375 132.23 167.335L133.869 168.973C135.828 167.014 153.081 149.761 155.249 147.593Z" fill="#2C303C"/>
<path d="M151.305 147.584L149.667 145.945C135.739 159.873 129.677 165.935 128.297 167.316L129.935 168.954C148.257 150.632 148.884 150.005 151.305 147.584Z" fill="#CAF200"/>
<path d="M147.35 147.584L145.712 145.945C143.34 148.318 126.729 164.929 124.371 167.286L126.009 168.925C128.367 166.567 144.978 149.956 147.35 147.584Z" fill="#2C303C"/>
<path d="M143.393 147.584L141.754 145.945C139.358 148.342 124.015 163.684 120.438 167.262L122.076 168.9C125.649 165.327 140.981 149.995 143.393 147.584Z" fill="#2C303C"/>
<path d="M139.44 147.584L137.801 145.945C124.651 159.095 129.377 154.37 116.514 167.233L118.152 168.871C130.981 156.042 126.358 160.665 139.44 147.584Z" fill="#2C303C"/>
<path d="M135.497 147.569L133.859 145.931C121.667 158.123 126.572 153.218 112.586 167.204L114.224 168.842C128.2 154.866 123.305 159.761 135.497 147.569Z" fill="#2C303C"/>
<path d="M131.554 147.554L129.916 145.916C127.49 148.342 112.211 163.621 108.652 167.179L110.291 168.818C113.849 165.259 129.123 149.985 131.554 147.554Z" fill="#CAF200"/>
<path d="M127.598 147.554L125.96 145.916C122.683 149.193 106.981 164.894 104.711 167.165L106.349 168.803C109.908 165.245 125.192 149.966 127.598 147.554Z" fill="#2C303C"/>
<path d="M123.654 147.54L122.015 145.901C109.303 158.614 113.498 154.418 100.781 167.136L102.42 168.774C115.137 156.057 110.941 160.252 123.654 147.54Z" fill="#2C303C"/>
<path d="M119.698 147.545L118.059 145.906C115.716 148.249 98.7844 165.181 96.8496 167.116L98.4879 168.754C100.423 166.82 117.355 149.888 119.698 147.545Z" fill="#2C303C"/>
<path d="M115.745 147.545L114.106 145.906C111.763 148.249 94.846 165.167 92.9258 167.087L94.564 168.725C96.4842 166.805 113.402 149.888 115.745 147.545Z" fill="#2C303C"/>
<path d="M111.804 147.53L110.166 145.892C107.823 148.235 90.9008 165.157 89 167.058L90.6383 168.696C92.5439 166.79 109.456 149.878 111.804 147.53Z" fill="#CAF200"/>
<path d="M107.846 147.53L106.208 145.892C104.055 148.045 87.1519 164.948 85.0664 167.033L86.7047 168.672C88.7902 166.586 105.693 149.683 107.846 147.53Z" fill="#2C303C"/>
<path d="M103.904 147.515L102.266 145.877C88.5084 159.634 95.0857 153.057 81.1387 167.004L82.7769 168.642C96.7142 154.705 90.1661 161.253 103.904 147.515Z" fill="#2C303C"/>
<path d="M99.9462 147.515L98.308 145.877C85.4158 158.769 91.1278 153.057 77.2051 166.98L78.8433 168.618C92.5522 154.909 87.02 160.441 99.9462 147.515Z" fill="#2C303C"/>
<path d="M95.9952 147.515L94.3569 145.877C80.6335 159.6 87.1525 153.081 73.2832 166.95L74.9215 168.589C88.8004 154.71 82.2717 161.238 95.9952 147.515Z" fill="#2C303C"/>
<path d="M92.0518 147.501L90.4136 145.862C76.4957 159.78 83.389 152.887 69.3398 166.936L70.9781 168.574C84.8425 154.71 78.2895 161.263 92.0518 147.501Z" fill="#CAF200"/>
<path d="M88.0939 147.501L86.4556 145.862C74.2587 158.059 79.1977 153.12 65.4062 166.912L67.0445 168.55C80.7874 154.807 75.7705 159.824 88.0939 147.501Z" fill="#2C303C"/>
<path d="M84.1535 147.486L82.5153 145.848C67.5328 160.831 74.183 154.18 61.4805 166.883L63.1187 168.521C75.8213 155.818 69.171 162.469 84.1535 147.486Z" fill="#2C303C"/>
<path d="M80.1947 147.486L78.5565 145.848C77.5064 146.898 58.6495 165.755 57.5605 166.844L59.1988 168.482C60.2148 167.466 78.1384 149.543 80.1947 147.486Z" fill="#2C303C"/>
<path d="M76.2426 147.486L74.6044 145.848C60.8226 159.63 67.3708 153.082 53.623 166.829L55.2613 168.468C69.0042 154.725 62.4657 161.263 76.2426 147.486Z" fill="#2C303C"/>
<path d="M72.3003 147.476L70.6621 145.838C68.5037 147.997 51.6593 164.841 49.6953 166.805L51.3336 168.443C53.3121 166.465 70.1468 149.63 72.3003 147.476Z" fill="#CAF200"/>
<path d="M75.6101 140.204L73.9718 138.565C70.8265 141.711 48.6931 163.844 45.7617 166.775L47.4 168.414C50.3265 165.487 72.4599 143.354 75.6101 140.204Z" fill="#2C303C"/>
<path d="M78.7623 133.101L80.7068 131.157L79.0686 129.519C75.0629 133.524 45.7979 162.789 41.8359 166.751L43.4742 168.389C59.1081 152.756 61.5339 150.33 78.7623 133.101Z" fill="#2C303C"/>
<path d="M85.8094 122.096L84.1712 120.458C75.3674 129.261 48.5671 156.062 37.9063 166.722L39.5445 168.361C93.9958 113.909 67.6622 140.243 85.8094 122.096Z" fill="#2C303C"/>
<path d="M90.9041 113.048L89.2658 111.41C87.2581 113.418 38.8397 161.837 36.8125 163.864L38.4508 165.502C40.4779 163.475 88.8818 115.071 90.9041 113.048Z" fill="#2C303C"/>
<path d="M95.9938 104.002L94.3556 102.363C88.347 108.372 47.2497 149.469 41.6641 155.055L43.3023 156.693C89.0665 110.929 95.2598 104.736 95.9938 104.002Z" fill="#CAF200"/>
<path d="M101.074 94.9694L99.4356 93.3311C96.9224 95.8443 48.7907 143.976 46.5156 146.251L48.1539 147.889C54.4444 141.599 39.6564 156.387 101.074 94.9694Z" fill="#2C303C"/>
<path d="M99.736 92.3492L98.0977 90.7109C93.9462 94.8625 56.3149 132.494 51.3516 137.457L52.9898 139.095C57.9629 134.122 95.4872 96.598 99.736 92.3492Z" fill="#2C303C"/>
<path d="M98.3574 89.768L96.7191 88.1299C91.7946 93.0544 59.8414 125.008 56.2148 128.634L57.8531 130.272C61.4991 126.626 93.4815 94.6438 98.3574 89.768Z" fill="#2C303C"/>
<path d="M96.9816 87.1915L95.3434 85.5532C93.4377 87.4588 62.8262 118.071 61.0664 119.83L62.7047 121.468C64.4645 119.709 95.0809 89.0923 96.9816 87.1915Z" fill="#2C303C"/>
<path d="M95.6048 84.61L93.9666 82.9717C90.6998 86.2385 69.174 107.764 65.9023 111.036L67.5406 112.674C70.8122 109.403 92.3332 87.8816 95.6048 84.61Z" fill="#CAF200"/>
<path d="M94.2301 82.0338L92.5919 80.3955C79.515 93.4724 84.07 88.9174 70.7695 102.218L72.4078 103.856C85.718 90.5458 81.1533 95.1107 94.2301 82.0338Z" fill="#2C303C"/>
<path d="M70.7607 102.232L70.7461 102.247L72.3941 103.871L70.7607 102.232Z" fill="#2C303C"/>
<path d="M92.869 79.4379L91.2307 77.7998C79.1504 89.8801 77.3566 91.6739 75.6211 93.4093L77.2593 95.0477C89.5876 82.7194 91.114 81.1928 92.869 79.4379Z" fill="#2C303C"/>
<path d="M91.4776 76.8759L89.8393 75.2378C86.6017 78.4754 83.7141 81.3629 80.457 84.62L82.0953 86.2583C85.7218 82.6318 88.2108 80.1427 91.4776 76.8759Z" fill="#2C303C"/>
<path d="M88.4628 72.6627L85.2969 75.8286L86.9332 77.4649L90.0991 74.299L88.4628 72.6627Z" fill="#CAF200"/>
<path d="M139.757 124.246L138.488 125.514L139.55 126.576L140.819 125.308L139.757 124.246Z" fill="#2C303C"/>
<path d="M138.151 121.942L134.277 125.816L135.343 126.882L139.217 123.008L138.151 121.942Z" fill="#2C303C"/>
<path d="M136.782 119.338L130.312 125.807L131.378 126.873L137.847 120.403L136.782 119.338Z" fill="#2C303C"/>
<path d="M136.431 117.866L135.366 116.802C132.654 119.514 134.481 117.691 126.305 125.863L127.369 126.928C135.522 118.775 133.553 120.744 136.431 117.866Z" fill="#2C303C"/>
<path d="M135.025 115.314L133.96 114.25C128.287 119.923 131.184 117.025 122.293 125.917L123.358 126.981C131.675 118.664 129.186 121.153 135.025 115.314Z" fill="#CAF200"/>
<path d="M133.612 112.777L132.547 111.712C123.403 120.856 127.302 116.957 118.289 125.97L119.354 127.035C128.362 118.027 124.477 121.911 133.612 112.777Z" fill="#2C303C"/>
<path d="M132.205 110.224L131.14 109.16C121.277 119.023 123.474 116.826 116.309 123.992L117.373 125.056C123.712 118.717 120.071 122.358 132.205 110.224Z" fill="#2C303C"/>
<path d="M130.543 107.93L130.806 107.667L129.741 106.603L129.479 106.865C116.771 119.572 118.584 117.759 114.934 121.41L115.998 122.475C119.571 118.902 118.312 120.161 130.543 107.93Z" fill="#2C303C"/>
<path d="M129.386 105.13L128.321 104.065C124.491 107.896 122.104 110.282 113.543 118.843L114.608 119.908C123.168 111.347 125.56 108.955 129.386 105.13Z" fill="#2C303C"/>
<path d="M127.973 102.592L126.908 101.527C121.848 106.588 123.486 104.95 112.154 116.281L113.219 117.346C124.517 106.048 122.917 107.648 127.973 102.592Z" fill="#CAF200"/>
<path d="M126.566 100.04L125.501 98.9756C122.536 101.941 113.693 110.784 110.762 113.715L111.826 114.78C114.758 111.848 123.605 103.001 126.566 100.04Z" fill="#2C303C"/>
<path d="M125.161 97.4882L124.096 96.4233C113.007 107.512 114.704 105.815 109.371 111.148L110.436 112.213C115.973 106.676 112.886 109.763 125.161 97.4882Z" fill="#2C303C"/>
<path d="M123.747 94.9457L122.682 93.8809C119.882 96.681 110.762 105.801 107.996 108.567L109.061 109.632C111.827 106.866 120.947 97.7458 123.747 94.9457Z" fill="#2C303C"/>
<path d="M122.332 92.4079L121.267 91.3433C116.931 95.6795 120.392 92.2184 106.605 106.005L107.67 107.07C121.481 93.2587 117.806 96.9337 122.332 92.4079Z" fill="#2C303C"/>
<path d="M120.928 89.8556L119.864 88.791C111.522 97.133 114.643 94.012 105.217 103.438L106.281 104.503C115.707 95.0766 112.587 98.1976 120.928 89.8556Z" fill="#CAF200"/>
<path d="M119.513 87.3175L118.448 86.2529C109.158 95.5429 112.843 91.8581 103.84 100.861L104.904 101.926C113.903 92.9276 110.223 96.6075 119.513 87.3175Z" fill="#2C303C"/>
<path d="M118.109 84.7658L117.045 83.7012C105.052 95.694 107.823 92.923 102.451 98.2948L103.516 99.3594C106.588 96.287 104.493 98.3822 118.109 84.7658Z" fill="#2C303C"/>
<path d="M37.7501 162.994L34.8906 165.854L35.9565 166.92L38.8159 164.059L37.7501 162.994Z" fill="#2C303C"/>
<path d="M116.694 82.2233L115.629 81.1587C112.756 84.0317 103.962 92.8258 101.064 95.7231L102.129 96.7877C105.026 93.8904 113.825 85.0963 116.694 82.2233Z" fill="#2C303C"/>
<path d="M33.4844 163.31L34.549 164.374C35.6768 163.247 42.5555 156.368 43.6639 155.259L42.5993 154.195C41.4909 155.303 34.6122 162.182 33.4844 163.31Z" fill="#CAF200"/>
<path d="M115.287 79.671L114.223 78.6064C108.627 84.2018 112.594 80.2349 99.668 93.1611L100.733 94.226C112.988 81.9706 109.877 85.0817 115.287 79.671Z" fill="#2C303C"/>
<path d="M32.0625 160.767L33.1271 161.832C39.5003 155.459 36.7634 158.196 48.5228 146.436L47.4582 145.372C35.7036 157.126 38.4357 154.394 32.0625 160.767Z" fill="#2C303C"/>
<path d="M113.879 77.1286L112.815 76.064C110.087 78.7911 101.24 87.6386 98.2891 90.5894L99.3537 91.6543C102.304 88.7035 111.152 79.8557 113.879 77.1286Z" fill="#2C303C"/>
<path d="M30.6523 158.225L31.717 159.29C35.047 155.96 50.7878 140.219 53.3643 137.642L52.2997 136.578C50.2385 138.639 32.6795 156.198 30.6523 158.225Z" fill="#2C303C"/>
<path d="M112.46 74.591L111.396 73.5264C108.241 76.6813 112.796 72.1264 96.8945 88.0276L97.9592 89.0922C113.856 73.1958 109.301 77.7508 112.46 74.591Z" fill="#CAF200"/>
<path d="M29.2383 155.687L30.3029 156.752C45.3632 141.692 37.9205 149.134 58.2213 128.834L57.1567 127.769C36.6177 148.308 44.4055 140.52 29.2383 155.687Z" fill="#2C303C"/>
<path d="M111.059 72.0392L109.994 70.9746C107.238 73.731 99.0079 81.9612 96.1009 84.8682L95.5078 85.4612L96.5724 86.5258L97.1655 85.9328C100.073 83.0258 108.303 74.7956 111.059 72.0392Z" fill="#2C303C"/>
<path d="M27.834 153.13L28.8986 154.195C33.1279 149.965 58.8442 124.254 63.0686 120.025L62.004 118.96C58.5622 122.402 40.9643 140 27.834 153.13Z" fill="#2C303C"/>
<path d="M109.639 69.4962L108.575 68.4316C104.574 72.4325 97.1409 79.8653 94.1172 82.889L95.1818 83.9536C97.9819 81.1535 106.834 72.3012 109.639 69.4962Z" fill="#2C303C"/>
<path d="M26.418 150.593L27.4826 151.657C39.6455 139.494 66.3486 112.791 67.9091 111.231L66.8444 110.166C65.8576 111.153 40.0101 137 26.418 150.593Z" fill="#CAF200"/>
<path d="M108.239 66.9445L107.174 65.8799C104.311 68.7432 98.8712 74.1828 92.7266 80.3275L93.7912 81.3921C99.9359 75.2474 105.381 69.8029 108.239 66.9445Z" fill="#2C303C"/>
<path d="M25 148.055L26.0646 149.12C27.2654 147.919 71.5225 103.662 72.7719 102.412L71.7073 101.348C70.4579 102.597 26.2056 146.849 25 148.055Z" fill="#2C303C"/>
<path d="M106.82 64.4064L105.756 63.3418C95.367 73.7304 98.0844 71.0129 91.3516 77.7457L92.4162 78.8103C98.6241 72.6025 97.2921 73.9345 106.82 64.4064Z" fill="#2C303C"/>
<path d="M25.1055 143.991L26.1701 145.055C40.9727 130.253 71.419 99.8067 77.622 93.6037L76.5574 92.5391C71.1419 97.9545 30.6473 138.449 25.1055 143.991Z" fill="#2C303C"/>
<path d="M105.42 61.8546L104.355 60.79C94.5306 70.6147 97.6953 67.4499 89.9609 75.1843L91.0256 76.2488C98.6675 68.6069 95.7313 71.5432 105.42 61.8546Z" fill="#CAF200"/>
<path d="M29.9883 135.158L31.0529 136.223C51.8058 115.47 65.641 101.635 82.461 84.8146L81.3964 83.75C63.0353 102.111 51.2661 113.88 29.9883 135.158Z" fill="#2C303C"/>
<path d="M104 59.3122L102.935 58.2476C93.8156 67.3673 97.7047 63.4782 88.5703 72.6126L89.6349 73.6774C98.7693 64.543 94.8803 68.4319 104 59.3122Z" fill="#2C303C"/>
<path d="M34.8789 126.31L35.9435 127.375C38.4908 124.828 83.8224 79.496 87.2982 76.0202L86.2336 74.9556C83.448 77.7411 37.7179 123.471 34.8789 126.31Z" fill="#2C303C"/>
<path d="M102.601 56.7599L101.536 55.6953C95.3767 61.8546 46.9632 110.268 39.7441 117.487L40.8088 118.552C43.6478 115.713 99.1588 60.2017 102.601 56.7599Z" fill="#2C303C"/>
<path d="M101.181 54.2225L100.117 53.1577C91.0794 62.1949 51.1002 102.174 44.6152 108.659L45.6799 109.724C50.1814 105.222 87.5064 67.8974 101.181 54.2225Z" fill="#CAF200"/>
<path d="M99.7667 51.6847L98.7021 50.6201C96.8597 52.4625 51.6399 97.6821 49.4961 99.826L50.5607 100.891C52.1504 99.3012 97.7152 53.7362 99.7667 51.6847Z" fill="#2C303C"/>
<path d="M98.3628 49.1325L97.2982 48.0679C79.0732 66.2928 72.8897 72.4715 54.3633 91.0027L55.4279 92.0673C56.9689 90.5263 95.9468 51.5485 98.3628 49.1325Z" fill="#2C303C"/>
<path d="M96.9464 46.59L95.8818 45.5254C84.9633 56.4438 82.7174 58.6898 59.252 82.1553L60.3166 83.2199C83.7237 59.8127 86.0668 57.4696 96.9464 46.59Z" fill="#2C303C"/>
<path d="M95.5415 44.0377L94.4769 42.9731C91.1129 46.3372 67.6134 69.8366 64.1133 73.3367L65.1779 74.4013C74.0886 65.4906 93.8304 45.7489 95.5415 44.0377Z" fill="#2C303C"/>
<path d="M94.1436 41.4855L93.0789 40.4209C68.51 64.9899 75.7144 57.7854 68.9961 64.5037L70.0607 65.5683C76.2394 59.3896 71.9421 63.687 94.1436 41.4855Z" fill="#CAF200"/>
<path d="M92.7223 38.9479L91.6576 37.8833C82.3385 47.2024 85.0803 44.4607 73.8848 55.6562L74.9494 56.7208C85.7268 45.9433 83.3108 48.3594 92.7223 38.9479Z" fill="#2C303C"/>
<path d="M91.3067 36.4103L90.2421 35.3457C86.4017 39.1861 82.5758 43.0118 78.75 46.8376L79.8146 47.9025C83.6405 44.0766 87.4663 40.2507 91.3067 36.4103Z" fill="#2C303C"/>
<path d="M84.6916 39.0697L85.1388 38.6225L84.6089 38.0877L85.1388 38.6225L89.9029 33.8585L88.8382 32.7939L84.0742 37.5579L83.627 38.0051L84.6916 39.0697Z" fill="#2C303C"/>
<path d="M174.042 144.396L171.855 146.582L172.333 147.06L174.519 144.874L174.042 144.396Z" fill="#2C303C"/>
<path d="M172.571 141.921L167.879 146.613L168.357 147.091L173.049 142.399L172.571 141.921Z" fill="#CAF200"/>
<path d="M171.139 139.401L163.91 146.63L164.388 147.108L171.617 139.879L171.139 139.401Z" fill="#2C303C"/>
<path d="M169.812 136.754L160.043 146.523L160.521 147.001L170.29 137.232L169.812 136.754Z" fill="#2C303C"/>
<path d="M168.852 134.721L168.375 134.244C164.253 138.367 160.203 142.416 156.066 146.553L156.543 147.029C160.68 142.892 164.729 138.843 168.852 134.721Z" fill="#2C303C"/>
<path d="M167.436 132.178L166.96 131.701C162.954 135.707 160.596 138.065 152.113 146.548L152.59 147.024C161.058 138.556 163.46 136.154 167.436 132.178Z" fill="#2C303C"/>
<path d="M166.023 129.64L165.546 129.164C163.441 131.269 150.287 144.424 148.172 146.538L148.648 147.015C150.763 144.9 163.918 131.745 166.023 129.64Z" fill="#CAF200"/>
<path d="M164.603 127.103L164.127 126.626C153.257 137.496 157.306 133.447 144.215 146.538L144.691 147.015C157.438 134.268 154.127 137.579 164.603 127.103Z" fill="#2C303C"/>
<path d="M163.188 124.56L162.711 124.084C158.297 128.498 144.637 142.158 140.271 146.524L140.748 147C145.108 142.639 158.769 128.979 163.188 124.56Z" fill="#2C303C"/>
<path d="M161.766 122.023L161.29 121.546C156.764 126.072 141.242 141.594 136.312 146.524L136.789 147C141.718 142.071 157.24 126.549 161.766 122.023Z" fill="#2C303C"/>
<path d="M160.353 119.485L159.876 119.009C154.028 124.857 138.632 140.252 132.361 146.524L132.838 147C139.201 140.636 154.568 125.27 160.353 119.485Z" fill="#2C303C"/>
<path d="M158.939 116.943L158.463 116.466C141.186 133.743 140.189 134.74 128.42 146.509L128.896 146.985C142.192 133.69 141.784 134.098 158.939 116.943Z" fill="#CAF200"/>
<path d="M157.518 114.405L157.041 113.929C142.467 128.503 135.895 135.075 124.461 146.509L124.937 146.985C139.186 132.737 142.851 129.072 157.518 114.405Z" fill="#2C303C"/>
<path d="M156.104 111.868L155.628 111.391C135.332 131.687 149.206 117.813 120.52 146.499L120.996 146.976C149.872 118.1 135.964 132.008 156.104 111.868Z" fill="#2C303C"/>
<path d="M139.324 123.739L139.801 124.215C141.75 122.266 153.5 110.516 154.686 109.33L154.209 108.854C153.023 110.04 141.269 121.789 139.324 123.739Z" fill="#2C303C"/>
<path d="M137.554 126.461L137.077 125.984C125.191 137.87 129.703 133.359 116.562 146.499L117.039 146.976C131.501 132.513 127.058 136.956 137.554 126.461Z" fill="#2C303C"/>
<path d="M137.918 121.187L138.394 121.663C149.099 110.958 146.941 113.117 153.27 106.787L152.794 106.311C146.299 112.811 148.72 110.385 137.918 121.187Z" fill="#CAF200"/>
<path d="M133.572 126.485L133.096 126.009C121.244 137.861 125.741 133.364 112.625 146.48L113.101 146.956C128.891 131.167 123.13 136.927 133.572 126.485Z" fill="#2C303C"/>
<path d="M136.52 118.635L136.996 119.111C146.84 109.267 143.316 112.791 151.857 104.25L151.38 103.773C142.727 112.427 146.403 108.752 136.52 118.635Z" fill="#2C303C"/>
<path d="M129.591 126.514L129.115 126.038C117.306 137.846 121.779 133.374 108.668 146.485L109.144 146.961C124.89 131.215 119.961 136.145 129.591 126.514Z" fill="#2C303C"/>
<path d="M135.098 116.092L135.574 116.569C141.252 110.891 144.981 107.162 150.45 101.693L149.973 101.217C144.504 106.686 140.776 110.414 135.098 116.092Z" fill="#2C303C"/>
<path d="M125.619 126.529L125.143 126.053C114.468 136.728 117.326 133.87 104.711 146.485L105.187 146.961C117.759 134.39 114.973 137.175 125.619 126.529Z" fill="#CAF200"/>
<path d="M133.699 113.54L134.176 114.016C136.023 112.169 147.184 101.007 149.022 99.1698L148.546 98.6934C146.708 100.531 135.547 111.692 133.699 113.54Z" fill="#2C303C"/>
<path d="M121.654 126.539L121.177 126.062C110.541 136.699 113.336 133.904 100.77 146.47L101.246 146.947C115.713 132.479 110.925 137.268 121.654 126.539Z" fill="#2C303C"/>
<path d="M132.78 110.502L132.279 111.002L132.756 111.479L133.256 110.978C136.241 107.993 144.598 99.6364 147.602 96.6322L147.126 96.1558C144.097 99.1843 135.76 107.522 132.78 110.502Z" fill="#2C303C"/>
<path d="M117.671 126.568L117.195 126.092C105.888 137.399 109.815 133.471 96.8164 146.47L97.2928 146.947C111.692 132.548 107.448 136.791 117.671 126.568Z" fill="#2C303C"/>
<path d="M130.879 108.45L131.355 108.926C141.904 98.3773 140.198 100.084 146.202 94.0799L145.725 93.6035C139.726 99.6023 141.428 97.9009 130.879 108.45Z" fill="#CAF200"/>
<path d="M113.691 126.593L113.215 126.116C102.651 136.68 106.837 132.494 92.875 146.456L93.3514 146.932C107.464 132.82 103.098 137.185 113.691 126.593Z" fill="#2C303C"/>
<path d="M129.461 105.913L129.937 106.389C139.85 96.4768 135.761 100.565 144.784 91.5428L144.307 91.0664C134.405 100.969 138.537 96.8365 129.461 105.913Z" fill="#2C303C"/>
<path d="M109.717 126.607L109.241 126.131C96.7573 138.615 101.356 134.016 88.916 146.456L89.3924 146.932C101.837 134.487 97.2434 139.081 109.717 126.607Z" fill="#2C303C"/>
<path d="M128.059 103.36L128.535 103.836C131.369 101.002 140.533 91.8388 143.367 89.0047L142.89 88.5283C140.051 91.3673 130.888 100.531 128.059 103.36Z" fill="#2C303C"/>
<path d="M105.736 126.637L105.26 126.16C101.079 130.341 89.2175 142.202 84.959 146.461L85.4354 146.937C89.689 142.684 101.551 130.822 105.736 126.637Z" fill="#CAF200"/>
<path d="M126.641 100.818L127.117 101.294C129.363 99.048 140.879 87.5317 141.949 86.4622L141.472 85.9858C140.335 87.1234 128.25 99.2084 126.641 100.818Z" fill="#2C303C"/>
<path d="M101.766 126.646L101.289 126.169C89.7047 137.754 94.0847 133.374 81.0176 146.441L81.494 146.917C94.532 133.879 90.2006 138.211 101.766 126.646Z" fill="#2C303C"/>
<path d="M125.227 98.2802L125.703 98.7566C139.694 84.7658 136.782 87.6776 140.535 83.9246L140.058 83.4482C136.13 87.3762 139.159 84.3477 125.227 98.2802Z" fill="#2C303C"/>
<path d="M97.7823 126.675L97.3059 126.198C88.4146 135.09 91.4772 132.027 77.0586 146.446L77.535 146.922C94.2432 130.214 89.0708 135.386 97.7823 126.675Z" fill="#2C303C"/>
<path d="M123.82 95.7279L124.297 96.2043C137.66 82.8407 130.655 89.8457 139.119 81.3822L138.642 80.9058C130.179 89.3693 137.116 82.4323 123.82 95.7279Z" fill="#CAF200"/>
<path d="M93.801 126.699L93.3246 126.223C81.4971 138.05 86.3146 133.233 73.1211 146.426L73.5975 146.903C86.6452 133.855 82.2895 138.211 93.801 126.699Z" fill="#2C303C"/>
<path d="M122.41 93.1808L122.887 93.6572C132.434 84.1097 129.435 87.1092 137.709 78.8353L137.232 78.3589C128.74 86.8516 132.07 83.5215 122.41 93.1808Z" fill="#2C303C"/>
<path d="M89.8239 126.719L89.3475 126.242C87.369 128.221 73.7719 141.818 72.1094 143.48L72.5858 143.957C74.2337 142.309 87.5974 128.945 89.8239 126.719Z" fill="#2C303C"/>
<path d="M120.996 90.643L121.472 91.1194C131.531 81.0614 129.902 82.6898 136.295 76.2972L135.818 75.8208C129.435 82.2037 131.064 80.5753 120.996 90.643Z" fill="#2C303C"/>
<path d="M82.9647 129.626L85.8572 126.733L85.3808 126.257L82.4834 129.149L77.1992 134.434L77.6756 134.915L82.9647 129.626Z" fill="#CAF200"/>
<path d="M119.59 88.0907L120.066 88.5671C131.724 76.9097 129.944 78.6889 134.874 73.7596L134.397 73.2832C129.065 78.616 131.378 76.302 119.59 88.0907Z" fill="#2C303C"/>
<path d="M118.176 85.5536L118.652 86.03C125.876 78.8061 128.841 75.8407 133.46 71.2225L132.983 70.7461C128.389 75.34 123.494 80.2353 118.176 85.5536Z" fill="#2C303C"/>
<path d="M116.771 83.0013L117.248 83.4776C119.912 80.8137 128.837 71.8885 132.041 68.6849L131.564 68.2085C128.361 71.4121 119.445 80.3275 116.771 83.0013Z" fill="#2C303C"/>
<path d="M115.355 80.4588L115.832 80.9352C120.382 76.385 126.298 70.469 130.625 66.1424L130.148 65.666C125.817 69.9974 119.901 75.9135 115.355 80.4588Z" fill="#2C303C"/>
<path d="M113.953 77.9062L114.43 78.3826C117.132 75.6797 125.965 66.8468 129.208 63.6043L128.731 63.1279C125.489 66.3704 116.651 75.2082 113.953 77.9062Z" fill="#CAF200"/>
<path d="M112.537 75.3693L113.014 75.8457C126.343 62.5161 114.423 74.4358 127.792 61.0672L127.315 60.5908C113.961 73.9448 125.852 62.0543 112.537 75.3693Z" fill="#2C303C"/>
<path d="M111.133 72.8166L111.609 73.293C113.179 71.7228 124.822 60.0799 126.378 58.5242L125.901 58.0479C124.346 59.6035 112.708 71.2416 111.133 72.8166Z" fill="#2C303C"/>
<path d="M109.727 70.2648L110.203 70.7412C119.848 61.0964 116.737 64.2076 124.957 55.9871L124.481 55.5107C116.265 63.7263 119.391 60.6006 109.727 70.2648Z" fill="#2C303C"/>
<path d="M108.312 67.7272L108.789 68.2036C119.756 57.2365 117.199 59.7935 123.543 53.4495L123.067 52.9731C116.883 59.1567 119.197 56.8428 108.312 67.7272Z" fill="#2C303C"/>
<path d="M106.895 65.1847L107.371 65.6611C110.361 62.6714 119.135 53.8968 122.125 50.9071L121.649 50.4307L106.895 65.1847Z" fill="#CAF200"/>
<path d="M105.492 62.6324L105.969 63.1088C107.461 61.6164 119.143 49.9348 120.708 48.3695L120.232 47.8931C118.661 49.4633 106.985 61.14 105.492 62.6324Z" fill="#2C303C"/>
<path d="M104.074 60.0948L104.551 60.5712C109.251 55.8703 110.418 54.7037 119.29 45.8319L118.814 45.3555C111.031 53.1384 108.566 55.603 104.074 60.0948Z" fill="#2C303C"/>
<path d="M102.658 57.5572L103.135 58.0336C109.313 51.8549 115.434 45.7346 117.874 43.2943L117.398 42.8179C112.988 47.2271 108.681 51.5341 102.658 57.5572Z" fill="#2C303C"/>
<path d="M101.254 55.0051L101.73 55.4815C107.535 49.6772 103.189 54.0231 116.455 40.7567L115.979 40.2803C103.456 52.803 107.919 48.3403 101.254 55.0051Z" fill="#2C303C"/>
<path d="M99.8555 52.448L100.332 52.9244C108.547 44.7089 104.999 48.2576 115.047 38.2093L114.571 37.7329C104.26 48.0437 108.188 44.1158 99.8555 52.448Z" fill="#CAF200"/>
<path d="M98.4336 49.9104L98.91 50.3868C122.2 27.0964 93.8834 55.4134 113.625 35.6717L113.149 35.1953C93.9709 54.3731 119.498 28.8465 98.4336 49.9104Z" fill="#2C303C"/>
<path d="M97.0352 47.3582L97.5116 47.8346C107.749 37.5967 104.979 40.3676 112.227 33.1195L111.75 32.6431C104.711 39.6871 108.483 35.9099 97.0352 47.3582Z" fill="#2C303C"/>
<path d="M96.0917 45.2969C107.253 34.1354 105.761 35.6279 109.912 31.4764L109.436 31C105.683 34.7529 108.425 32.011 95.6152 44.8205L96.0917 45.2969Z" fill="#2C303C"/>
<path d="M94.7534 42.2053L94.5103 41.9672L94.1992 42.2831L94.6756 42.7595L94.9916 42.4436L105.861 31.5736L105.385 31.0972L94.5103 41.9672L94.7534 42.2053Z" fill="#2C303C"/>
<path d="M92.7969 39.7258L93.2733 40.2022C95.281 38.1945 93.4726 40.0031 101.839 31.6368L101.362 31.1602C93.9879 38.5347 95.1789 37.3438 92.7969 39.7258Z" fill="#CAF200"/>
<path d="M91.871 37.6552L97.8066 31.7196L97.3302 31.2432C95.2982 33.2752 93.7668 34.8065 91.3945 37.1788L91.871 37.6552Z" fill="#2C303C"/>
<path d="M93.2902 31.3245L89.9766 34.6382L90.4544 35.116L93.7681 31.8023L93.2902 31.3245Z" fill="#2C303C"/>
<path d="M89.2549 31.4033L88.5605 32.0977L89.0384 32.5755L89.7328 31.8811L89.2549 31.4033Z" fill="#2C303C"/>
</svg>
